<svg width="259" height="259" viewBox="0 0 259 259" fill="none" xmlns="http://www.w3.org/2000/svg">
<path d="M252.486 230.747C248.582 228.863 244.331 228.482 240.081 228.577C240.289 225.406 240.497 222.235 240.658 219.04C246.734 219.875 252.855 219.231 259 218.897C253.364 216.179 246.895 216.251 240.751 217.276C240.959 212.889 241.144 208.502 241.259 204.115C245.902 205.211 250.707 204.759 255.419 204.091C250.938 202.35 246.018 202.446 241.282 203.042C241.374 199.394 241.467 195.722 241.536 192.074C246.318 192.384 251.1 191.502 255.789 190.405C251.169 189.046 246.272 189.332 241.559 190.286C241.629 184.469 241.652 178.627 241.629 172.81C245.556 173.096 249.506 173 253.733 172.5C249.875 170.902 245.717 170.402 241.605 170.783C241.582 166.229 241.536 161.675 241.467 157.121C245.44 157.527 249.483 157.288 253.479 156.883C249.667 155.214 245.533 154.809 241.444 155.143C241.351 150.136 241.259 145.129 241.12 140.122C245.163 140.384 249.252 139.979 253.294 139.716C249.436 138.191 245.232 138.095 241.074 138.405C240.982 134.924 240.889 131.419 240.797 127.938C244.562 128.248 248.466 128.177 250.615 127.461C247.45 126.389 244.077 125.983 240.751 126.126C240.589 120.476 240.404 114.849 240.243 109.198C243.661 109.77 247.173 109.651 250.592 109.007C247.219 107.863 243.708 107.481 240.196 107.625C240.012 101.521 239.827 95.4173 239.665 89.3375C242.368 89.7428 245.163 89.4328 247.819 88.7175C244.978 88.0023 242.252 88.0023 239.642 88.3123C239.55 84.4736 239.457 80.6111 239.365 76.7725C243.246 76.9632 247.011 76.6772 250.661 75.9381C247.011 74.7936 243.107 74.5314 239.319 75.1274C239.203 69.2622 239.111 63.3969 239.041 57.5555C245.232 58.6999 251.585 58.247 257.799 57.0548C251.562 54.9806 245.14 54.9805 239.041 55.8389C239.018 51.7618 238.995 47.6848 239.018 43.6078C242.853 43.9416 246.711 43.56 250.522 42.7971C246.803 41.6049 242.899 41.3427 239.041 41.6765C239.088 32.3065 239.295 22.9364 239.665 13.5663C243.199 11.7543 246.41 9.34618 249.136 6.36588C249.275 6.24667 249.367 6.12749 249.413 6.03212C249.691 5.81754 249.806 5.55528 249.413 5.29302C245.232 6.79509 241.536 9.56082 238.325 12.7557C236.085 12.8034 233.821 12.851 231.58 12.8749C231.372 11.4682 231.003 10.0853 230.425 8.77399C230.402 10.1568 230.402 11.5159 230.425 12.8987C227.953 12.9464 225.505 12.9941 223.033 13.0418C222.64 11.6113 222.086 10.2522 221.323 8.98856C221.462 10.3476 221.601 11.7066 221.785 13.0657C219.337 13.1133 216.865 13.161 214.417 13.2087C214.139 11.4205 213.7 9.65619 213.007 7.98722C212.938 9.75156 213.007 11.492 213.146 13.2325C211.067 13.2563 209.011 13.3041 206.932 13.3518C206.586 11.4444 206.031 9.58462 205.269 7.79644C205.153 9.65615 205.246 11.5397 205.523 13.3756C202.427 13.4232 199.332 13.4709 196.214 13.5186C195.913 12.0165 195.497 10.5622 194.804 9.17934C194.828 10.6337 194.92 12.0881 195.059 13.5186C192.102 13.5663 189.145 13.614 186.211 13.6617C186.026 12.3504 185.795 11.0629 185.518 9.7754C185.241 11.039 185.172 12.3504 185.172 13.6617C182.122 13.7094 179.073 13.7571 176.024 13.8048C175.654 12.2789 175.123 10.8006 174.476 9.37005C174.476 10.8721 174.615 12.3504 174.8 13.8048C171.496 13.8525 168.17 13.9001 164.866 13.9478C164.451 12.3742 163.942 10.8483 163.249 9.37005C163.226 10.9198 163.296 12.4457 163.457 13.9716C160.131 14.0193 156.828 14.067 153.501 14.0909C153.224 11.6828 152.762 9.2985 152.023 6.96194C151.746 9.34618 151.722 11.7304 151.884 14.1147C148.766 14.1385 145.67 14.2101 142.552 14.2339C142.228 12.3742 141.72 10.5145 140.981 8.77399C140.958 10.586 141.073 12.4219 141.304 14.2578C137.932 14.2816 134.536 14.3531 131.163 14.377C130.84 11.945 130.285 9.53698 129.546 7.17659C129.246 9.58467 129.269 11.9927 129.569 14.377C124.256 14.4246 118.943 14.4723 113.63 14.52C113.284 12.0881 112.66 9.68001 111.736 7.36729C111.528 9.75153 111.574 12.1596 111.805 14.52C106.862 14.5439 101.918 14.5916 96.9748 14.6154C96.5821 12.5411 96.0046 10.5145 95.2654 8.55941C95.0806 10.586 95.1268 12.6126 95.2654 14.6392C90.8764 14.663 86.5104 14.6869 82.1214 14.7107C81.8211 12.1119 81.2205 9.56083 80.1579 7.17659C80.2734 9.27472 80.4813 12.0881 80.8047 14.7346C76.5773 14.7584 72.3731 14.7822 68.1688 14.7822C68.1688 10.8959 67.6375 6.98579 66.8059 3.17101C65.9743 6.98579 65.8126 10.8959 66.1129 14.7822C62.2552 14.7822 58.4205 14.8061 54.5628 14.83C54.4473 10.4191 53.6388 6.00828 52.2759 1.78818C51.7908 6.46129 51.8139 10.6576 52.2066 14.83C49.4345 14.83 46.6856 14.8538 43.9136 14.8538C43.9136 10.8722 43.1282 6.86658 41.8114 3.17101C41.4187 7.105 41.5342 10.9914 41.95 14.8538C37.9537 14.8538 33.9805 14.8776 29.961 14.8776C30.1227 9.84689 29.499 4.84001 28.0668 0C27.2583 4.93538 27.2583 9.9661 28.0668 14.8776C23.516 14.8776 19.0115 14.8776 14.4607 14.8776C12.22 12.5649 9.7021 10.5145 6.97627 8.79785C8.96289 12.3504 11.4346 15.5452 14.2528 18.3825C14.4608 21.7919 14.53 25.2014 14.4607 28.587C11.5039 28.134 8.47778 28.3725 5.63645 29.3739C8.54708 29.8984 11.527 29.8507 14.4377 29.35C14.3453 32.4495 14.1835 35.5729 13.9063 38.6724C11.4808 38.6485 9.05529 39.1015 6.79146 40.1745C9.10149 40.2698 11.4346 40.4129 13.7446 40.4606C13.3981 44.1561 12.9592 47.8517 12.451 51.5473C9.2863 51.7857 6.14465 52.6202 3.32642 54.1461C6.28326 54.0507 9.2401 53.8838 12.1969 53.5739C11.5732 57.937 10.9033 62.3002 10.2334 66.6633C8.15437 66.8779 6.07536 67.3786 4.08874 68.1415C6.05226 68.4277 8.01579 68.4753 9.97931 68.2846C9.3325 72.5524 8.70878 76.7964 8.17747 81.0642C6.44495 81.3503 4.73555 81.8032 3.11853 82.5185C4.73555 82.6854 6.37567 82.6616 7.99268 82.5185C7.39208 87.6446 6.93007 92.7708 6.72216 97.8969C4.45834 98.2545 2.19452 98.7552 0 99.5182C2.19452 99.8519 4.43524 99.995 6.65287 99.8996C6.65287 100.233 6.62976 100.591 6.60666 100.925C6.53735 105.741 6.69906 110.581 6.95316 115.397C4.73554 115.54 2.54102 115.874 0.3927 116.518C2.58722 117.018 4.82795 117.257 7.06867 117.281C7.29967 121.382 7.55377 125.506 7.76167 129.607C5.52094 129.774 3.32642 130.179 1.1781 130.895C3.39572 131.276 5.61335 131.419 7.85407 131.324C8.01577 135.115 8.10818 138.906 8.03888 142.697C8.01578 144.056 7.94648 145.439 7.87718 146.798C6.05226 147.084 4.25044 147.537 2.54102 148.252C4.29664 148.467 6.05226 148.467 7.80788 148.371C7.53067 153.807 7.11487 159.243 7.04557 164.679C4.94344 164.751 2.84132 165.037 0.7854 165.633C2.84132 166.11 4.92034 166.372 7.02246 166.444C7.02246 168.971 7.13797 171.498 7.36897 174.026C7.62307 176.553 8.03888 179.033 8.47779 181.536C6.39877 181.655 4.34283 182.013 2.33311 182.609C4.45834 183.086 6.62977 183.277 8.80119 183.157C9.7021 187.711 10.7416 192.241 11.527 196.795C9.21699 196.652 6.88386 196.891 4.64314 197.582C6.90696 197.963 9.3787 197.868 11.6194 197.367C12.0814 200.038 12.4279 202.732 12.5896 205.45C12.7513 208.216 12.7051 211.005 12.5896 213.795C10.5106 213.652 8.40848 213.842 6.37566 214.367C8.36228 214.772 10.5337 214.796 12.5665 214.534C12.2893 220.113 11.7349 225.716 11.7349 231.224C9.49419 231.176 7.23037 231.319 5.01275 231.724C7.16107 232.225 9.47109 232.487 11.7349 232.487C11.8042 236.254 12.1738 239.95 13.1209 243.574C11.2729 245.005 9.56349 246.673 8.10818 248.509C9.95619 247.579 11.8042 246.387 13.5829 245.124C13.6291 245.243 13.6522 245.362 13.6753 245.481C19.1963 246.363 24.7404 246.983 30.2844 247.389C30.3537 250.107 30.654 252.777 31.2546 255.304C31.5087 252.706 31.6242 250.083 31.5549 247.484C35.5513 247.746 39.5476 247.961 43.544 248.032C43.7981 251.49 44.3987 254.899 45.392 258.046C45.623 254.685 45.4382 251.347 44.9762 248.032C50.5895 248.104 56.1798 248.009 61.7932 247.77C61.7239 250.798 61.9087 253.755 62.4862 256.52C62.9713 253.612 63.0868 250.655 62.8327 247.723C66.1822 247.579 69.5548 247.389 72.9044 247.174C73.2971 250.631 74.0363 254.041 75.1451 257.14C75.1913 253.755 74.8217 250.393 74.1749 247.079C78.4484 246.769 82.6989 246.435 86.9724 246.054C87.1803 249.01 87.573 251.943 88.2891 254.565C88.6587 251.68 88.6356 248.795 88.2891 245.934C92.4241 245.553 96.559 245.148 100.694 244.718C100.856 248.462 101.433 252.205 102.473 255.614C102.796 251.919 102.634 248.223 102.08 244.575C105.614 244.218 109.149 243.836 112.66 243.479C112.775 247.508 113.122 251.561 114.023 255.304C114.369 251.347 114.323 247.317 113.699 243.383C117.372 243.002 121.045 242.62 124.718 242.263C124.533 246.888 124.903 251.585 125.966 255.877C126.797 251.323 126.936 246.673 126.335 242.12C129.523 241.81 132.688 241.524 135.876 241.261C135.806 245.529 136.13 249.821 137.031 253.755C137.446 249.558 137.446 245.338 137.054 241.166C139.595 240.951 142.113 240.761 144.654 240.594C145.277 240.546 145.901 240.522 146.502 240.498C146.317 245.41 146.71 250.417 147.726 254.994C148.396 250.154 148.419 245.267 147.795 240.427C151.607 240.212 155.442 240.045 159.276 239.926C159.577 244.838 160.177 250.178 161.009 253.373C161.771 248.891 161.517 244.313 160.547 239.878C162.926 239.807 165.282 239.735 167.662 239.688C167.754 244.79 168.47 249.988 170.226 254.208C170.226 249.344 170.041 244.456 169.209 239.664C173.991 239.616 178.773 239.592 183.555 239.688C183.508 245.362 184.201 251.18 185.726 256.353C186.234 250.774 185.842 245.171 184.617 239.712C188.152 239.783 191.686 239.878 195.197 240.021C195.128 245.505 195.775 251.132 197.161 256.187C197.784 250.774 197.392 245.314 196.075 240.069C200.88 240.284 205.708 240.57 210.513 240.927C210.813 246.054 211.644 251.084 212.407 256.163C213.446 251.18 212.869 245.958 211.598 241.023C217.951 241.523 224.303 242.12 230.633 242.883C230.564 248.39 231.118 254.136 232.596 259C233.012 253.635 232.643 248.223 231.488 242.978C233.913 243.264 236.339 243.55 238.764 243.884C238.787 243.574 238.81 243.24 238.833 242.93C241.167 247.222 243.777 251.347 246.826 255.114C247.357 255.662 249.044 258.499 248.374 256.64C246.803 250.894 243.338 245.958 238.903 242.215C239.272 238.162 239.596 234.108 239.873 230.055C244.585 230.628 249.413 230.723 252.486 230.747Z" fill="#4E598C"/>
<path d="M81.377 62.8167C84.1508 43.6406 102.078 40.0213 115.147 38.9638C120.387 38.5398 127.256 41.6653 132.101 43.9729C135.924 45.7938 138.867 49.7473 141.016 53.1092C141.222 53.4311 141.322 54.3053 141.809 54.7973" stroke="#34394C" stroke-width="2" stroke-linecap="round"/>
<path d="M84.1387 89.728C84.1387 91.6586 84.6872 97.0194 86.1717 102.274C87.3433 106.421 88.4115 108.033 89.93 110.828C92.263 115.121 98.619 118.438 102.141 120.266C103.84 121.148 105.721 121.967 107.094 122.296C110.072 123.009 114.635 125.158 118.015 125.895C124.009 127.202 129.262 125.702 131.725 124.948C137.031 123.324 140.852 120.029 144.001 116.727C145.047 115.63 147.095 110.891 150.064 104.133C152.158 97.3908 152.422 95.2271 152.643 93.5567C152.691 93.1337 152.716 92.7188 152.742 92.2914" stroke="#34394C" stroke-width="2" stroke-linecap="round"/>
<path d="M78.837 80.0473C78.833 78.4694 78.7807 72.2978 79.5753 68.7177C80.2131 65.8439 82.531 65.1052 83.9369 64.257C85.3477 63.4059 87.7646 63.1502 89.3421 62.3901C91.0561 61.5643 95.1462 61.6904 97.6634 61.9827C100.158 62.2724 103.549 65.9233 104.738 67.4806C105.817 68.8936 106.208 75.3214 106.664 80.8823C106.862 83.2977 106.567 85.1348 105.883 86.5918C103.762 91.107 101.684 91.5797 100.121 92.2161C97.8233 93.1522 94.3035 93.3396 87.6649 90.8687C83.9671 89.4924 82.4957 86.9567 81.1911 85.0973C80.9002 84.5655 80.2014 83.438 80.0142 82.933C79.827 82.428 79.5466 82.0606 78.837 80.7687" stroke="#8D9BDD" stroke-width="2" stroke-linecap="round"/>
<path d="M106.498 76.4403C106.598 75.8901 107.683 74.8154 109.441 72.1117C110.642 70.2643 113.527 68.8007 118.269 68.5046C119.989 68.3972 123.17 69.0064 123.807 69.5292C124.892 70.4199 125.6 71.6684 126.508 73.5546C126.769 74.0836 127.457 75.0787 127.685 75.7189C127.992 76.5792 129.141 78.0302 129.451 78.6046" stroke="#8D9BDD" stroke-width="2" stroke-linecap="round"/>
<path d="M129.299 76.8834C129.306 75.3119 129.514 68.9802 130.799 63.993C131.653 60.6814 135.52 58.171 138.088 56.6971C142.411 54.2146 146.023 55.112 148.255 55.3592C150.429 55.5999 152.258 57.4511 153.58 58.4046C154.156 58.8201 154.634 59.2482 155.275 60.0309C156.007 60.9239 156.706 64.6773 157.543 70.937C159.132 82.8181 156.89 87.3794 156.401 87.9777C154.651 90.1204 150.878 90.8104 147.645 91.771C142.693 93.2419 139.961 92.45 137.532 91.4601C134.24 90.1183 133.168 88.3994 132.199 87.0534C131.29 84.6676 130.865 82.8593 130.212 80.1271C130.045 79.5095 129.906 79.1635 129.672 78.6101" stroke="#8D9BDD" stroke-width="2" stroke-linecap="round"/>
<path d="M108.165 124.192C108.165 125.634 108.332 129.908 108.446 133.192C108.576 136.675 108.79 138.472 108.886 140.233C108.927 141.065 108.953 141.774 109.012 142.584" stroke="#34394C" stroke-width="2" stroke-linecap="round"/>
<path d="M139.059 123.217C139.059 124.549 138.945 130.667 139.165 134.311C139.326 136.401 139.494 137.887 139.704 138.757C139.797 139.174 139.862 139.542 140.001 140.342" stroke="#34394C" stroke-width="2" stroke-linecap="round"/>
<path d="M108.808 142.666C108.372 142.666 107.001 143.072 103.507 144.113C98.5052 145.602 93.9744 146.803 92.2951 147.543C81.6243 152.241 75.5488 160.214 70.3959 172.892C68.9256 176.509 68.5704 179.932 68.1836 184.096C67.1207 195.538 66.0162 208.131 67.4002 219.549C67.4548 220.069 67.4943 220.605 67.6533 221.572" stroke="#34394C" stroke-width="2" stroke-linecap="round"/>
<path d="M141.271 140.906C142.223 140.915 145.11 141.27 147.342 141.625C149.027 141.894 150.858 142.426 153.465 143.861C157.726 146.207 159.674 147.094 161.781 148.41C163.832 149.692 165.385 151.417 167.036 152.796C178.605 162.459 184.781 174.547 185.495 192.364C185.573 196.92 185.665 205.484 185.357 213.869" stroke="#34394C" stroke-width="2" stroke-linecap="round"/>
<path d="M100.061 172.967C100.673 178.055 101.235 183.252 101.551 188.382C101.823 192.787 102.073 199.717 102.323 204.114C102.792 212.362 103.333 214.31 103.462 216.235C103.516 216.836 103.626 217.634 103.702 218.261C103.778 218.887 103.817 219.317 103.897 219.995" stroke="#34394C" stroke-width="2" stroke-linecap="round"/>
<path d="M151.155 168.869C151.155 168.977 151.155 175.596 151.235 186.181C151.301 195.044 151.54 205.125 153.196 213.809C153.324 214.515 153.498 215.527 153.734 216.758" stroke="#34394C" stroke-width="2" stroke-linecap="round"/>
<path d="M99.6055 146.347C99.6569 147.063 100.728 150.887 104.786 158.135C106.892 161.895 109.135 163.277 110.255 164.189C111.843 165.482 114.636 166.498 116.809 167.774C118.398 168.707 120.566 169.062 122.659 169.471C124.188 169.769 128.503 169.717 131.892 169.298C135.646 168.833 140.132 165.519 142.298 163.418C144.913 160.881 146.794 157.461 148.23 155.659C150.42 151.768 152.593 147.432 153.076 146.561C153.278 146.149 153.395 145.799 153.748 144.454" stroke="#34394C" stroke-width="2" stroke-linecap="round"/>
<path d="M147.695 154.88C145.544 151.849 143.131 147.732 140.716 144.976C140.475 144.683 139.682 143.808 139.456 143.533" stroke="#34394C" stroke-width="2" stroke-linecap="round"/>
<path d="M109.441 143.243C109.839 143.574 111.255 144.96 112.65 146.252C114.467 147.935 116.14 149.253 118.469 149.669C120.767 150.079 125.895 150.848 131.27 150.189C134.336 149.813 135.653 147.508 136.88 145.941C137.969 144.258 138.826 142.812 139.208 142.052C139.404 141.69 139.602 141.376 139.918 140.919" stroke="#34394C" stroke-width="2" stroke-linecap="round"/>
<path d="M136.466 148.87C135.685 147.505 137.043 151.205 137.91 153.512C138.525 155.147 139.786 157.642 140.766 160.132C140.968 160.619 141.169 161.035 141.399 161.419C141.629 161.804 141.883 162.145 142.259 162.623" stroke="#34394C" stroke-width="2" stroke-linecap="round"/>
<path d="M132.191 151.145C132.191 156.553 133.574 161.622 133.912 166.944C133.942 167.371 134 167.74 134.11 168.14" stroke="#34394C" stroke-width="2" stroke-linecap="round"/>
<path d="M123.903 151.702C123.903 151.821 123.89 154.939 123.855 159.774C123.8 161.959 123.748 164.005 123.708 166.794C123.687 167.956 123.664 168.603 123.641 169.27" stroke="#34394C" stroke-width="2" stroke-linecap="round"/>
<path d="M117.968 150.957C115.234 154.102 112.524 157.204 110.03 160.646C109.385 161.529 109.276 162.456 108.445 162.741" stroke="#34394C" stroke-width="2" stroke-linecap="round"/>
<path d="M103.637 153.068C106.53 151.564 109.094 149.275 112.021 147.786" stroke="#34394C" stroke-width="2" stroke-linecap="round"/>
<path d="M81.377 62.8167C84.1508 43.6406 102.078 40.0213 115.147 38.9638C120.387 38.5398 127.256 41.6653 132.101 43.9729C135.924 45.7938 138.867 49.7473 141.016 53.1092C141.222 53.4311 141.322 54.3053 141.809 54.7973" stroke="#34394C" stroke-width="2" stroke-linecap="round"/>
<path d="M84.1387 89.728C84.1387 91.6586 84.6872 97.0194 86.1717 102.274C87.3433 106.421 88.4115 108.033 89.93 110.828C92.263 115.121 98.619 118.438 102.141 120.266C103.84 121.148 105.721 121.967 107.094 122.296C110.072 123.009 114.635 125.158 118.015 125.895C124.009 127.202 129.262 125.702 131.725 124.948C137.031 123.324 140.852 120.029 144.001 116.727C145.047 115.63 147.095 110.891 150.064 104.133C152.158 97.3908 152.422 95.2271 152.643 93.5567C152.691 93.1337 152.716 92.7188 152.742 92.2914" stroke="#34394C" stroke-width="2" stroke-linecap="round"/>
<path d="M78.837 80.0473C78.833 78.4694 78.7807 72.2978 79.5753 68.7177C80.2131 65.8439 82.531 65.1052 83.9369 64.257C85.3477 63.4059 87.7646 63.1502 89.3421 62.3901C91.0561 61.5643 95.1462 61.6904 97.6634 61.9827C100.158 62.2724 103.549 65.9233 104.738 67.4806C105.817 68.8936 106.208 75.3214 106.664 80.8823C106.862 83.2977 106.567 85.1348 105.883 86.5918C103.762 91.107 101.684 91.5797 100.121 92.2161C97.8233 93.1522 94.3035 93.3396 87.6649 90.8687C83.9671 89.4924 82.4957 86.9567 81.1911 85.0973C80.9002 84.5655 80.2014 83.438 80.0142 82.933C79.827 82.428 79.5466 82.0606 78.837 80.7687" stroke="#8D9BDD" stroke-width="2" stroke-linecap="round"/>
<path d="M106.498 76.4403C106.598 75.8901 107.683 74.8154 109.441 72.1117C110.642 70.2643 113.527 68.8007 118.269 68.5046C119.989 68.3972 123.17 69.0064 123.807 69.5292C124.892 70.4199 125.6 71.6684 126.508 73.5546C126.769 74.0836 127.457 75.0787 127.685 75.7189C127.992 76.5792 129.141 78.0302 129.451 78.6046" stroke="#8D9BDD" stroke-width="2" stroke-linecap="round"/>
<path d="M129.299 76.8834C129.306 75.3119 129.514 68.9802 130.799 63.993C131.653 60.6814 135.52 58.171 138.088 56.6971C142.411 54.2146 146.023 55.112 148.255 55.3592C150.429 55.5999 152.258 57.4511 153.58 58.4046C154.156 58.8201 154.634 59.2482 155.275 60.0309C156.007 60.9239 156.706 64.6773 157.543 70.937C159.132 82.8181 156.89 87.3794 156.401 87.9777C154.651 90.1204 150.878 90.8104 147.645 91.771C142.693 93.2419 139.961 92.45 137.532 91.4601C134.24 90.1183 133.168 88.3994 132.199 87.0534C131.29 84.6676 130.865 82.8593 130.212 80.1271C130.045 79.5095 129.906 79.1635 129.672 78.6101" stroke="#8D9BDD" stroke-width="2" stroke-linecap="round"/>
<path d="M108.165 124.192C108.165 125.634 108.332 129.908 108.446 133.192C108.576 136.675 108.79 138.472 108.886 140.233C108.927 141.065 108.953 141.774 109.012 142.584" stroke="#34394C" stroke-width="2" stroke-linecap="round"/>
<path d="M139.059 123.217C139.059 124.549 138.945 130.667 139.165 134.311C139.326 136.401 139.494 137.887 139.704 138.757C139.797 139.174 139.862 139.542 140.001 140.342" stroke="#34394C" stroke-width="2" stroke-linecap="round"/>
<path d="M108.808 142.666C108.372 142.666 107.001 143.072 103.507 144.113C98.5052 145.602 93.9744 146.803 92.2951 147.543C81.6243 152.241 75.5488 160.214 70.3959 172.892C68.9256 176.509 68.5704 179.932 68.1836 184.096C67.1207 195.538 66.0162 208.131 67.4002 219.549C67.4548 220.069 67.4943 220.605 67.6533 221.572" stroke="#34394C" stroke-width="2" stroke-linecap="round"/>
<path d="M141.271 140.906C142.223 140.915 145.11 141.27 147.342 141.625C149.027 141.894 150.858 142.426 153.465 143.861C157.726 146.207 159.674 147.094 161.781 148.41C163.832 149.692 165.385 151.417 167.036 152.796C178.605 162.459 184.781 174.547 185.495 192.364C185.573 196.92 185.665 205.484 185.357 213.869" stroke="#34394C" stroke-width="2" stroke-linecap="round"/>
<path d="M100.061 172.967C100.673 178.055 101.235 183.252 101.551 188.382C101.823 192.787 102.073 199.717 102.323 204.114C102.792 212.362 103.333 214.31 103.462 216.235C103.516 216.836 103.626 217.634 103.702 218.261C103.778 218.887 103.817 219.317 103.897 219.995" stroke="#34394C" stroke-width="2" stroke-linecap="round"/>
<path d="M151.155 168.869C151.155 168.977 151.155 175.596 151.235 186.181C151.301 195.044 151.54 205.125 153.196 213.809C153.324 214.515 153.498 215.527 153.734 216.758" stroke="#34394C" stroke-width="2" stroke-linecap="round"/>
<path d="M99.6055 146.347C99.6569 147.063 100.728 150.887 104.786 158.135C106.892 161.895 109.135 163.277 110.255 164.189C111.843 165.482 114.636 166.498 116.809 167.774C118.398 168.707 120.566 169.062 122.659 169.471C124.188 169.769 128.503 169.717 131.892 169.298C135.646 168.833 140.132 165.519 142.298 163.418C144.913 160.881 146.794 157.461 148.23 155.659C150.42 151.768 152.593 147.432 153.076 146.561C153.278 146.149 153.395 145.799 153.748 144.454" stroke="#34394C" stroke-width="2" stroke-linecap="round"/>
<path d="M147.695 154.88C145.544 151.849 143.131 147.732 140.716 144.976C140.475 144.683 139.682 143.808 139.456 143.533" stroke="#34394C" stroke-width="2" stroke-linecap="round"/>
<path d="M109.441 143.243C109.839 143.574 111.255 144.96 112.65 146.252C114.467 147.935 116.14 149.253 118.469 149.669C120.767 150.079 125.895 150.848 131.27 150.189C134.336 149.813 135.653 147.508 136.88 145.941C137.969 144.258 138.826 142.812 139.208 142.052C139.404 141.69 139.602 141.376 139.918 140.919" stroke="#34394C" stroke-width="2" stroke-linecap="round"/>
<path d="M136.466 148.87C135.685 147.505 137.043 151.205 137.91 153.512C138.525 155.147 139.786 157.642 140.766 160.132C140.968 160.619 141.169 161.035 141.399 161.419C141.629 161.804 141.883 162.145 142.259 162.623" stroke="#34394C" stroke-width="2" stroke-linecap="round"/>
<path d="M132.191 151.145C132.191 156.553 133.574 161.622 133.912 166.944C133.942 167.371 134 167.74 134.11 168.14" stroke="#34394C" stroke-width="2" stroke-linecap="round"/>
<path d="M123.903 151.702C123.903 151.821 123.89 154.939 123.855 159.774C123.8 161.959 123.748 164.005 123.708 166.794C123.687 167.956 123.664 168.603 123.641 169.27" stroke="#34394C" stroke-width="2" stroke-linecap="round"/>
<path d="M117.968 150.957C115.234 154.102 112.524 157.204 110.03 160.646C109.385 161.529 109.276 162.456 108.445 162.741" stroke="#34394C" stroke-width="2" stroke-linecap="round"/>
<path d="M103.637 153.068C106.53 151.564 109.094 149.275 112.021 147.786" stroke="#34394C" stroke-width="2" stroke-linecap="round"/>
<path d="M104.732 51.0727C105.566 50.918 107.534 50.53 110.502 50.4948C111.315 50.4851 111.787 50.7399 112.913 51.0482C115.055 51.6344 116.904 51.6211 118.104 51.4559C119.97 50.9868 121.402 50.6016 122.096 50.5024C122.488 50.4688 122.958 50.4688 123.443 50.4688" stroke="#34394C" stroke-width="2" stroke-linecap="round"/>
<path d="M110.554 58.5193C110.574 58.5193 112.346 58.5018 115.34 58.3771C118.755 58.2348 121.165 57.3452 122.031 57.4784C122.18 57.5259 122.321 57.576 122.772 57.6018C123.224 57.6276 123.983 57.6276 124.765 57.6276" stroke="#34394C" stroke-width="2" stroke-linecap="round"/>
</svg>
