<svg width="212" height="179" viewBox="0 0 212 179" fill="none" xmlns="http://www.w3.org/2000/svg">
<path d="M44.768 1.95312C46.0701 1.95312 47.1847 2.17188 48.1118 2.60938C49.0493 3.04688 49.7576 3.66146 50.2368 4.45312C50.7263 5.24479 50.9711 6.16667 50.9711 7.21875C50.9711 8.40625 50.5857 9.41146 49.8149 10.2344C49.044 11.0573 47.9868 11.6198 46.643 11.9219C47.2263 12.151 47.7107 12.5208 48.0961 13.0312C48.419 13.4583 48.6951 13.8854 48.9243 14.3125C49.1534 14.7292 49.4086 15.2448 49.6899 15.8594C49.9815 16.4948 50.2055 16.9583 50.3618 17.25C50.768 18 51.2368 18.375 51.768 18.375H52.2055C52.5597 18.375 52.8097 18.4583 52.9555 18.625C53.1118 18.7812 53.1899 19.0521 53.1899 19.4375C53.1899 19.8229 53.1118 20.099 52.9555 20.2656C52.8097 20.4219 52.5597 20.5 52.2055 20.5H51.0805C50.4555 20.5 49.9243 20.3385 49.4868 20.0156C49.0597 19.6823 48.643 19.1198 48.2368 18.3281C48.0076 17.8698 47.7263 17.2656 47.393 16.5156C47.0805 15.8281 46.8253 15.2969 46.6274 14.9219C46.4399 14.5365 46.2107 14.1562 45.9399 13.7812C45.6274 13.3438 45.2524 13.0156 44.8149 12.7969C44.3774 12.5677 43.8513 12.4531 43.2368 12.4531H41.1118V18.375H43.143C43.4972 18.375 43.7472 18.4583 43.893 18.625C44.0493 18.7812 44.1274 19.0521 44.1274 19.4375C44.1274 19.8229 44.0493 20.099 43.893 20.2656C43.7472 20.4219 43.4972 20.5 43.143 20.5H36.8618C36.5076 20.5 36.2524 20.4219 36.0961 20.2656C35.9503 20.099 35.8774 19.8229 35.8774 19.4375C35.8774 19.0521 35.9503 18.7812 36.0961 18.625C36.2524 18.4583 36.5076 18.375 36.8618 18.375H38.768V4.07812H36.8618C36.5076 4.07812 36.2524 4 36.0961 3.84375C35.9503 3.67708 35.8774 3.40104 35.8774 3.01562C35.8774 2.63021 35.9503 2.35938 36.0961 2.20312C36.2524 2.03646 36.5076 1.95312 36.8618 1.95312H44.768ZM41.1118 10.3281H44.2836C47.0961 10.3281 48.5024 9.29167 48.5024 7.21875C48.5024 6.21875 48.1482 5.44792 47.4399 4.90625C46.7315 4.35417 45.7315 4.07812 44.4399 4.07812H41.1118V10.3281ZM68.4399 6.0625C68.794 6.0625 69.044 6.14583 69.1899 6.3125C69.3461 6.46875 69.4243 6.73958 69.4243 7.125V18.375H70.7055C71.0597 18.375 71.3097 18.4583 71.4555 18.625C71.6118 18.7812 71.6899 19.0521 71.6899 19.4375C71.6899 19.8229 71.6118 20.099 71.4555 20.2656C71.3097 20.4219 71.0597 20.5 70.7055 20.5H68.2211C67.867 20.5 67.6118 20.4219 67.4555 20.2656C67.3097 20.1094 67.2368 19.8385 67.2368 19.4531V17.5625C66.5493 18.625 65.742 19.4375 64.8149 20C63.8982 20.5625 62.9086 20.8438 61.8461 20.8438C60.8982 20.8438 60.0753 20.6406 59.3774 20.2344C58.6795 19.8177 58.143 19.224 57.768 18.4531C57.393 17.6823 57.2055 16.7812 57.2055 15.75V8.1875H55.9243C55.5701 8.1875 55.3149 8.10938 55.1586 7.95312C55.0128 7.78646 54.9399 7.51042 54.9399 7.125C54.9399 6.73958 55.0128 6.46875 55.1586 6.3125C55.3149 6.14583 55.5701 6.0625 55.9243 6.0625H58.5649C58.919 6.0625 59.169 6.14583 59.3149 6.3125C59.4711 6.46875 59.5493 6.73958 59.5493 7.125V15.5156C59.5493 16.4427 59.7628 17.1771 60.1899 17.7188C60.617 18.2604 61.2472 18.5312 62.0805 18.5312C62.9659 18.5312 63.7888 18.276 64.5493 17.7656C65.3201 17.2552 65.9347 16.5521 66.393 15.6562C66.8513 14.7604 67.0805 13.7604 67.0805 12.6562V8.1875H64.8618C64.5076 8.1875 64.2524 8.10938 64.0961 7.95312C63.9503 7.78646 63.8774 7.51042 63.8774 7.125C63.8774 6.73958 63.9503 6.46875 64.0961 6.3125C64.2524 6.14583 64.5076 6.0625 64.8618 6.0625H68.4399ZM87.3774 5.71875C88.1899 5.71875 88.9503 5.92708 89.6586 6.34375C90.0753 6.59375 90.2836 6.91667 90.2836 7.3125C90.2836 7.5 90.2368 7.71875 90.143 7.96875C89.9243 8.5625 89.6222 8.85938 89.2368 8.85938C89.0805 8.85938 88.9347 8.81771 88.7993 8.73438C88.2888 8.45312 87.742 8.3125 87.1586 8.3125C86.2211 8.3125 85.2784 8.64062 84.3305 9.29688C83.3826 9.94271 82.6013 10.8073 81.9868 11.8906C81.3826 12.974 81.0805 14.125 81.0805 15.3438V18.375H86.3461C86.7003 18.375 86.9503 18.4583 87.0961 18.625C87.2524 18.7812 87.3305 19.0521 87.3305 19.4375C87.3305 19.8229 87.2524 20.099 87.0961 20.2656C86.9503 20.4219 86.7003 20.5 86.3461 20.5H76.2836C75.9295 20.5 75.6743 20.4219 75.518 20.2656C75.3722 20.099 75.2993 19.8229 75.2993 19.4375C75.2993 19.0521 75.3722 18.7812 75.518 18.625C75.6743 18.4583 75.9295 18.375 76.2836 18.375H78.7368V8.1875H76.7524C76.3982 8.1875 76.143 8.10938 75.9868 7.95312C75.8409 7.78646 75.768 7.51042 75.768 7.125C75.768 6.73958 75.8409 6.46875 75.9868 6.3125C76.143 6.14583 76.3982 6.0625 76.7524 6.0625H79.9399C80.294 6.0625 80.544 6.14583 80.6899 6.3125C80.8461 6.46875 80.9243 6.73958 80.9243 7.125V10.2812C81.4243 9.36458 82.0284 8.5625 82.7368 7.875C83.4451 7.1875 84.2003 6.65625 85.0024 6.28125C85.8045 5.90625 86.5961 5.71875 87.3774 5.71875ZM101.846 5.71875C103.804 5.71875 105.273 6.15625 106.252 7.03125C107.232 7.90625 107.721 9.20312 107.721 10.9219V17.1406C107.721 17.9635 108.065 18.375 108.752 18.375H109.299C109.653 18.375 109.903 18.4583 110.049 18.625C110.206 18.7812 110.284 19.0521 110.284 19.4375C110.284 19.8229 110.206 20.099 110.049 20.2656C109.903 20.4219 109.653 20.5 109.299 20.5H108.299C107.622 20.5 107.039 20.3333 106.549 20C106.07 19.6562 105.758 19.1562 105.612 18.5C104.758 19.25 103.831 19.8281 102.831 20.2344C101.841 20.6406 100.789 20.8438 99.6743 20.8438C98.6222 20.8438 97.6899 20.6667 96.8774 20.3125C96.0753 19.9479 95.4451 19.4219 94.9868 18.7344C94.5284 18.0469 94.2993 17.2292 94.2993 16.2812C94.2993 14.6354 94.8878 13.4219 96.0649 12.6406C97.242 11.849 98.7628 11.4531 100.627 11.4531C102.284 11.4531 103.867 11.7188 105.377 12.25V10.9219C105.377 9.91146 105.091 9.17188 104.518 8.70312C103.956 8.22396 103.044 7.98438 101.784 7.98438C101.002 7.98438 100.19 8.09375 99.3461 8.3125C98.5024 8.53125 97.7003 8.83333 96.9399 9.21875C96.7628 9.3125 96.6013 9.35938 96.4555 9.35938C96.1118 9.35938 95.8253 9.10938 95.5961 8.60938C95.4815 8.35938 95.4243 8.15104 95.4243 7.98438C95.4243 7.61979 95.617 7.33854 96.0024 7.14062C96.8774 6.68229 97.8149 6.33333 98.8149 6.09375C99.8253 5.84375 100.836 5.71875 101.846 5.71875ZM100.643 13.6562C99.4451 13.6562 98.4972 13.8646 97.7993 14.2812C97.1118 14.6875 96.768 15.3385 96.768 16.2344C96.768 16.9948 97.0284 17.5885 97.5493 18.0156C98.0805 18.4323 98.8201 18.6406 99.768 18.6406C101.841 18.6406 103.711 17.7812 105.377 16.0625V14.3594C104.669 14.1302 103.909 13.9583 103.096 13.8438C102.284 13.7188 101.466 13.6562 100.643 13.6562ZM121.377 0C121.732 0 121.982 0.0833333 122.127 0.25C122.284 0.40625 122.362 0.677083 122.362 1.0625V18.375H127.377C127.732 18.375 127.982 18.4583 128.127 18.625C128.284 18.7812 128.362 19.0521 128.362 19.4375C128.362 19.8229 128.284 20.099 128.127 20.2656C127.982 20.4219 127.732 20.5 127.377 20.5H115.127C114.773 20.5 114.518 20.4219 114.362 20.2656C114.216 20.099 114.143 19.8229 114.143 19.4375C114.143 19.0521 114.216 18.7812 114.362 18.625C114.518 18.4583 114.773 18.375 115.127 18.375H120.018V2.125H115.752C115.398 2.125 115.143 2.04688 114.987 1.89062C114.841 1.72396 114.768 1.44792 114.768 1.0625C114.768 0.677083 114.841 0.40625 114.987 0.25C115.143 0.0833333 115.398 0 115.752 0H121.377Z" fill="white"/>
<path d="M103.834 50.1885C104.188 50.1885 104.438 50.2718 104.584 50.4385C104.74 50.5947 104.818 50.8656 104.818 51.251C104.818 51.6364 104.74 51.9124 104.584 52.0791C104.438 52.2354 104.188 52.3135 103.834 52.3135H103.053L103.459 66.6104H104.303C104.657 66.6104 104.907 66.6937 105.053 66.8604C105.209 67.0166 105.287 67.2874 105.287 67.6729C105.287 68.0583 105.209 68.3343 105.053 68.501C104.907 68.6572 104.657 68.7354 104.303 68.7354H99.3965C99.0423 68.7354 98.7871 68.6572 98.6309 68.501C98.485 68.3343 98.4121 68.0583 98.4121 67.6729C98.4121 67.2874 98.485 67.0166 98.6309 66.8604C98.7871 66.6937 99.0423 66.6104 99.3965 66.6104H101.131L100.787 53.8135L97.5996 62.7197C97.4642 63.0843 97.2819 63.3447 97.0527 63.501C96.834 63.6572 96.5371 63.7354 96.1621 63.7354C95.7871 63.7354 95.485 63.6572 95.2559 63.501C95.0371 63.3447 94.86 63.0843 94.7246 62.7197L91.5215 53.8135L91.1934 66.6104H92.9277C93.2819 66.6104 93.5319 66.6937 93.6777 66.8604C93.834 67.0166 93.9121 67.2874 93.9121 67.6729C93.9121 68.0583 93.834 68.3343 93.6777 68.501C93.5319 68.6572 93.2819 68.7354 92.9277 68.7354H88.0215C87.6673 68.7354 87.4121 68.6572 87.2559 68.501C87.11 68.3343 87.0371 68.0583 87.0371 67.6729C87.0371 67.2874 87.11 67.0166 87.2559 66.8604C87.4121 66.6937 87.6673 66.6104 88.0215 66.6104H88.8652L89.2559 52.3135H88.4902C88.1361 52.3135 87.8809 52.2354 87.7246 52.0791C87.5788 51.9124 87.5059 51.6364 87.5059 51.251C87.5059 50.8656 87.5788 50.5947 87.7246 50.4385C87.8809 50.2718 88.1361 50.1885 88.4902 50.1885H91.7871C92.0371 50.1885 92.235 50.2301 92.3809 50.3135C92.5267 50.3968 92.6309 50.527 92.6934 50.7041L96.1621 60.2197L99.6152 50.7041C99.7298 50.3604 100.037 50.1885 100.537 50.1885H103.834ZM115.756 50.1885C116.173 50.1885 116.506 50.2718 116.756 50.4385C117.016 50.5947 117.209 50.8499 117.334 51.2041L122.85 66.6104H123.803C124.157 66.6104 124.407 66.6937 124.553 66.8604C124.709 67.0166 124.787 67.2874 124.787 67.6729C124.787 68.0583 124.709 68.3343 124.553 68.501C124.407 68.6572 124.157 68.7354 123.803 68.7354H118.271C117.917 68.7354 117.662 68.6572 117.506 68.501C117.36 68.3343 117.287 68.0583 117.287 67.6729C117.287 67.2874 117.36 67.0166 117.506 66.8604C117.662 66.6937 117.917 66.6104 118.271 66.6104H120.381L119.1 62.8916H111.521L110.225 66.6104H112.115C112.469 66.6104 112.719 66.6937 112.865 66.8604C113.021 67.0166 113.1 67.2874 113.1 67.6729C113.1 68.0583 113.021 68.3343 112.865 68.501C112.719 68.6572 112.469 68.7354 112.115 68.7354H106.896C106.542 68.7354 106.287 68.6572 106.131 68.501C105.985 68.3343 105.912 68.0583 105.912 67.6729C105.912 67.2874 105.985 67.0166 106.131 66.8604C106.287 66.6937 106.542 66.6104 106.896 66.6104H107.771L112.943 52.3135H110.021C109.667 52.3135 109.412 52.2354 109.256 52.0791C109.11 51.9124 109.037 51.6364 109.037 51.251C109.037 50.8656 109.11 50.5947 109.256 50.4385C109.412 50.2718 109.667 50.1885 110.021 50.1885H115.756ZM115.178 52.3135L112.256 60.7666H118.381L115.475 52.3135H115.178ZM142.053 50.1885C142.407 50.1885 142.657 50.2718 142.803 50.4385C142.959 50.5947 143.037 50.8656 143.037 51.251C143.037 51.6364 142.959 51.9124 142.803 52.0791C142.657 52.2354 142.407 52.3135 142.053 52.3135H138.912V63.5322C138.912 65.3551 138.381 66.7354 137.318 67.6729C136.256 68.6104 134.704 69.0791 132.662 69.0791C131.475 69.0791 130.396 68.8708 129.428 68.4541C128.469 68.027 127.657 67.4489 126.99 66.7197C126.824 66.5218 126.74 66.2562 126.74 65.9229V61.4697C126.74 61.1051 126.829 60.8447 127.006 60.6885C127.183 60.5322 127.485 60.4541 127.912 60.4541C128.339 60.4541 128.641 60.5322 128.818 60.6885C128.995 60.8447 129.084 61.1051 129.084 61.4697V65.5947C129.959 66.376 131.157 66.7666 132.678 66.7666C134.042 66.7666 135.032 66.4645 135.646 65.8604C136.261 65.2562 136.568 64.3239 136.568 63.0635V52.3135H131.24C130.886 52.3135 130.631 52.2354 130.475 52.0791C130.329 51.9124 130.256 51.6364 130.256 51.251C130.256 50.8656 130.329 50.5947 130.475 50.4385C130.631 50.2718 130.886 50.1885 131.24 50.1885H142.053ZM153.725 49.8447C155.35 49.8447 156.782 50.2458 158.021 51.0479C159.271 51.8499 160.235 52.9801 160.912 54.4385C161.6 55.8864 161.943 57.5635 161.943 59.4697C161.943 61.376 161.6 63.0583 160.912 64.5166C160.235 65.9645 159.271 67.0895 158.021 67.8916C156.782 68.6833 155.35 69.0791 153.725 69.0791C152.1 69.0791 150.662 68.6833 149.412 67.8916C148.173 67.0895 147.209 65.9645 146.521 64.5166C145.844 63.0583 145.506 61.376 145.506 59.4697C145.506 57.5635 145.844 55.8864 146.521 54.4385C147.209 52.9801 148.173 51.8499 149.412 51.0479C150.662 50.2458 152.1 49.8447 153.725 49.8447ZM153.725 52.1572C152.579 52.1572 151.568 52.4541 150.693 53.0479C149.829 53.6416 149.157 54.4906 148.678 55.5947C148.209 56.6989 147.975 57.9906 147.975 59.4697C147.975 60.9489 148.209 62.2406 148.678 63.3447C149.157 64.4385 149.829 65.2822 150.693 65.876C151.568 66.4697 152.579 66.7666 153.725 66.7666C154.87 66.7666 155.876 66.4697 156.74 65.876C157.615 65.2822 158.287 64.4385 158.756 63.3447C159.235 62.2406 159.475 60.9489 159.475 59.4697C159.475 57.9906 159.235 56.6989 158.756 55.5947C158.287 54.4906 157.615 53.6416 156.74 53.0479C155.876 52.4541 154.87 52.1572 153.725 52.1572ZM173.459 50.1885C174.761 50.1885 175.876 50.4072 176.803 50.8447C177.74 51.2822 178.449 51.8968 178.928 52.6885C179.417 53.4801 179.662 54.402 179.662 55.4541C179.662 56.6416 179.277 57.6468 178.506 58.4697C177.735 59.2926 176.678 59.8551 175.334 60.1572C175.917 60.3864 176.402 60.7562 176.787 61.2666C177.11 61.6937 177.386 62.1208 177.615 62.5479C177.844 62.9645 178.1 63.4801 178.381 64.0947C178.673 64.7301 178.896 65.1937 179.053 65.4854C179.459 66.2354 179.928 66.6104 180.459 66.6104H180.896C181.251 66.6104 181.501 66.6937 181.646 66.8604C181.803 67.0166 181.881 67.2874 181.881 67.6729C181.881 68.0583 181.803 68.3343 181.646 68.501C181.501 68.6572 181.251 68.7354 180.896 68.7354H179.771C179.146 68.7354 178.615 68.5739 178.178 68.251C177.751 67.9176 177.334 67.3551 176.928 66.5635C176.699 66.1051 176.417 65.501 176.084 64.751C175.771 64.0635 175.516 63.5322 175.318 63.1572C175.131 62.7718 174.902 62.3916 174.631 62.0166C174.318 61.5791 173.943 61.251 173.506 61.0322C173.068 60.8031 172.542 60.6885 171.928 60.6885H169.803V66.6104H171.834C172.188 66.6104 172.438 66.6937 172.584 66.8604C172.74 67.0166 172.818 67.2874 172.818 67.6729C172.818 68.0583 172.74 68.3343 172.584 68.501C172.438 68.6572 172.188 68.7354 171.834 68.7354H165.553C165.199 68.7354 164.943 68.6572 164.787 68.501C164.641 68.3343 164.568 68.0583 164.568 67.6729C164.568 67.2874 164.641 67.0166 164.787 66.8604C164.943 66.6937 165.199 66.6104 165.553 66.6104H167.459V52.3135H165.553C165.199 52.3135 164.943 52.2354 164.787 52.0791C164.641 51.9124 164.568 51.6364 164.568 51.251C164.568 50.8656 164.641 50.5947 164.787 50.4385C164.943 50.2718 165.199 50.1885 165.553 50.1885H173.459ZM169.803 58.5635H172.975C175.787 58.5635 177.193 57.527 177.193 55.4541C177.193 54.4541 176.839 53.6833 176.131 53.1416C175.423 52.5895 174.423 52.3135 173.131 52.3135H169.803V58.5635Z" fill="white"/>
<path d="M102.804 99.5713C103.158 99.5713 103.408 99.6546 103.554 99.8213C103.71 99.9775 103.788 100.248 103.788 100.634C103.788 101.019 103.71 101.295 103.554 101.462C103.408 101.618 103.158 101.696 102.804 101.696H101.913V117.54C101.913 117.821 101.814 118.045 101.616 118.212C101.429 118.379 101.137 118.462 100.741 118.462C100.189 118.462 99.7516 118.175 99.4287 117.603L91.3193 103.118H91.2568V115.993H93.46C93.8141 115.993 94.0641 116.076 94.21 116.243C94.3662 116.399 94.4443 116.67 94.4443 117.056C94.4443 117.441 94.3662 117.717 94.21 117.884C94.0641 118.04 93.8141 118.118 93.46 118.118H87.9287C87.5745 118.118 87.3193 118.04 87.1631 117.884C87.0173 117.717 86.9443 117.441 86.9443 117.056C86.9443 116.67 87.0173 116.399 87.1631 116.243C87.3193 116.076 87.5745 115.993 87.9287 115.993H88.9756V101.696H87.7725C87.4183 101.696 87.1631 101.618 87.0068 101.462C86.861 101.295 86.7881 101.019 86.7881 100.634C86.7881 100.248 86.861 99.9775 87.0068 99.8213C87.1631 99.6546 87.4183 99.5713 87.7725 99.5713H91.2725C91.5016 99.5713 91.6839 99.6077 91.8193 99.6807C91.9652 99.7536 92.0798 99.863 92.1631 100.009L99.5693 113.259H99.6318V101.696H97.7412C97.387 101.696 97.1318 101.618 96.9756 101.462C96.8298 101.295 96.7568 101.019 96.7568 100.634C96.7568 100.248 96.8298 99.9775 96.9756 99.8213C97.1318 99.6546 97.387 99.5713 97.7412 99.5713H102.804ZM114.476 99.2275C116.101 99.2275 117.533 99.6286 118.772 100.431C120.022 101.233 120.986 102.363 121.663 103.821C122.351 105.269 122.694 106.946 122.694 108.853C122.694 110.759 122.351 112.441 121.663 113.899C120.986 115.347 120.022 116.472 118.772 117.274C117.533 118.066 116.101 118.462 114.476 118.462C112.851 118.462 111.413 118.066 110.163 117.274C108.924 116.472 107.96 115.347 107.272 113.899C106.595 112.441 106.257 110.759 106.257 108.853C106.257 106.946 106.595 105.269 107.272 103.821C107.96 102.363 108.924 101.233 110.163 100.431C111.413 99.6286 112.851 99.2275 114.476 99.2275ZM114.476 101.54C113.33 101.54 112.319 101.837 111.444 102.431C110.58 103.024 109.908 103.873 109.429 104.978C108.96 106.082 108.726 107.373 108.726 108.853C108.726 110.332 108.96 111.623 109.429 112.728C109.908 113.821 110.58 114.665 111.444 115.259C112.319 115.853 113.33 116.149 114.476 116.149C115.621 116.149 116.627 115.853 117.491 115.259C118.366 114.665 119.038 113.821 119.507 112.728C119.986 111.623 120.226 110.332 120.226 108.853C120.226 107.373 119.986 106.082 119.507 104.978C119.038 103.873 118.366 103.024 117.491 102.431C116.627 101.837 115.621 101.54 114.476 101.54ZM141.179 99.5713C141.533 99.5713 141.783 99.6546 141.929 99.8213C142.085 99.9775 142.163 100.248 142.163 100.634C142.163 101.019 142.085 101.295 141.929 101.462C141.783 101.618 141.533 101.696 141.179 101.696H140.288V117.54C140.288 117.821 140.189 118.045 139.991 118.212C139.804 118.379 139.512 118.462 139.116 118.462C138.564 118.462 138.127 118.175 137.804 117.603L129.694 103.118H129.632V115.993H131.835C132.189 115.993 132.439 116.076 132.585 116.243C132.741 116.399 132.819 116.67 132.819 117.056C132.819 117.441 132.741 117.717 132.585 117.884C132.439 118.04 132.189 118.118 131.835 118.118H126.304C125.95 118.118 125.694 118.04 125.538 117.884C125.392 117.717 125.319 117.441 125.319 117.056C125.319 116.67 125.392 116.399 125.538 116.243C125.694 116.076 125.95 115.993 126.304 115.993H127.351V101.696H126.147C125.793 101.696 125.538 101.618 125.382 101.462C125.236 101.295 125.163 101.019 125.163 100.634C125.163 100.248 125.236 99.9775 125.382 99.8213C125.538 99.6546 125.793 99.5713 126.147 99.5713H129.647C129.877 99.5713 130.059 99.6077 130.194 99.6807C130.34 99.7536 130.455 99.863 130.538 100.009L137.944 113.259H138.007V101.696H136.116C135.762 101.696 135.507 101.618 135.351 101.462C135.205 101.295 135.132 101.019 135.132 100.634C135.132 100.248 135.205 99.9775 135.351 99.8213C135.507 99.6546 135.762 99.5713 136.116 99.5713H141.179ZM159.272 111.399C159.7 111.399 160.002 111.478 160.179 111.634C160.356 111.79 160.444 112.05 160.444 112.415V117.056C160.444 117.441 160.366 117.717 160.21 117.884C160.064 118.04 159.814 118.118 159.46 118.118H145.491C145.137 118.118 144.882 118.04 144.726 117.884C144.58 117.717 144.507 117.441 144.507 117.056C144.507 116.67 144.58 116.399 144.726 116.243C144.882 116.076 145.137 115.993 145.491 115.993H147.085V101.696H145.491C145.137 101.696 144.882 101.618 144.726 101.462C144.58 101.295 144.507 101.019 144.507 100.634C144.507 100.248 144.58 99.9775 144.726 99.8213C144.882 99.6546 145.137 99.5713 145.491 99.5713H159.147C159.502 99.5713 159.752 99.6546 159.897 99.8213C160.054 99.9775 160.132 100.248 160.132 100.634V104.603C160.132 104.967 160.043 105.228 159.866 105.384C159.689 105.54 159.387 105.618 158.96 105.618C158.533 105.618 158.231 105.54 158.054 105.384C157.877 105.228 157.788 104.967 157.788 104.603V101.696H149.429V107.493H153.46V106.071C153.46 105.707 153.538 105.446 153.694 105.29C153.861 105.134 154.153 105.056 154.569 105.056C154.986 105.056 155.272 105.134 155.429 105.29C155.595 105.446 155.679 105.707 155.679 106.071V111.04C155.679 111.405 155.595 111.665 155.429 111.821C155.272 111.978 154.986 112.056 154.569 112.056C154.153 112.056 153.861 111.978 153.694 111.821C153.538 111.665 153.46 111.405 153.46 111.04V109.618H149.429V115.993H158.101V112.415C158.101 112.05 158.189 111.79 158.366 111.634C158.543 111.478 158.845 111.399 159.272 111.399Z" fill="white"/>
<rect x="35.5" y="42" width="33.9613" height="33.9055" fill="#4E598C" stroke="#34394C"/>
<rect x="35.5" y="94" width="33.9613" height="33.9055" fill="#1D1E18" stroke="#34394C"/>
</svg>
