<svg width="213" height="170" viewBox="0 0 213 170" fill="none" xmlns="http://www.w3.org/2000/svg">
<path d="M51.7368 1.95312C52.0909 1.95312 52.3409 2.03646 52.4868 2.20312C52.643 2.35938 52.7211 2.63021 52.7211 3.01562C52.7211 3.40104 52.643 3.67708 52.4868 3.84375C52.3409 4 52.0909 4.07812 51.7368 4.07812H50.768V14.3594C50.768 16.5365 50.1951 18.1615 49.0493 19.2344C47.9138 20.3073 46.3045 20.8438 44.2211 20.8438C42.1378 20.8438 40.5232 20.3073 39.3774 19.2344C38.242 18.1615 37.6743 16.5365 37.6743 14.3594V4.07812H36.7055C36.3513 4.07812 36.0961 4 35.9399 3.84375C35.794 3.67708 35.7211 3.40104 35.7211 3.01562C35.7211 2.63021 35.794 2.35938 35.9399 2.20312C36.0961 2.03646 36.3513 1.95312 36.7055 1.95312H41.768C42.1222 1.95312 42.3722 2.03646 42.518 2.20312C42.6743 2.35938 42.7524 2.63021 42.7524 3.01562C42.7524 3.40104 42.6743 3.67708 42.518 3.84375C42.3722 4 42.1222 4.07812 41.768 4.07812H40.018V14.0469C40.018 15.6406 40.3565 16.7865 41.0336 17.4844C41.7107 18.1823 42.7732 18.5312 44.2211 18.5312C45.669 18.5312 46.7315 18.1823 47.4086 17.4844C48.0857 16.7865 48.4243 15.6406 48.4243 14.0469V4.07812H46.6743C46.3201 4.07812 46.0649 4 45.9086 3.84375C45.7628 3.67708 45.6899 3.40104 45.6899 3.01562C45.6899 2.63021 45.7628 2.35938 45.9086 2.20312C46.0649 2.03646 46.3201 1.95312 46.6743 1.95312H51.7368ZM68.1899 5.71875C69.0024 5.71875 69.7628 5.92708 70.4711 6.34375C70.8878 6.59375 71.0961 6.91667 71.0961 7.3125C71.0961 7.5 71.0493 7.71875 70.9555 7.96875C70.7368 8.5625 70.4347 8.85938 70.0493 8.85938C69.893 8.85938 69.7472 8.81771 69.6118 8.73438C69.1013 8.45312 68.5545 8.3125 67.9711 8.3125C67.0336 8.3125 66.0909 8.64062 65.143 9.29688C64.1951 9.94271 63.4138 10.8073 62.7993 11.8906C62.1951 12.974 61.893 14.125 61.893 15.3438V18.375H67.1586C67.5128 18.375 67.7628 18.4583 67.9086 18.625C68.0649 18.7812 68.143 19.0521 68.143 19.4375C68.143 19.8229 68.0649 20.099 67.9086 20.2656C67.7628 20.4219 67.5128 20.5 67.1586 20.5H57.0961C56.742 20.5 56.4868 20.4219 56.3305 20.2656C56.1847 20.099 56.1118 19.8229 56.1118 19.4375C56.1118 19.0521 56.1847 18.7812 56.3305 18.625C56.4868 18.4583 56.742 18.375 57.0961 18.375H59.5493V8.1875H57.5649C57.2107 8.1875 56.9555 8.10938 56.7993 7.95312C56.6534 7.78646 56.5805 7.51042 56.5805 7.125C56.5805 6.73958 56.6534 6.46875 56.7993 6.3125C56.9555 6.14583 57.2107 6.0625 57.5649 6.0625H60.7524C61.1065 6.0625 61.3565 6.14583 61.5024 6.3125C61.6586 6.46875 61.7368 6.73958 61.7368 7.125V10.2812C62.2368 9.36458 62.8409 8.5625 63.5493 7.875C64.2576 7.1875 65.0128 6.65625 65.8149 6.28125C66.617 5.90625 67.4086 5.71875 68.1899 5.71875ZM77.518 0C77.8722 0 78.1222 0.0833333 78.268 0.25C78.4243 0.40625 78.5024 0.677083 78.5024 1.0625V8.29688C79.8461 6.57812 81.4972 5.71875 83.4555 5.71875C84.7472 5.71875 85.9034 6.02604 86.9243 6.64062C87.9451 7.24479 88.7472 8.11979 89.3305 9.26562C89.9138 10.401 90.2055 11.7396 90.2055 13.2812C90.2055 14.8229 89.9138 16.1667 89.3305 17.3125C88.7472 18.4479 87.9451 19.3229 86.9243 19.9375C85.9034 20.5417 84.7472 20.8438 83.4555 20.8438C82.4347 20.8438 81.492 20.6146 80.6274 20.1562C79.7628 19.6979 79.0024 19.0417 78.3461 18.1875V19.4375C78.3461 19.8229 78.268 20.099 78.1118 20.2656C77.9659 20.4219 77.7159 20.5 77.3618 20.5H74.8774C74.5232 20.5 74.268 20.4219 74.1118 20.2656C73.9659 20.099 73.893 19.8229 73.893 19.4375C73.893 19.0521 73.9659 18.7812 74.1118 18.625C74.268 18.4583 74.5232 18.375 74.8774 18.375H76.1586V2.125H74.5649C74.2107 2.125 73.9555 2.04688 73.7993 1.89062C73.6534 1.72396 73.5805 1.44792 73.5805 1.0625C73.5805 0.677083 73.6534 0.40625 73.7993 0.25C73.9555 0.0833333 74.2107 0 74.5649 0H77.518ZM83.2993 8.03125C82.3722 8.03125 81.544 8.23958 80.8149 8.65625C80.0961 9.07292 79.5284 9.67708 79.1118 10.4688C78.7055 11.2604 78.5024 12.1979 78.5024 13.2812C78.5024 14.3646 78.7055 15.3021 79.1118 16.0938C79.5284 16.8854 80.0961 17.4896 80.8149 17.9062C81.544 18.3229 82.3722 18.5312 83.2993 18.5312C84.2263 18.5312 85.0232 18.3125 85.6899 17.875C86.3565 17.4271 86.8618 16.8073 87.2055 16.0156C87.5597 15.224 87.7368 14.3125 87.7368 13.2812C87.7368 12.25 87.5597 11.3385 87.2055 10.5469C86.8618 9.75521 86.3565 9.14062 85.6899 8.70312C85.0232 8.25521 84.2263 8.03125 83.2993 8.03125ZM101.846 5.71875C103.804 5.71875 105.273 6.15625 106.252 7.03125C107.232 7.90625 107.721 9.20312 107.721 10.9219V17.1406C107.721 17.9635 108.065 18.375 108.752 18.375H109.299C109.653 18.375 109.903 18.4583 110.049 18.625C110.206 18.7812 110.284 19.0521 110.284 19.4375C110.284 19.8229 110.206 20.099 110.049 20.2656C109.903 20.4219 109.653 20.5 109.299 20.5H108.299C107.622 20.5 107.039 20.3333 106.549 20C106.07 19.6562 105.758 19.1562 105.612 18.5C104.758 19.25 103.831 19.8281 102.831 20.2344C101.841 20.6406 100.789 20.8438 99.6743 20.8438C98.6222 20.8438 97.6899 20.6667 96.8774 20.3125C96.0753 19.9479 95.4451 19.4219 94.9868 18.7344C94.5284 18.0469 94.2993 17.2292 94.2993 16.2812C94.2993 14.6354 94.8878 13.4219 96.0649 12.6406C97.242 11.849 98.7628 11.4531 100.627 11.4531C102.284 11.4531 103.867 11.7188 105.377 12.25V10.9219C105.377 9.91146 105.091 9.17188 104.518 8.70312C103.956 8.22396 103.044 7.98438 101.784 7.98438C101.002 7.98438 100.19 8.09375 99.3461 8.3125C98.5024 8.53125 97.7003 8.83333 96.9399 9.21875C96.7628 9.3125 96.6013 9.35938 96.4555 9.35938C96.1118 9.35938 95.8253 9.10938 95.5961 8.60938C95.4815 8.35938 95.4243 8.15104 95.4243 7.98438C95.4243 7.61979 95.617 7.33854 96.0024 7.14062C96.8774 6.68229 97.8149 6.33333 98.8149 6.09375C99.8253 5.84375 100.836 5.71875 101.846 5.71875ZM100.643 13.6562C99.4451 13.6562 98.4972 13.8646 97.7993 14.2812C97.1118 14.6875 96.768 15.3385 96.768 16.2344C96.768 16.9948 97.0284 17.5885 97.5493 18.0156C98.0805 18.4323 98.8201 18.6406 99.768 18.6406C101.841 18.6406 103.711 17.7812 105.377 16.0625V14.3594C104.669 14.1302 103.909 13.9583 103.096 13.8438C102.284 13.7188 101.466 13.6562 100.643 13.6562ZM122.737 5.71875C123.685 5.71875 124.508 5.92708 125.206 6.34375C125.903 6.75 126.44 7.33854 126.815 8.10938C127.19 8.88021 127.377 9.78125 127.377 10.8125V18.375H128.659C129.013 18.375 129.263 18.4583 129.409 18.625C129.565 18.7812 129.643 19.0521 129.643 19.4375C129.643 19.8229 129.565 20.099 129.409 20.2656C129.263 20.4219 129.013 20.5 128.659 20.5H123.596C123.242 20.5 122.987 20.4219 122.831 20.2656C122.685 20.099 122.612 19.8229 122.612 19.4375C122.612 19.0521 122.685 18.7812 122.831 18.625C122.987 18.4583 123.242 18.375 123.596 18.375H125.034V11.0469C125.034 10.1198 124.82 9.38542 124.393 8.84375C123.966 8.30208 123.336 8.03125 122.502 8.03125C121.617 8.03125 120.789 8.28646 120.018 8.79688C119.258 9.30729 118.648 10.0104 118.19 10.9062C117.732 11.8021 117.502 12.8021 117.502 13.9062V18.375H118.94C119.294 18.375 119.544 18.4583 119.69 18.625C119.846 18.7812 119.924 19.0521 119.924 19.4375C119.924 19.8229 119.846 20.099 119.69 20.2656C119.544 20.4219 119.294 20.5 118.94 20.5H113.877C113.523 20.5 113.268 20.4219 113.112 20.2656C112.966 20.099 112.893 19.8229 112.893 19.4375C112.893 19.0521 112.966 18.7812 113.112 18.625C113.268 18.4583 113.523 18.375 113.877 18.375H115.159V8.1875H113.565C113.211 8.1875 112.956 8.10938 112.799 7.95312C112.653 7.78646 112.581 7.51042 112.581 7.125C112.581 6.73958 112.653 6.46875 112.799 6.3125C112.956 6.14583 113.211 6.0625 113.565 6.0625H116.362C116.716 6.0625 116.966 6.14583 117.112 6.3125C117.268 6.46875 117.346 6.73958 117.346 7.125V9C118.034 7.9375 118.836 7.125 119.752 6.5625C120.679 6 121.674 5.71875 122.737 5.71875Z" fill="white"/>
<path d="M104.582 49.3164C104.936 49.3164 105.186 49.3997 105.332 49.5664C105.488 49.7227 105.566 49.9935 105.566 50.3789C105.566 50.7643 105.488 51.0404 105.332 51.207C105.186 51.3633 104.936 51.4414 104.582 51.4414H103.801L104.207 65.7383H105.051C105.405 65.7383 105.655 65.8216 105.801 65.9883C105.957 66.1445 106.035 66.4154 106.035 66.8008C106.035 67.1862 105.957 67.4622 105.801 67.6289C105.655 67.7852 105.405 67.8633 105.051 67.8633H100.145C99.7904 67.8633 99.5352 67.7852 99.3789 67.6289C99.2331 67.4622 99.1602 67.1862 99.1602 66.8008C99.1602 66.4154 99.2331 66.1445 99.3789 65.9883C99.5352 65.8216 99.7904 65.7383 100.145 65.7383H101.879L101.535 52.9414L98.3477 61.8477C98.2122 62.2122 98.0299 62.4727 97.8008 62.6289C97.582 62.7852 97.2852 62.8633 96.9102 62.8633C96.5352 62.8633 96.2331 62.7852 96.0039 62.6289C95.7852 62.4727 95.6081 62.2122 95.4727 61.8477L92.2695 52.9414L91.9414 65.7383H93.6758C94.0299 65.7383 94.2799 65.8216 94.4258 65.9883C94.582 66.1445 94.6602 66.4154 94.6602 66.8008C94.6602 67.1862 94.582 67.4622 94.4258 67.6289C94.2799 67.7852 94.0299 67.8633 93.6758 67.8633H88.7695C88.4154 67.8633 88.1602 67.7852 88.0039 67.6289C87.8581 67.4622 87.7852 67.1862 87.7852 66.8008C87.7852 66.4154 87.8581 66.1445 88.0039 65.9883C88.1602 65.8216 88.4154 65.7383 88.7695 65.7383H89.6133L90.0039 51.4414H89.2383C88.8841 51.4414 88.6289 51.3633 88.4727 51.207C88.3268 51.0404 88.2539 50.7643 88.2539 50.3789C88.2539 49.9935 88.3268 49.7227 88.4727 49.5664C88.6289 49.3997 88.8841 49.3164 89.2383 49.3164H92.5352C92.7852 49.3164 92.9831 49.3581 93.1289 49.4414C93.2747 49.5247 93.3789 49.6549 93.4414 49.832L96.9102 59.3477L100.363 49.832C100.478 49.4883 100.785 49.3164 101.285 49.3164H104.582ZM116.504 49.3164C116.921 49.3164 117.254 49.3997 117.504 49.5664C117.764 49.7227 117.957 49.9779 118.082 50.332L123.598 65.7383H124.551C124.905 65.7383 125.155 65.8216 125.301 65.9883C125.457 66.1445 125.535 66.4154 125.535 66.8008C125.535 67.1862 125.457 67.4622 125.301 67.6289C125.155 67.7852 124.905 67.8633 124.551 67.8633H119.02C118.665 67.8633 118.41 67.7852 118.254 67.6289C118.108 67.4622 118.035 67.1862 118.035 66.8008C118.035 66.4154 118.108 66.1445 118.254 65.9883C118.41 65.8216 118.665 65.7383 119.02 65.7383H121.129L119.848 62.0195H112.27L110.973 65.7383H112.863C113.217 65.7383 113.467 65.8216 113.613 65.9883C113.77 66.1445 113.848 66.4154 113.848 66.8008C113.848 67.1862 113.77 67.4622 113.613 67.6289C113.467 67.7852 113.217 67.8633 112.863 67.8633H107.645C107.29 67.8633 107.035 67.7852 106.879 67.6289C106.733 67.4622 106.66 67.1862 106.66 66.8008C106.66 66.4154 106.733 66.1445 106.879 65.9883C107.035 65.8216 107.29 65.7383 107.645 65.7383H108.52L113.691 51.4414H110.77C110.415 51.4414 110.16 51.3633 110.004 51.207C109.858 51.0404 109.785 50.7643 109.785 50.3789C109.785 49.9935 109.858 49.7227 110.004 49.5664C110.16 49.3997 110.415 49.3164 110.77 49.3164H116.504ZM115.926 51.4414L113.004 59.8945H119.129L116.223 51.4414H115.926ZM142.801 49.3164C143.155 49.3164 143.405 49.3997 143.551 49.5664C143.707 49.7227 143.785 49.9935 143.785 50.3789C143.785 50.7643 143.707 51.0404 143.551 51.207C143.405 51.3633 143.155 51.4414 142.801 51.4414H139.66V62.6602C139.66 64.4831 139.129 65.8633 138.066 66.8008C137.004 67.7383 135.452 68.207 133.41 68.207C132.223 68.207 131.145 67.9987 130.176 67.582C129.217 67.1549 128.405 66.5768 127.738 65.8477C127.572 65.6497 127.488 65.3841 127.488 65.0508V60.5977C127.488 60.2331 127.577 59.9727 127.754 59.8164C127.931 59.6602 128.233 59.582 128.66 59.582C129.087 59.582 129.389 59.6602 129.566 59.8164C129.743 59.9727 129.832 60.2331 129.832 60.5977V64.7227C130.707 65.5039 131.905 65.8945 133.426 65.8945C134.79 65.8945 135.78 65.5924 136.395 64.9883C137.009 64.3841 137.316 63.4518 137.316 62.1914V51.4414H131.988C131.634 51.4414 131.379 51.3633 131.223 51.207C131.077 51.0404 131.004 50.7643 131.004 50.3789C131.004 49.9935 131.077 49.7227 131.223 49.5664C131.379 49.3997 131.634 49.3164 131.988 49.3164H142.801ZM154.473 48.9727C156.098 48.9727 157.53 49.3737 158.77 50.1758C160.02 50.9779 160.983 52.1081 161.66 53.5664C162.348 55.0143 162.691 56.6914 162.691 58.5977C162.691 60.5039 162.348 62.1862 161.66 63.6445C160.983 65.0924 160.02 66.2174 158.77 67.0195C157.53 67.8112 156.098 68.207 154.473 68.207C152.848 68.207 151.41 67.8112 150.16 67.0195C148.921 66.2174 147.957 65.0924 147.27 63.6445C146.592 62.1862 146.254 60.5039 146.254 58.5977C146.254 56.6914 146.592 55.0143 147.27 53.5664C147.957 52.1081 148.921 50.9779 150.16 50.1758C151.41 49.3737 152.848 48.9727 154.473 48.9727ZM154.473 51.2852C153.327 51.2852 152.316 51.582 151.441 52.1758C150.577 52.7695 149.905 53.6185 149.426 54.7227C148.957 55.8268 148.723 57.1185 148.723 58.5977C148.723 60.0768 148.957 61.3685 149.426 62.4727C149.905 63.5664 150.577 64.4102 151.441 65.0039C152.316 65.5977 153.327 65.8945 154.473 65.8945C155.618 65.8945 156.624 65.5977 157.488 65.0039C158.363 64.4102 159.035 63.5664 159.504 62.4727C159.983 61.3685 160.223 60.0768 160.223 58.5977C160.223 57.1185 159.983 55.8268 159.504 54.7227C159.035 53.6185 158.363 52.7695 157.488 52.1758C156.624 51.582 155.618 51.2852 154.473 51.2852ZM174.207 49.3164C175.509 49.3164 176.624 49.5352 177.551 49.9727C178.488 50.4102 179.197 51.0247 179.676 51.8164C180.165 52.6081 180.41 53.5299 180.41 54.582C180.41 55.7695 180.025 56.7747 179.254 57.5977C178.483 58.4206 177.426 58.9831 176.082 59.2852C176.665 59.5143 177.15 59.8841 177.535 60.3945C177.858 60.8216 178.134 61.2487 178.363 61.6758C178.592 62.0924 178.848 62.6081 179.129 63.2227C179.421 63.8581 179.645 64.3216 179.801 64.6133C180.207 65.3633 180.676 65.7383 181.207 65.7383H181.645C181.999 65.7383 182.249 65.8216 182.395 65.9883C182.551 66.1445 182.629 66.4154 182.629 66.8008C182.629 67.1862 182.551 67.4622 182.395 67.6289C182.249 67.7852 181.999 67.8633 181.645 67.8633H180.52C179.895 67.8633 179.363 67.7018 178.926 67.3789C178.499 67.0456 178.082 66.4831 177.676 65.6914C177.447 65.2331 177.165 64.6289 176.832 63.8789C176.52 63.1914 176.264 62.6602 176.066 62.2852C175.879 61.8997 175.65 61.5195 175.379 61.1445C175.066 60.707 174.691 60.3789 174.254 60.1602C173.816 59.931 173.29 59.8164 172.676 59.8164H170.551V65.7383H172.582C172.936 65.7383 173.186 65.8216 173.332 65.9883C173.488 66.1445 173.566 66.4154 173.566 66.8008C173.566 67.1862 173.488 67.4622 173.332 67.6289C173.186 67.7852 172.936 67.8633 172.582 67.8633H166.301C165.947 67.8633 165.691 67.7852 165.535 67.6289C165.389 67.4622 165.316 67.1862 165.316 66.8008C165.316 66.4154 165.389 66.1445 165.535 65.9883C165.691 65.8216 165.947 65.7383 166.301 65.7383H168.207V51.4414H166.301C165.947 51.4414 165.691 51.3633 165.535 51.207C165.389 51.0404 165.316 50.7643 165.316 50.3789C165.316 49.9935 165.389 49.7227 165.535 49.5664C165.691 49.3997 165.947 49.3164 166.301 49.3164H174.207ZM170.551 57.6914H173.723C176.535 57.6914 177.941 56.6549 177.941 54.582C177.941 53.582 177.587 52.8112 176.879 52.2695C176.171 51.7174 175.171 51.4414 173.879 51.4414H170.551V57.6914Z" fill="white"/>
<path d="M104.426 93.8208C104.78 93.8208 105.03 93.9041 105.176 94.0708C105.332 94.2271 105.41 94.4979 105.41 94.8833C105.41 95.2687 105.332 95.5448 105.176 95.7114C105.03 95.8677 104.78 95.9458 104.426 95.9458H103.535V111.79C103.535 112.071 103.436 112.295 103.238 112.461C103.051 112.628 102.759 112.711 102.363 112.711C101.811 112.711 101.374 112.425 101.051 111.852L92.9414 97.3677H92.8789V110.243H95.082C95.4362 110.243 95.6862 110.326 95.832 110.493C95.9883 110.649 96.0664 110.92 96.0664 111.305C96.0664 111.691 95.9883 111.967 95.832 112.133C95.6862 112.29 95.4362 112.368 95.082 112.368H89.5508C89.1966 112.368 88.9414 112.29 88.7852 112.133C88.6393 111.967 88.5664 111.691 88.5664 111.305C88.5664 110.92 88.6393 110.649 88.7852 110.493C88.9414 110.326 89.1966 110.243 89.5508 110.243H90.5977V95.9458H89.3945C89.0404 95.9458 88.7852 95.8677 88.6289 95.7114C88.4831 95.5448 88.4102 95.2687 88.4102 94.8833C88.4102 94.4979 88.4831 94.2271 88.6289 94.0708C88.7852 93.9041 89.0404 93.8208 89.3945 93.8208H92.8945C93.1237 93.8208 93.306 93.8573 93.4414 93.9302C93.5872 94.0031 93.7018 94.1125 93.7852 94.2583L101.191 107.508H101.254V95.9458H99.3633C99.0091 95.9458 98.7539 95.8677 98.5977 95.7114C98.4518 95.5448 98.3789 95.2687 98.3789 94.8833C98.3789 94.4979 98.4518 94.2271 98.5977 94.0708C98.7539 93.9041 99.0091 93.8208 99.3633 93.8208H104.426ZM116.098 93.4771C117.723 93.4771 119.155 93.8781 120.395 94.6802C121.645 95.4823 122.608 96.6125 123.285 98.0708C123.973 99.5187 124.316 101.196 124.316 103.102C124.316 105.008 123.973 106.691 123.285 108.149C122.608 109.597 121.645 110.722 120.395 111.524C119.155 112.316 117.723 112.711 116.098 112.711C114.473 112.711 113.035 112.316 111.785 111.524C110.546 110.722 109.582 109.597 108.895 108.149C108.217 106.691 107.879 105.008 107.879 103.102C107.879 101.196 108.217 99.5187 108.895 98.0708C109.582 96.6125 110.546 95.4823 111.785 94.6802C113.035 93.8781 114.473 93.4771 116.098 93.4771ZM116.098 95.7896C114.952 95.7896 113.941 96.0864 113.066 96.6802C112.202 97.2739 111.53 98.1229 111.051 99.2271C110.582 100.331 110.348 101.623 110.348 103.102C110.348 104.581 110.582 105.873 111.051 106.977C111.53 108.071 112.202 108.915 113.066 109.508C113.941 110.102 114.952 110.399 116.098 110.399C117.243 110.399 118.249 110.102 119.113 109.508C119.988 108.915 120.66 108.071 121.129 106.977C121.608 105.873 121.848 104.581 121.848 103.102C121.848 101.623 121.608 100.331 121.129 99.2271C120.66 98.1229 119.988 97.2739 119.113 96.6802C118.249 96.0864 117.243 95.7896 116.098 95.7896ZM142.801 93.8208C143.155 93.8208 143.405 93.9041 143.551 94.0708C143.707 94.2271 143.785 94.4979 143.785 94.8833C143.785 95.2687 143.707 95.5448 143.551 95.7114C143.405 95.8677 143.155 95.9458 142.801 95.9458H141.91V111.79C141.91 112.071 141.811 112.295 141.613 112.461C141.426 112.628 141.134 112.711 140.738 112.711C140.186 112.711 139.749 112.425 139.426 111.852L131.316 97.3677H131.254V110.243H133.457C133.811 110.243 134.061 110.326 134.207 110.493C134.363 110.649 134.441 110.92 134.441 111.305C134.441 111.691 134.363 111.967 134.207 112.133C134.061 112.29 133.811 112.368 133.457 112.368H127.926C127.572 112.368 127.316 112.29 127.16 112.133C127.014 111.967 126.941 111.691 126.941 111.305C126.941 110.92 127.014 110.649 127.16 110.493C127.316 110.326 127.572 110.243 127.926 110.243H128.973V95.9458H127.77C127.415 95.9458 127.16 95.8677 127.004 95.7114C126.858 95.5448 126.785 95.2687 126.785 94.8833C126.785 94.4979 126.858 94.2271 127.004 94.0708C127.16 93.9041 127.415 93.8208 127.77 93.8208H131.27C131.499 93.8208 131.681 93.8573 131.816 93.9302C131.962 94.0031 132.077 94.1125 132.16 94.2583L139.566 107.508H139.629V95.9458H137.738C137.384 95.9458 137.129 95.8677 136.973 95.7114C136.827 95.5448 136.754 95.2687 136.754 94.8833C136.754 94.4979 136.827 94.2271 136.973 94.0708C137.129 93.9041 137.384 93.8208 137.738 93.8208H142.801ZM160.895 105.649C161.322 105.649 161.624 105.727 161.801 105.883C161.978 106.04 162.066 106.3 162.066 106.665V111.305C162.066 111.691 161.988 111.967 161.832 112.133C161.686 112.29 161.436 112.368 161.082 112.368H147.113C146.759 112.368 146.504 112.29 146.348 112.133C146.202 111.967 146.129 111.691 146.129 111.305C146.129 110.92 146.202 110.649 146.348 110.493C146.504 110.326 146.759 110.243 147.113 110.243H148.707V95.9458H147.113C146.759 95.9458 146.504 95.8677 146.348 95.7114C146.202 95.5448 146.129 95.2687 146.129 94.8833C146.129 94.4979 146.202 94.2271 146.348 94.0708C146.504 93.9041 146.759 93.8208 147.113 93.8208H160.77C161.124 93.8208 161.374 93.9041 161.52 94.0708C161.676 94.2271 161.754 94.4979 161.754 94.8833V98.8521C161.754 99.2166 161.665 99.4771 161.488 99.6333C161.311 99.7896 161.009 99.8677 160.582 99.8677C160.155 99.8677 159.853 99.7896 159.676 99.6333C159.499 99.4771 159.41 99.2166 159.41 98.8521V95.9458H151.051V101.743H155.082V100.321C155.082 99.9562 155.16 99.6958 155.316 99.5396C155.483 99.3833 155.775 99.3052 156.191 99.3052C156.608 99.3052 156.895 99.3833 157.051 99.5396C157.217 99.6958 157.301 99.9562 157.301 100.321V105.29C157.301 105.654 157.217 105.915 157.051 106.071C156.895 106.227 156.608 106.305 156.191 106.305C155.775 106.305 155.483 106.227 155.316 106.071C155.16 105.915 155.082 105.654 155.082 105.29V103.868H151.051V110.243H159.723V106.665C159.723 106.3 159.811 106.04 159.988 105.883C160.165 105.727 160.467 105.649 160.895 105.649Z" fill="white"/>
<rect x="35.374" y="42" width="33.9613" height="33.9055" fill="#C62D0A" stroke="#821800"/>
<rect width="34.9613" height="34.9055" transform="translate(35 88.5)" fill="#1D1E18"/>
<rect x="35.5" y="89" width="33.9613" height="33.9055" fill="#1D1E18" stroke="#821800"/>
</svg>
