<svg width="183" height="176" viewBox="0 0 183 176" fill="none" xmlns="http://www.w3.org/2000/svg">
<path d="M20.5805 1.60938C21.0076 1.60938 21.3097 1.6875 21.4868 1.84375C21.6638 2 21.7524 2.26042 21.7524 2.625V6.21875C21.7524 6.58333 21.6638 6.84375 21.4868 7C21.3097 7.15625 21.0076 7.23438 20.5805 7.23438C20.1847 7.23438 19.9138 7.09896 19.768 6.82812C19.268 5.88021 18.5649 5.16146 17.6586 4.67188C16.7524 4.17188 15.7211 3.92188 14.5649 3.92188C13.419 3.92188 12.5284 4.1875 11.893 4.71875C11.268 5.25 10.9555 5.96354 10.9555 6.85938C10.9555 7.28646 11.0649 7.64583 11.2836 7.9375C11.5024 8.22917 11.8149 8.47917 12.2211 8.6875C12.5857 8.875 13.0128 9.03125 13.5024 9.15625C13.992 9.27083 14.6482 9.40625 15.4711 9.5625C16.367 9.73958 17.0753 9.89062 17.5961 10.0156C18.1274 10.1302 18.6482 10.2917 19.1586 10.5C20.2003 10.9271 21.0128 11.526 21.5961 12.2969C22.1899 13.0573 22.4868 14.0885 22.4868 15.3906C22.4868 16.474 22.2315 17.4271 21.7211 18.25C21.2107 19.0625 20.4555 19.6979 19.4555 20.1562C18.4659 20.6146 17.2732 20.8438 15.8774 20.8438C14.8357 20.8438 13.867 20.6562 12.9711 20.2812C12.0857 19.8958 11.3149 19.3385 10.6586 18.6094V19.8281C10.6586 20.1927 10.5701 20.4531 10.393 20.6094C10.2159 20.7656 9.91384 20.8438 9.48676 20.8438C9.05967 20.8438 8.75759 20.7656 8.58051 20.6094C8.40342 20.4531 8.31488 20.1927 8.31488 19.8281V15.1406C8.31488 14.776 8.40342 14.5156 8.58051 14.3594C8.75759 14.2031 9.05967 14.125 9.48676 14.125C9.93467 14.125 10.2368 14.3438 10.393 14.7812C10.8201 15.9896 11.4972 16.9167 12.4243 17.5625C13.3618 18.2083 14.5128 18.5312 15.8774 18.5312C17.2107 18.5312 18.2315 18.2448 18.9399 17.6719C19.6586 17.099 20.018 16.3385 20.018 15.3906C20.018 14.7344 19.8513 14.2031 19.518 13.7969C19.1951 13.3802 18.7211 13.0365 18.0961 12.7656C17.7003 12.5885 17.268 12.4479 16.7993 12.3438C16.3305 12.2292 15.6899 12.0885 14.8774 11.9219C14.0232 11.7552 13.3045 11.599 12.7211 11.4531C12.1482 11.3073 11.617 11.125 11.1274 10.9062C10.294 10.5312 9.64301 10.026 9.17426 9.39062C8.71592 8.74479 8.48676 7.90104 8.48676 6.85938C8.48676 5.78646 8.74196 4.85417 9.25238 4.0625C9.77321 3.27083 10.492 2.66667 11.4086 2.25C12.3357 1.82292 13.3878 1.60938 14.5649 1.60938C15.4815 1.60938 16.367 1.78646 17.2211 2.14062C18.0753 2.49479 18.8045 2.97396 19.4086 3.57812V2.625C19.4086 2.26042 19.4972 2 19.6743 1.84375C19.8513 1.6875 20.1534 1.60938 20.5805 1.60938ZM39.6586 6.0625C40.0128 6.0625 40.2628 6.14583 40.4086 6.3125C40.5649 6.46875 40.643 6.73958 40.643 7.125V18.375H41.9243C42.2784 18.375 42.5284 18.4583 42.6743 18.625C42.8305 18.7812 42.9086 19.0521 42.9086 19.4375C42.9086 19.8229 42.8305 20.099 42.6743 20.2656C42.5284 20.4219 42.2784 20.5 41.9243 20.5H39.4399C39.0857 20.5 38.8305 20.4219 38.6743 20.2656C38.5284 20.1094 38.4555 19.8385 38.4555 19.4531V17.5625C37.768 18.625 36.9607 19.4375 36.0336 20C35.117 20.5625 34.1274 20.8438 33.0649 20.8438C32.117 20.8438 31.294 20.6406 30.5961 20.2344C29.8982 19.8177 29.3618 19.224 28.9868 18.4531C28.6118 17.6823 28.4243 16.7812 28.4243 15.75V8.1875H27.143C26.7888 8.1875 26.5336 8.10938 26.3774 7.95312C26.2315 7.78646 26.1586 7.51042 26.1586 7.125C26.1586 6.73958 26.2315 6.46875 26.3774 6.3125C26.5336 6.14583 26.7888 6.0625 27.143 6.0625H29.7836C30.1378 6.0625 30.3878 6.14583 30.5336 6.3125C30.6899 6.46875 30.768 6.73958 30.768 7.125V15.5156C30.768 16.4427 30.9815 17.1771 31.4086 17.7188C31.8357 18.2604 32.4659 18.5312 33.2993 18.5312C34.1847 18.5312 35.0076 18.276 35.768 17.7656C36.5388 17.2552 37.1534 16.5521 37.6118 15.6562C38.0701 14.7604 38.2993 13.7604 38.2993 12.6562V8.1875H36.0805C35.7263 8.1875 35.4711 8.10938 35.3149 7.95312C35.169 7.78646 35.0961 7.51042 35.0961 7.125C35.0961 6.73958 35.169 6.46875 35.3149 6.3125C35.4711 6.14583 35.7263 6.0625 36.0805 6.0625H39.6586ZM48.7368 0C49.0909 0 49.3409 0.0833333 49.4868 0.25C49.643 0.40625 49.7211 0.677083 49.7211 1.0625V8.29688C51.0649 6.57812 52.7159 5.71875 54.6743 5.71875C55.9659 5.71875 57.1222 6.02604 58.143 6.64062C59.1638 7.24479 59.9659 8.11979 60.5493 9.26562C61.1326 10.401 61.4243 11.7396 61.4243 13.2812C61.4243 14.8229 61.1326 16.1667 60.5493 17.3125C59.9659 18.4479 59.1638 19.3229 58.143 19.9375C57.1222 20.5417 55.9659 20.8438 54.6743 20.8438C53.6534 20.8438 52.7107 20.6146 51.8461 20.1562C50.9815 19.6979 50.2211 19.0417 49.5649 18.1875V19.4375C49.5649 19.8229 49.4868 20.099 49.3305 20.2656C49.1847 20.4219 48.9347 20.5 48.5805 20.5H46.0961C45.742 20.5 45.4868 20.4219 45.3305 20.2656C45.1847 20.099 45.1118 19.8229 45.1118 19.4375C45.1118 19.0521 45.1847 18.7812 45.3305 18.625C45.4868 18.4583 45.742 18.375 46.0961 18.375H47.3774V2.125H45.7836C45.4295 2.125 45.1743 2.04688 45.018 1.89062C44.8722 1.72396 44.7993 1.44792 44.7993 1.0625C44.7993 0.677083 44.8722 0.40625 45.018 0.25C45.1743 0.0833333 45.4295 0 45.7836 0H48.7368ZM54.518 8.03125C53.5909 8.03125 52.7628 8.23958 52.0336 8.65625C51.3149 9.07292 50.7472 9.67708 50.3305 10.4688C49.9243 11.2604 49.7211 12.1979 49.7211 13.2812C49.7211 14.3646 49.9243 15.3021 50.3305 16.0938C50.7472 16.8854 51.3149 17.4896 52.0336 17.9062C52.7628 18.3229 53.5909 18.5312 54.518 18.5312C55.4451 18.5312 56.242 18.3125 56.9086 17.875C57.5753 17.4271 58.0805 16.8073 58.4243 16.0156C58.7784 15.224 58.9555 14.3125 58.9555 13.2812C58.9555 12.25 58.7784 11.3385 58.4243 10.5469C58.0805 9.75521 57.5753 9.14062 56.9086 8.70312C56.242 8.25521 55.4451 8.03125 54.518 8.03125ZM78.0336 6.0625C78.3878 6.0625 78.6378 6.14583 78.7836 6.3125C78.9399 6.46875 79.018 6.73958 79.018 7.125V18.375H80.2993C80.6534 18.375 80.9034 18.4583 81.0493 18.625C81.2055 18.7812 81.2836 19.0521 81.2836 19.4375C81.2836 19.8229 81.2055 20.099 81.0493 20.2656C80.9034 20.4219 80.6534 20.5 80.2993 20.5H77.8149C77.4607 20.5 77.2055 20.4219 77.0493 20.2656C76.9034 20.1094 76.8305 19.8385 76.8305 19.4531V17.5625C76.143 18.625 75.3357 19.4375 74.4086 20C73.492 20.5625 72.5024 20.8438 71.4399 20.8438C70.492 20.8438 69.669 20.6406 68.9711 20.2344C68.2732 19.8177 67.7368 19.224 67.3618 18.4531C66.9868 17.6823 66.7993 16.7812 66.7993 15.75V8.1875H65.518C65.1638 8.1875 64.9086 8.10938 64.7524 7.95312C64.6065 7.78646 64.5336 7.51042 64.5336 7.125C64.5336 6.73958 64.6065 6.46875 64.7524 6.3125C64.9086 6.14583 65.1638 6.0625 65.518 6.0625H68.1586C68.5128 6.0625 68.7628 6.14583 68.9086 6.3125C69.0649 6.46875 69.143 6.73958 69.143 7.125V15.5156C69.143 16.4427 69.3565 17.1771 69.7836 17.7188C70.2107 18.2604 70.8409 18.5312 71.6743 18.5312C72.5597 18.5312 73.3826 18.276 74.143 17.7656C74.9138 17.2552 75.5284 16.5521 75.9868 15.6562C76.4451 14.7604 76.6743 13.7604 76.6743 12.6562V8.1875H74.4555C74.1013 8.1875 73.8461 8.10938 73.6899 7.95312C73.544 7.78646 73.4711 7.51042 73.4711 7.125C73.4711 6.73958 73.544 6.46875 73.6899 6.3125C73.8461 6.14583 74.1013 6.0625 74.4555 6.0625H78.0336ZM96.9711 5.71875C97.7836 5.71875 98.544 5.92708 99.2524 6.34375C99.669 6.59375 99.8774 6.91667 99.8774 7.3125C99.8774 7.5 99.8305 7.71875 99.7368 7.96875C99.518 8.5625 99.2159 8.85938 98.8305 8.85938C98.6743 8.85938 98.5284 8.81771 98.393 8.73438C97.8826 8.45312 97.3357 8.3125 96.7524 8.3125C95.8149 8.3125 94.8722 8.64062 93.9243 9.29688C92.9763 9.94271 92.1951 10.8073 91.5805 11.8906C90.9763 12.974 90.6743 14.125 90.6743 15.3438V18.375H95.9399C96.294 18.375 96.544 18.4583 96.6899 18.625C96.8461 18.7812 96.9243 19.0521 96.9243 19.4375C96.9243 19.8229 96.8461 20.099 96.6899 20.2656C96.544 20.4219 96.294 20.5 95.9399 20.5H85.8774C85.5232 20.5 85.268 20.4219 85.1118 20.2656C84.9659 20.099 84.893 19.8229 84.893 19.4375C84.893 19.0521 84.9659 18.7812 85.1118 18.625C85.268 18.4583 85.5232 18.375 85.8774 18.375H88.3305V8.1875H86.3461C85.992 8.1875 85.7368 8.10938 85.5805 7.95312C85.4347 7.78646 85.3618 7.51042 85.3618 7.125C85.3618 6.73958 85.4347 6.46875 85.5805 6.3125C85.7368 6.14583 85.992 6.0625 86.3461 6.0625H89.5336C89.8878 6.0625 90.1378 6.14583 90.2836 6.3125C90.4399 6.46875 90.518 6.73958 90.518 7.125V10.2812C91.018 9.36458 91.6222 8.5625 92.3305 7.875C93.0388 7.1875 93.794 6.65625 94.5961 6.28125C95.3982 5.90625 96.1899 5.71875 96.9711 5.71875ZM106.299 0C106.653 0 106.903 0.0833333 107.049 0.25C107.206 0.40625 107.284 0.677083 107.284 1.0625V8.29688C108.627 6.57812 110.278 5.71875 112.237 5.71875C113.528 5.71875 114.685 6.02604 115.706 6.64062C116.726 7.24479 117.528 8.11979 118.112 9.26562C118.695 10.401 118.987 11.7396 118.987 13.2812C118.987 14.8229 118.695 16.1667 118.112 17.3125C117.528 18.4479 116.726 19.3229 115.706 19.9375C114.685 20.5417 113.528 20.8438 112.237 20.8438C111.216 20.8438 110.273 20.6146 109.409 20.1562C108.544 19.6979 107.784 19.0417 107.127 18.1875V19.4375C107.127 19.8229 107.049 20.099 106.893 20.2656C106.747 20.4219 106.497 20.5 106.143 20.5H103.659C103.304 20.5 103.049 20.4219 102.893 20.2656C102.747 20.099 102.674 19.8229 102.674 19.4375C102.674 19.0521 102.747 18.7812 102.893 18.625C103.049 18.4583 103.304 18.375 103.659 18.375H104.94V2.125H103.346C102.992 2.125 102.737 2.04688 102.581 1.89062C102.435 1.72396 102.362 1.44792 102.362 1.0625C102.362 0.677083 102.435 0.40625 102.581 0.25C102.737 0.0833333 102.992 0 103.346 0H106.299ZM112.081 8.03125C111.153 8.03125 110.325 8.23958 109.596 8.65625C108.877 9.07292 108.31 9.67708 107.893 10.4688C107.487 11.2604 107.284 12.1979 107.284 13.2812C107.284 14.3646 107.487 15.3021 107.893 16.0938C108.31 16.8854 108.877 17.4896 109.596 17.9062C110.325 18.3229 111.153 18.5312 112.081 18.5312C113.008 18.5312 113.804 18.3125 114.471 17.875C115.138 17.4271 115.643 16.8073 115.987 16.0156C116.341 15.224 116.518 14.3125 116.518 13.2812C116.518 12.25 116.341 11.3385 115.987 10.5469C115.643 9.75521 115.138 9.14062 114.471 8.70312C113.804 8.25521 113.008 8.03125 112.081 8.03125ZM130.627 5.71875C132.586 5.71875 134.054 6.15625 135.034 7.03125C136.013 7.90625 136.502 9.20312 136.502 10.9219V17.1406C136.502 17.9635 136.846 18.375 137.534 18.375H138.081C138.435 18.375 138.685 18.4583 138.831 18.625C138.987 18.7812 139.065 19.0521 139.065 19.4375C139.065 19.8229 138.987 20.099 138.831 20.2656C138.685 20.4219 138.435 20.5 138.081 20.5H137.081C136.403 20.5 135.82 20.3333 135.331 20C134.851 19.6562 134.539 19.1562 134.393 18.5C133.539 19.25 132.612 19.8281 131.612 20.2344C130.622 20.6406 129.57 20.8438 128.456 20.8438C127.403 20.8438 126.471 20.6667 125.659 20.3125C124.857 19.9479 124.226 19.4219 123.768 18.7344C123.31 18.0469 123.081 17.2292 123.081 16.2812C123.081 14.6354 123.669 13.4219 124.846 12.6406C126.023 11.849 127.544 11.4531 129.409 11.4531C131.065 11.4531 132.648 11.7188 134.159 12.25V10.9219C134.159 9.91146 133.872 9.17188 133.299 8.70312C132.737 8.22396 131.825 7.98438 130.565 7.98438C129.784 7.98438 128.971 8.09375 128.127 8.3125C127.284 8.53125 126.482 8.83333 125.721 9.21875C125.544 9.3125 125.383 9.35938 125.237 9.35938C124.893 9.35938 124.607 9.10938 124.377 8.60938C124.263 8.35938 124.206 8.15104 124.206 7.98438C124.206 7.61979 124.398 7.33854 124.784 7.14062C125.659 6.68229 126.596 6.33333 127.596 6.09375C128.607 5.84375 129.617 5.71875 130.627 5.71875ZM129.424 13.6562C128.226 13.6562 127.278 13.8646 126.581 14.2812C125.893 14.6875 125.549 15.3385 125.549 16.2344C125.549 16.9948 125.81 17.5885 126.331 18.0156C126.862 18.4323 127.601 18.6406 128.549 18.6406C130.622 18.6406 132.492 17.7812 134.159 16.0625V14.3594C133.45 14.1302 132.69 13.9583 131.877 13.8438C131.065 13.7188 130.247 13.6562 129.424 13.6562ZM151.518 5.71875C152.466 5.71875 153.289 5.92708 153.987 6.34375C154.685 6.75 155.221 7.33854 155.596 8.10938C155.971 8.88021 156.159 9.78125 156.159 10.8125V18.375H157.44C157.794 18.375 158.044 18.4583 158.19 18.625C158.346 18.7812 158.424 19.0521 158.424 19.4375C158.424 19.8229 158.346 20.099 158.19 20.2656C158.044 20.4219 157.794 20.5 157.44 20.5H152.377C152.023 20.5 151.768 20.4219 151.612 20.2656C151.466 20.099 151.393 19.8229 151.393 19.4375C151.393 19.0521 151.466 18.7812 151.612 18.625C151.768 18.4583 152.023 18.375 152.377 18.375H153.815V11.0469C153.815 10.1198 153.601 9.38542 153.174 8.84375C152.747 8.30208 152.117 8.03125 151.284 8.03125C150.398 8.03125 149.57 8.28646 148.799 8.79688C148.039 9.30729 147.429 10.0104 146.971 10.9062C146.513 11.8021 146.284 12.8021 146.284 13.9062V18.375H147.721C148.075 18.375 148.325 18.4583 148.471 18.625C148.627 18.7812 148.706 19.0521 148.706 19.4375C148.706 19.8229 148.627 20.099 148.471 20.2656C148.325 20.4219 148.075 20.5 147.721 20.5H142.659C142.304 20.5 142.049 20.4219 141.893 20.2656C141.747 20.099 141.674 19.8229 141.674 19.4375C141.674 19.0521 141.747 18.7812 141.893 18.625C142.049 18.4583 142.304 18.375 142.659 18.375H143.94V8.1875H142.346C141.992 8.1875 141.737 8.10938 141.581 7.95312C141.435 7.78646 141.362 7.51042 141.362 7.125C141.362 6.73958 141.435 6.46875 141.581 6.3125C141.737 6.14583 141.992 6.0625 142.346 6.0625H145.143C145.497 6.0625 145.747 6.14583 145.893 6.3125C146.049 6.46875 146.127 6.73958 146.127 7.125V9C146.815 7.9375 147.617 7.125 148.534 6.5625C149.461 6 150.456 5.71875 151.518 5.71875Z" fill="white"/>
<path d="M74.834 47.5713C75.1882 47.5713 75.4382 47.6546 75.584 47.8213C75.7402 47.9775 75.8184 48.2484 75.8184 48.6338C75.8184 49.0192 75.7402 49.2952 75.584 49.4619C75.4382 49.6182 75.1882 49.6963 74.834 49.6963H74.0527L74.459 63.9932H75.3027C75.6569 63.9932 75.9069 64.0765 76.0527 64.2432C76.209 64.3994 76.2871 64.6702 76.2871 65.0557C76.2871 65.4411 76.209 65.7171 76.0527 65.8838C75.9069 66.04 75.6569 66.1182 75.3027 66.1182H70.3965C70.0423 66.1182 69.7871 66.04 69.6309 65.8838C69.485 65.7171 69.4121 65.4411 69.4121 65.0557C69.4121 64.6702 69.485 64.3994 69.6309 64.2432C69.7871 64.0765 70.0423 63.9932 70.3965 63.9932H72.1309L71.7871 51.1963L68.5996 60.1025C68.4642 60.4671 68.2819 60.7275 68.0527 60.8838C67.834 61.04 67.5371 61.1182 67.1621 61.1182C66.7871 61.1182 66.485 61.04 66.2559 60.8838C66.0371 60.7275 65.86 60.4671 65.7246 60.1025L62.5215 51.1963L62.1934 63.9932H63.9277C64.2819 63.9932 64.5319 64.0765 64.6777 64.2432C64.834 64.3994 64.9121 64.6702 64.9121 65.0557C64.9121 65.4411 64.834 65.7171 64.6777 65.8838C64.5319 66.04 64.2819 66.1182 63.9277 66.1182H59.0215C58.6673 66.1182 58.4121 66.04 58.2559 65.8838C58.11 65.7171 58.0371 65.4411 58.0371 65.0557C58.0371 64.6702 58.11 64.3994 58.2559 64.2432C58.4121 64.0765 58.6673 63.9932 59.0215 63.9932H59.8652L60.2559 49.6963H59.4902C59.1361 49.6963 58.8809 49.6182 58.7246 49.4619C58.5788 49.2952 58.5059 49.0192 58.5059 48.6338C58.5059 48.2484 58.5788 47.9775 58.7246 47.8213C58.8809 47.6546 59.1361 47.5713 59.4902 47.5713H62.7871C63.0371 47.5713 63.235 47.613 63.3809 47.6963C63.5267 47.7796 63.6309 47.9098 63.6934 48.0869L67.1621 57.6025L70.6152 48.0869C70.7298 47.7432 71.0371 47.5713 71.5371 47.5713H74.834ZM86.7559 47.5713C87.1725 47.5713 87.5059 47.6546 87.7559 47.8213C88.0163 47.9775 88.209 48.2327 88.334 48.5869L93.8496 63.9932H94.8027C95.1569 63.9932 95.4069 64.0765 95.5527 64.2432C95.709 64.3994 95.7871 64.6702 95.7871 65.0557C95.7871 65.4411 95.709 65.7171 95.5527 65.8838C95.4069 66.04 95.1569 66.1182 94.8027 66.1182H89.2715C88.9173 66.1182 88.6621 66.04 88.5059 65.8838C88.36 65.7171 88.2871 65.4411 88.2871 65.0557C88.2871 64.6702 88.36 64.3994 88.5059 64.2432C88.6621 64.0765 88.9173 63.9932 89.2715 63.9932H91.3809L90.0996 60.2744H82.5215L81.2246 63.9932H83.1152C83.4694 63.9932 83.7194 64.0765 83.8652 64.2432C84.0215 64.3994 84.0996 64.6702 84.0996 65.0557C84.0996 65.4411 84.0215 65.7171 83.8652 65.8838C83.7194 66.04 83.4694 66.1182 83.1152 66.1182H77.8965C77.5423 66.1182 77.2871 66.04 77.1309 65.8838C76.985 65.7171 76.9121 65.4411 76.9121 65.0557C76.9121 64.6702 76.985 64.3994 77.1309 64.2432C77.2871 64.0765 77.5423 63.9932 77.8965 63.9932H78.7715L83.9434 49.6963H81.0215C80.6673 49.6963 80.4121 49.6182 80.2559 49.4619C80.11 49.2952 80.0371 49.0192 80.0371 48.6338C80.0371 48.2484 80.11 47.9775 80.2559 47.8213C80.4121 47.6546 80.6673 47.5713 81.0215 47.5713H86.7559ZM86.1777 49.6963L83.2559 58.1494H89.3809L86.4746 49.6963H86.1777ZM113.053 47.5713C113.407 47.5713 113.657 47.6546 113.803 47.8213C113.959 47.9775 114.037 48.2484 114.037 48.6338C114.037 49.0192 113.959 49.2952 113.803 49.4619C113.657 49.6182 113.407 49.6963 113.053 49.6963H109.912V60.915C109.912 62.738 109.381 64.1182 108.318 65.0557C107.256 65.9932 105.704 66.4619 103.662 66.4619C102.475 66.4619 101.396 66.2536 100.428 65.8369C99.4694 65.4098 98.6569 64.8317 97.9902 64.1025C97.8236 63.9046 97.7402 63.639 97.7402 63.3057V58.8525C97.7402 58.488 97.8288 58.2275 98.0059 58.0713C98.1829 57.915 98.485 57.8369 98.9121 57.8369C99.3392 57.8369 99.6413 57.915 99.8184 58.0713C99.9954 58.2275 100.084 58.488 100.084 58.8525V62.9775C100.959 63.7588 102.157 64.1494 103.678 64.1494C105.042 64.1494 106.032 63.8473 106.646 63.2432C107.261 62.639 107.568 61.7067 107.568 60.4463V49.6963H102.24C101.886 49.6963 101.631 49.6182 101.475 49.4619C101.329 49.2952 101.256 49.0192 101.256 48.6338C101.256 48.2484 101.329 47.9775 101.475 47.8213C101.631 47.6546 101.886 47.5713 102.24 47.5713H113.053ZM124.725 47.2275C126.35 47.2275 127.782 47.6286 129.021 48.4307C130.271 49.2327 131.235 50.363 131.912 51.8213C132.6 53.2692 132.943 54.9463 132.943 56.8525C132.943 58.7588 132.6 60.4411 131.912 61.8994C131.235 63.3473 130.271 64.4723 129.021 65.2744C127.782 66.0661 126.35 66.4619 124.725 66.4619C123.1 66.4619 121.662 66.0661 120.412 65.2744C119.173 64.4723 118.209 63.3473 117.521 61.8994C116.844 60.4411 116.506 58.7588 116.506 56.8525C116.506 54.9463 116.844 53.2692 117.521 51.8213C118.209 50.363 119.173 49.2327 120.412 48.4307C121.662 47.6286 123.1 47.2275 124.725 47.2275ZM124.725 49.54C123.579 49.54 122.568 49.8369 121.693 50.4307C120.829 51.0244 120.157 51.8734 119.678 52.9775C119.209 54.0817 118.975 55.3734 118.975 56.8525C118.975 58.3317 119.209 59.6234 119.678 60.7275C120.157 61.8213 120.829 62.665 121.693 63.2588C122.568 63.8525 123.579 64.1494 124.725 64.1494C125.87 64.1494 126.876 63.8525 127.74 63.2588C128.615 62.665 129.287 61.8213 129.756 60.7275C130.235 59.6234 130.475 58.3317 130.475 56.8525C130.475 55.3734 130.235 54.0817 129.756 52.9775C129.287 51.8734 128.615 51.0244 127.74 50.4307C126.876 49.8369 125.87 49.54 124.725 49.54ZM144.459 47.5713C145.761 47.5713 146.876 47.79 147.803 48.2275C148.74 48.665 149.449 49.2796 149.928 50.0713C150.417 50.863 150.662 51.7848 150.662 52.8369C150.662 54.0244 150.277 55.0296 149.506 55.8525C148.735 56.6755 147.678 57.238 146.334 57.54C146.917 57.7692 147.402 58.139 147.787 58.6494C148.11 59.0765 148.386 59.5036 148.615 59.9307C148.844 60.3473 149.1 60.863 149.381 61.4775C149.673 62.113 149.896 62.5765 150.053 62.8682C150.459 63.6182 150.928 63.9932 151.459 63.9932H151.896C152.251 63.9932 152.501 64.0765 152.646 64.2432C152.803 64.3994 152.881 64.6702 152.881 65.0557C152.881 65.4411 152.803 65.7171 152.646 65.8838C152.501 66.04 152.251 66.1182 151.896 66.1182H150.771C150.146 66.1182 149.615 65.9567 149.178 65.6338C148.751 65.3005 148.334 64.738 147.928 63.9463C147.699 63.488 147.417 62.8838 147.084 62.1338C146.771 61.4463 146.516 60.915 146.318 60.54C146.131 60.1546 145.902 59.7744 145.631 59.3994C145.318 58.9619 144.943 58.6338 144.506 58.415C144.068 58.1859 143.542 58.0713 142.928 58.0713H140.803V63.9932H142.834C143.188 63.9932 143.438 64.0765 143.584 64.2432C143.74 64.3994 143.818 64.6702 143.818 65.0557C143.818 65.4411 143.74 65.7171 143.584 65.8838C143.438 66.04 143.188 66.1182 142.834 66.1182H136.553C136.199 66.1182 135.943 66.04 135.787 65.8838C135.641 65.7171 135.568 65.4411 135.568 65.0557C135.568 64.6702 135.641 64.3994 135.787 64.2432C135.943 64.0765 136.199 63.9932 136.553 63.9932H138.459V49.6963H136.553C136.199 49.6963 135.943 49.6182 135.787 49.4619C135.641 49.2952 135.568 49.0192 135.568 48.6338C135.568 48.2484 135.641 47.9775 135.787 47.8213C135.943 47.6546 136.199 47.5713 136.553 47.5713H144.459ZM140.803 55.9463H143.975C146.787 55.9463 148.193 54.9098 148.193 52.8369C148.193 51.8369 147.839 51.0661 147.131 50.5244C146.423 49.9723 145.423 49.6963 144.131 49.6963H140.803V55.9463Z" fill="white"/>
<path d="M73.8037 97.5713C74.1579 97.5713 74.4079 97.6546 74.5537 97.8213C74.71 97.9775 74.7881 98.2484 74.7881 98.6338C74.7881 99.0192 74.71 99.2952 74.5537 99.4619C74.4079 99.6182 74.1579 99.6963 73.8037 99.6963H72.9131V115.54C72.9131 115.821 72.8141 116.045 72.6162 116.212C72.4287 116.379 72.137 116.462 71.7412 116.462C71.1891 116.462 70.7516 116.175 70.4287 115.603L62.3193 101.118H62.2568V113.993H64.46C64.8141 113.993 65.0641 114.076 65.21 114.243C65.3662 114.399 65.4443 114.67 65.4443 115.056C65.4443 115.441 65.3662 115.717 65.21 115.884C65.0641 116.04 64.8141 116.118 64.46 116.118H58.9287C58.5745 116.118 58.3193 116.04 58.1631 115.884C58.0173 115.717 57.9443 115.441 57.9443 115.056C57.9443 114.67 58.0173 114.399 58.1631 114.243C58.3193 114.076 58.5745 113.993 58.9287 113.993H59.9756V99.6963H58.7725C58.4183 99.6963 58.1631 99.6182 58.0068 99.4619C57.861 99.2952 57.7881 99.0192 57.7881 98.6338C57.7881 98.2484 57.861 97.9775 58.0068 97.8213C58.1631 97.6546 58.4183 97.5713 58.7725 97.5713H62.2725C62.5016 97.5713 62.6839 97.6077 62.8193 97.6807C62.9652 97.7536 63.0798 97.863 63.1631 98.0088L70.5693 111.259H70.6318V99.6963H68.7412C68.387 99.6963 68.1318 99.6182 67.9756 99.4619C67.8298 99.2952 67.7568 99.0192 67.7568 98.6338C67.7568 98.2484 67.8298 97.9775 67.9756 97.8213C68.1318 97.6546 68.387 97.5713 68.7412 97.5713H73.8037ZM85.4756 97.2275C87.1006 97.2275 88.5329 97.6286 89.7725 98.4307C91.0225 99.2327 91.986 100.363 92.6631 101.821C93.3506 103.269 93.6943 104.946 93.6943 106.853C93.6943 108.759 93.3506 110.441 92.6631 111.899C91.986 113.347 91.0225 114.472 89.7725 115.274C88.5329 116.066 87.1006 116.462 85.4756 116.462C83.8506 116.462 82.4131 116.066 81.1631 115.274C79.9235 114.472 78.96 113.347 78.2725 111.899C77.5954 110.441 77.2568 108.759 77.2568 106.853C77.2568 104.946 77.5954 103.269 78.2725 101.821C78.96 100.363 79.9235 99.2327 81.1631 98.4307C82.4131 97.6286 83.8506 97.2275 85.4756 97.2275ZM85.4756 99.54C84.3298 99.54 83.3193 99.8369 82.4443 100.431C81.5798 101.024 80.9079 101.873 80.4287 102.978C79.96 104.082 79.7256 105.373 79.7256 106.853C79.7256 108.332 79.96 109.623 80.4287 110.728C80.9079 111.821 81.5798 112.665 82.4443 113.259C83.3193 113.853 84.3298 114.149 85.4756 114.149C86.6214 114.149 87.6266 113.853 88.4912 113.259C89.3662 112.665 90.0381 111.821 90.5068 110.728C90.986 109.623 91.2256 108.332 91.2256 106.853C91.2256 105.373 90.986 104.082 90.5068 102.978C90.0381 101.873 89.3662 101.024 88.4912 100.431C87.6266 99.8369 86.6214 99.54 85.4756 99.54ZM112.179 97.5713C112.533 97.5713 112.783 97.6546 112.929 97.8213C113.085 97.9775 113.163 98.2484 113.163 98.6338C113.163 99.0192 113.085 99.2952 112.929 99.4619C112.783 99.6182 112.533 99.6963 112.179 99.6963H111.288V115.54C111.288 115.821 111.189 116.045 110.991 116.212C110.804 116.379 110.512 116.462 110.116 116.462C109.564 116.462 109.127 116.175 108.804 115.603L100.694 101.118H100.632V113.993H102.835C103.189 113.993 103.439 114.076 103.585 114.243C103.741 114.399 103.819 114.67 103.819 115.056C103.819 115.441 103.741 115.717 103.585 115.884C103.439 116.04 103.189 116.118 102.835 116.118H97.3037C96.9495 116.118 96.6943 116.04 96.5381 115.884C96.3923 115.717 96.3193 115.441 96.3193 115.056C96.3193 114.67 96.3923 114.399 96.5381 114.243C96.6943 114.076 96.9495 113.993 97.3037 113.993H98.3506V99.6963H97.1475C96.7933 99.6963 96.5381 99.6182 96.3818 99.4619C96.236 99.2952 96.1631 99.0192 96.1631 98.6338C96.1631 98.2484 96.236 97.9775 96.3818 97.8213C96.5381 97.6546 96.7933 97.5713 97.1475 97.5713H100.647C100.877 97.5713 101.059 97.6077 101.194 97.6807C101.34 97.7536 101.455 97.863 101.538 98.0088L108.944 111.259H109.007V99.6963H107.116C106.762 99.6963 106.507 99.6182 106.351 99.4619C106.205 99.2952 106.132 99.0192 106.132 98.6338C106.132 98.2484 106.205 97.9775 106.351 97.8213C106.507 97.6546 106.762 97.5713 107.116 97.5713H112.179ZM130.272 109.399C130.7 109.399 131.002 109.478 131.179 109.634C131.356 109.79 131.444 110.05 131.444 110.415V115.056C131.444 115.441 131.366 115.717 131.21 115.884C131.064 116.04 130.814 116.118 130.46 116.118H116.491C116.137 116.118 115.882 116.04 115.726 115.884C115.58 115.717 115.507 115.441 115.507 115.056C115.507 114.67 115.58 114.399 115.726 114.243C115.882 114.076 116.137 113.993 116.491 113.993H118.085V99.6963H116.491C116.137 99.6963 115.882 99.6182 115.726 99.4619C115.58 99.2952 115.507 99.0192 115.507 98.6338C115.507 98.2484 115.58 97.9775 115.726 97.8213C115.882 97.6546 116.137 97.5713 116.491 97.5713H130.147C130.502 97.5713 130.752 97.6546 130.897 97.8213C131.054 97.9775 131.132 98.2484 131.132 98.6338V102.603C131.132 102.967 131.043 103.228 130.866 103.384C130.689 103.54 130.387 103.618 129.96 103.618C129.533 103.618 129.231 103.54 129.054 103.384C128.877 103.228 128.788 102.967 128.788 102.603V99.6963H120.429V105.493H124.46V104.071C124.46 103.707 124.538 103.446 124.694 103.29C124.861 103.134 125.153 103.056 125.569 103.056C125.986 103.056 126.272 103.134 126.429 103.29C126.595 103.446 126.679 103.707 126.679 104.071V109.04C126.679 109.405 126.595 109.665 126.429 109.821C126.272 109.978 125.986 110.056 125.569 110.056C125.153 110.056 124.861 109.978 124.694 109.821C124.538 109.665 124.46 109.405 124.46 109.04V107.618H120.429V113.993H129.101V110.415C129.101 110.05 129.189 109.79 129.366 109.634C129.543 109.478 129.845 109.399 130.272 109.399Z" fill="white"/>
<rect x="6.5" y="42" width="33.9613" height="33.9055" fill="#BAB9B9" stroke="#FEF9EF"/>
<rect width="34.9613" height="34.9055" transform="translate(6 91.5)" fill="#1D1E18"/>
<rect x="6.5" y="92" width="33.9613" height="33.9055" fill="#1D1E18" stroke="#BAB9B9"/>
</svg>
