<svg width="190" height="161" viewBox="0 0 190 161" fill="none" xmlns="http://www.w3.org/2000/svg">
<path d="M25.0336 1.60938C26.6586 1.60938 28.0909 2.01042 29.3305 2.8125C30.5805 3.61458 31.544 4.74479 32.2211 6.20312C32.9086 7.65104 33.2524 9.32812 33.2524 11.2344C33.2524 13.1406 32.9086 14.8229 32.2211 16.2812C31.544 17.7292 30.5805 18.8542 29.3305 19.6562C28.0909 20.4479 26.6586 20.8438 25.0336 20.8438C23.4086 20.8438 21.9711 20.4479 20.7211 19.6562C19.4815 18.8542 18.518 17.7292 17.8305 16.2812C17.1534 14.8229 16.8149 13.1406 16.8149 11.2344C16.8149 9.32812 17.1534 7.65104 17.8305 6.20312C18.518 4.74479 19.4815 3.61458 20.7211 2.8125C21.9711 2.01042 23.4086 1.60938 25.0336 1.60938ZM25.0336 3.92188C23.8878 3.92188 22.8774 4.21875 22.0024 4.8125C21.1378 5.40625 20.4659 6.25521 19.9868 7.35938C19.518 8.46354 19.2836 9.75521 19.2836 11.2344C19.2836 12.7135 19.518 14.0052 19.9868 15.1094C20.4659 16.2031 21.1378 17.0469 22.0024 17.6406C22.8774 18.2344 23.8878 18.5312 25.0336 18.5312C26.1795 18.5312 27.1847 18.2344 28.0493 17.6406C28.9243 17.0469 29.5961 16.2031 30.0649 15.1094C30.544 14.0052 30.7836 12.7135 30.7836 11.2344C30.7836 9.75521 30.544 8.46354 30.0649 7.35938C29.5961 6.25521 28.9243 5.40625 28.0493 4.8125C27.1847 4.21875 26.1795 3.92188 25.0336 3.92188ZM52.0493 6.0625C52.4034 6.0625 52.6534 6.14583 52.7993 6.3125C52.9555 6.46875 53.0336 6.73958 53.0336 7.125C53.0336 7.51042 52.9555 7.78646 52.7993 7.95312C52.6534 8.10938 52.4034 8.1875 52.0493 8.1875H51.0649L46.018 19.8281C45.8722 20.1823 45.6534 20.4375 45.3618 20.5938C45.0805 20.7604 44.6847 20.8438 44.1743 20.8438C43.6743 20.8438 43.2836 20.7604 43.0024 20.5938C42.7315 20.4375 42.518 20.1823 42.3618 19.8281L37.3618 8.1875H36.393C36.0388 8.1875 35.7836 8.10938 35.6274 7.95312C35.4815 7.78646 35.4086 7.51042 35.4086 7.125C35.4086 6.73958 35.4815 6.46875 35.6274 6.3125C35.7836 6.14583 36.0388 6.0625 36.393 6.0625H41.9243C42.2784 6.0625 42.5284 6.14583 42.6743 6.3125C42.8305 6.46875 42.9086 6.73958 42.9086 7.125C42.9086 7.51042 42.8305 7.78646 42.6743 7.95312C42.5284 8.10938 42.2784 8.1875 41.9243 8.1875H39.9243L44.1899 18.375L48.5024 8.1875H47.143C46.7888 8.1875 46.5336 8.10938 46.3774 7.95312C46.2315 7.78646 46.1586 7.51042 46.1586 7.125C46.1586 6.73958 46.2315 6.46875 46.3774 6.3125C46.5336 6.14583 46.7888 6.0625 47.143 6.0625H52.0493ZM63.5493 5.71875C65.0597 5.71875 66.3461 6.02604 67.4086 6.64062C68.4815 7.24479 69.3045 8.08854 69.8774 9.17188C70.4503 10.2448 70.7784 11.4844 70.8618 12.8906C70.8618 13.2448 70.7836 13.4948 70.6274 13.6406C70.4815 13.7865 70.2315 13.8594 69.8774 13.8594H58.5649C58.6378 15.4115 59.0961 16.5885 59.9399 17.3906C60.794 18.1823 61.9972 18.5781 63.5493 18.5781C64.5076 18.5781 65.4555 18.4583 66.393 18.2188C67.3305 17.9688 68.1534 17.6406 68.8618 17.2344C69.0388 17.1406 69.2003 17.0938 69.3461 17.0938C69.7107 17.0938 70.0076 17.3698 70.2368 17.9219C70.3305 18.1406 70.3774 18.3385 70.3774 18.5156C70.3774 18.9323 70.1482 19.2552 69.6899 19.4844C68.8878 19.8906 67.9399 20.2188 66.8461 20.4688C65.7524 20.7188 64.6534 20.8438 63.5493 20.8438C61.9763 20.8438 60.6326 20.5417 59.518 19.9375C58.4034 19.3333 57.5545 18.4635 56.9711 17.3281C56.3878 16.1927 56.0961 14.8438 56.0961 13.2812C56.0961 11.7917 56.4138 10.474 57.0493 9.32812C57.6847 8.18229 58.5649 7.29688 59.6899 6.67188C60.8149 6.03646 62.1013 5.71875 63.5493 5.71875ZM63.5493 7.98438C62.268 7.98438 61.2055 8.3125 60.3618 8.96875C59.5284 9.61458 58.9815 10.5156 58.7211 11.6719H68.268C68.0493 10.474 67.544 9.5625 66.7524 8.9375C65.9711 8.30208 64.9034 7.98438 63.5493 7.98438ZM87.3774 5.71875C88.1899 5.71875 88.9503 5.92708 89.6586 6.34375C90.0753 6.59375 90.2836 6.91667 90.2836 7.3125C90.2836 7.5 90.2368 7.71875 90.143 7.96875C89.9243 8.5625 89.6222 8.85938 89.2368 8.85938C89.0805 8.85938 88.9347 8.81771 88.7993 8.73438C88.2888 8.45312 87.742 8.3125 87.1586 8.3125C86.2211 8.3125 85.2784 8.64062 84.3305 9.29688C83.3826 9.94271 82.6013 10.8073 81.9868 11.8906C81.3826 12.974 81.0805 14.125 81.0805 15.3438V18.375H86.3461C86.7003 18.375 86.9503 18.4583 87.0961 18.625C87.2524 18.7812 87.3305 19.0521 87.3305 19.4375C87.3305 19.8229 87.2524 20.099 87.0961 20.2656C86.9503 20.4219 86.7003 20.5 86.3461 20.5H76.2836C75.9295 20.5 75.6743 20.4219 75.518 20.2656C75.3722 20.099 75.2993 19.8229 75.2993 19.4375C75.2993 19.0521 75.3722 18.7812 75.518 18.625C75.6743 18.4583 75.9295 18.375 76.2836 18.375H78.7368V8.1875H76.7524C76.3982 8.1875 76.143 8.10938 75.9868 7.95312C75.8409 7.78646 75.768 7.51042 75.768 7.125C75.768 6.73958 75.8409 6.46875 75.9868 6.3125C76.143 6.14583 76.3982 6.0625 76.7524 6.0625H79.9399C80.294 6.0625 80.544 6.14583 80.6899 6.3125C80.8461 6.46875 80.9243 6.73958 80.9243 7.125V10.2812C81.4243 9.36458 82.0284 8.5625 82.7368 7.875C83.4451 7.1875 84.2003 6.65625 85.0024 6.28125C85.8045 5.90625 86.5961 5.71875 87.3774 5.71875ZM101.846 5.71875C103.804 5.71875 105.273 6.15625 106.252 7.03125C107.232 7.90625 107.721 9.20312 107.721 10.9219V17.1406C107.721 17.9635 108.065 18.375 108.752 18.375H109.299C109.653 18.375 109.903 18.4583 110.049 18.625C110.206 18.7812 110.284 19.0521 110.284 19.4375C110.284 19.8229 110.206 20.099 110.049 20.2656C109.903 20.4219 109.653 20.5 109.299 20.5H108.299C107.622 20.5 107.039 20.3333 106.549 20C106.07 19.6562 105.758 19.1562 105.612 18.5C104.758 19.25 103.831 19.8281 102.831 20.2344C101.841 20.6406 100.789 20.8438 99.6743 20.8438C98.6222 20.8438 97.6899 20.6667 96.8774 20.3125C96.0753 19.9479 95.4451 19.4219 94.9868 18.7344C94.5284 18.0469 94.2993 17.2292 94.2993 16.2812C94.2993 14.6354 94.8878 13.4219 96.0649 12.6406C97.242 11.849 98.7628 11.4531 100.627 11.4531C102.284 11.4531 103.867 11.7188 105.377 12.25V10.9219C105.377 9.91146 105.091 9.17188 104.518 8.70312C103.956 8.22396 103.044 7.98438 101.784 7.98438C101.002 7.98438 100.19 8.09375 99.3461 8.3125C98.5024 8.53125 97.7003 8.83333 96.9399 9.21875C96.7628 9.3125 96.6013 9.35938 96.4555 9.35938C96.1118 9.35938 95.8253 9.10938 95.5961 8.60938C95.4815 8.35938 95.4243 8.15104 95.4243 7.98438C95.4243 7.61979 95.617 7.33854 96.0024 7.14062C96.8774 6.68229 97.8149 6.33333 98.8149 6.09375C99.8253 5.84375 100.836 5.71875 101.846 5.71875ZM100.643 13.6562C99.4451 13.6562 98.4972 13.8646 97.7993 14.2812C97.1118 14.6875 96.768 15.3385 96.768 16.2344C96.768 16.9948 97.0284 17.5885 97.5493 18.0156C98.0805 18.4323 98.8201 18.6406 99.768 18.6406C101.841 18.6406 103.711 17.7812 105.377 16.0625V14.3594C104.669 14.1302 103.909 13.9583 103.096 13.8438C102.284 13.7188 101.466 13.6562 100.643 13.6562ZM121.377 0C121.732 0 121.982 0.0833333 122.127 0.25C122.284 0.40625 122.362 0.677083 122.362 1.0625V18.375H127.377C127.732 18.375 127.982 18.4583 128.127 18.625C128.284 18.7812 128.362 19.0521 128.362 19.4375C128.362 19.8229 128.284 20.099 128.127 20.2656C127.982 20.4219 127.732 20.5 127.377 20.5H115.127C114.773 20.5 114.518 20.4219 114.362 20.2656C114.216 20.099 114.143 19.8229 114.143 19.4375C114.143 19.0521 114.216 18.7812 114.362 18.625C114.518 18.4583 114.773 18.375 115.127 18.375H120.018V2.125H115.752C115.398 2.125 115.143 2.04688 114.987 1.89062C114.841 1.72396 114.768 1.44792 114.768 1.0625C114.768 0.677083 114.841 0.40625 114.987 0.25C115.143 0.0833333 115.398 0 115.752 0H121.377ZM140.565 0C140.919 0 141.169 0.0833333 141.315 0.25C141.471 0.40625 141.549 0.677083 141.549 1.0625V18.375H146.565C146.919 18.375 147.169 18.4583 147.315 18.625C147.471 18.7812 147.549 19.0521 147.549 19.4375C147.549 19.8229 147.471 20.099 147.315 20.2656C147.169 20.4219 146.919 20.5 146.565 20.5H134.315C133.961 20.5 133.706 20.4219 133.549 20.2656C133.403 20.099 133.331 19.8229 133.331 19.4375C133.331 19.0521 133.403 18.7812 133.549 18.625C133.706 18.4583 133.961 18.375 134.315 18.375H139.206V2.125H134.94C134.586 2.125 134.331 2.04688 134.174 1.89062C134.028 1.72396 133.956 1.44792 133.956 1.0625C133.956 0.677083 134.028 0.40625 134.174 0.25C134.331 0.0833333 134.586 0 134.94 0H140.565Z" fill="white"/>
<rect x="15.5" y="42" width="28.7171" height="28.6697" fill="#434341" stroke="#1D1E18"/>
<rect x="15.5" y="86" width="28.7171" height="28.6697" fill="#1D1E18" stroke="#434341"/>
<path d="M82.0859 44.9531C82.4401 44.9531 82.6901 45.0365 82.8359 45.2031C82.9922 45.3594 83.0703 45.6302 83.0703 46.0156C83.0703 46.401 82.9922 46.6771 82.8359 46.8438C82.6901 47 82.4401 47.0781 82.0859 47.0781H81.3047L81.7109 61.375H82.5547C82.9089 61.375 83.1589 61.4583 83.3047 61.625C83.4609 61.7812 83.5391 62.0521 83.5391 62.4375C83.5391 62.8229 83.4609 63.099 83.3047 63.2656C83.1589 63.4219 82.9089 63.5 82.5547 63.5H77.6484C77.2943 63.5 77.0391 63.4219 76.8828 63.2656C76.737 63.099 76.6641 62.8229 76.6641 62.4375C76.6641 62.0521 76.737 61.7812 76.8828 61.625C77.0391 61.4583 77.2943 61.375 77.6484 61.375H79.3828L79.0391 48.5781L75.8516 57.4844C75.7161 57.849 75.5339 58.1094 75.3047 58.2656C75.0859 58.4219 74.7891 58.5 74.4141 58.5C74.0391 58.5 73.737 58.4219 73.5078 58.2656C73.2891 58.1094 73.112 57.849 72.9766 57.4844L69.7734 48.5781L69.4453 61.375H71.1797C71.5339 61.375 71.7839 61.4583 71.9297 61.625C72.0859 61.7812 72.1641 62.0521 72.1641 62.4375C72.1641 62.8229 72.0859 63.099 71.9297 63.2656C71.7839 63.4219 71.5339 63.5 71.1797 63.5H66.2734C65.9193 63.5 65.6641 63.4219 65.5078 63.2656C65.362 63.099 65.2891 62.8229 65.2891 62.4375C65.2891 62.0521 65.362 61.7812 65.5078 61.625C65.6641 61.4583 65.9193 61.375 66.2734 61.375H67.1172L67.5078 47.0781H66.7422C66.388 47.0781 66.1328 47 65.9766 46.8438C65.8307 46.6771 65.7578 46.401 65.7578 46.0156C65.7578 45.6302 65.8307 45.3594 65.9766 45.2031C66.1328 45.0365 66.388 44.9531 66.7422 44.9531H70.0391C70.2891 44.9531 70.487 44.9948 70.6328 45.0781C70.7786 45.1615 70.8828 45.2917 70.9453 45.4688L74.4141 54.9844L77.8672 45.4688C77.9818 45.125 78.2891 44.9531 78.7891 44.9531H82.0859ZM94.0078 44.9531C94.4245 44.9531 94.7578 45.0365 95.0078 45.2031C95.2682 45.3594 95.4609 45.6146 95.5859 45.9688L101.102 61.375H102.055C102.409 61.375 102.659 61.4583 102.805 61.625C102.961 61.7812 103.039 62.0521 103.039 62.4375C103.039 62.8229 102.961 63.099 102.805 63.2656C102.659 63.4219 102.409 63.5 102.055 63.5H96.5234C96.1693 63.5 95.9141 63.4219 95.7578 63.2656C95.612 63.099 95.5391 62.8229 95.5391 62.4375C95.5391 62.0521 95.612 61.7812 95.7578 61.625C95.9141 61.4583 96.1693 61.375 96.5234 61.375H98.6328L97.3516 57.6562H89.7734L88.4766 61.375H90.3672C90.7214 61.375 90.9714 61.4583 91.1172 61.625C91.2734 61.7812 91.3516 62.0521 91.3516 62.4375C91.3516 62.8229 91.2734 63.099 91.1172 63.2656C90.9714 63.4219 90.7214 63.5 90.3672 63.5H85.1484C84.7943 63.5 84.5391 63.4219 84.3828 63.2656C84.237 63.099 84.1641 62.8229 84.1641 62.4375C84.1641 62.0521 84.237 61.7812 84.3828 61.625C84.5391 61.4583 84.7943 61.375 85.1484 61.375H86.0234L91.1953 47.0781H88.2734C87.9193 47.0781 87.6641 47 87.5078 46.8438C87.362 46.6771 87.2891 46.401 87.2891 46.0156C87.2891 45.6302 87.362 45.3594 87.5078 45.2031C87.6641 45.0365 87.9193 44.9531 88.2734 44.9531H94.0078ZM93.4297 47.0781L90.5078 55.5312H96.6328L93.7266 47.0781H93.4297ZM120.305 44.9531C120.659 44.9531 120.909 45.0365 121.055 45.2031C121.211 45.3594 121.289 45.6302 121.289 46.0156C121.289 46.401 121.211 46.6771 121.055 46.8438C120.909 47 120.659 47.0781 120.305 47.0781H117.164V58.2969C117.164 60.1198 116.633 61.5 115.57 62.4375C114.508 63.375 112.956 63.8438 110.914 63.8438C109.727 63.8438 108.648 63.6354 107.68 63.2188C106.721 62.7917 105.909 62.2135 105.242 61.4844C105.076 61.2865 104.992 61.0208 104.992 60.6875V56.2344C104.992 55.8698 105.081 55.6094 105.258 55.4531C105.435 55.2969 105.737 55.2188 106.164 55.2188C106.591 55.2188 106.893 55.2969 107.07 55.4531C107.247 55.6094 107.336 55.8698 107.336 56.2344V60.3594C108.211 61.1406 109.409 61.5312 110.93 61.5312C112.294 61.5312 113.284 61.2292 113.898 60.625C114.513 60.0208 114.82 59.0885 114.82 57.8281V47.0781H109.492C109.138 47.0781 108.883 47 108.727 46.8438C108.581 46.6771 108.508 46.401 108.508 46.0156C108.508 45.6302 108.581 45.3594 108.727 45.2031C108.883 45.0365 109.138 44.9531 109.492 44.9531H120.305ZM131.977 44.6094C133.602 44.6094 135.034 45.0104 136.273 45.8125C137.523 46.6146 138.487 47.7448 139.164 49.2031C139.852 50.651 140.195 52.3281 140.195 54.2344C140.195 56.1406 139.852 57.8229 139.164 59.2812C138.487 60.7292 137.523 61.8542 136.273 62.6562C135.034 63.4479 133.602 63.8438 131.977 63.8438C130.352 63.8438 128.914 63.4479 127.664 62.6562C126.424 61.8542 125.461 60.7292 124.773 59.2812C124.096 57.8229 123.758 56.1406 123.758 54.2344C123.758 52.3281 124.096 50.651 124.773 49.2031C125.461 47.7448 126.424 46.6146 127.664 45.8125C128.914 45.0104 130.352 44.6094 131.977 44.6094ZM131.977 46.9219C130.831 46.9219 129.82 47.2188 128.945 47.8125C128.081 48.4062 127.409 49.2552 126.93 50.3594C126.461 51.4635 126.227 52.7552 126.227 54.2344C126.227 55.7135 126.461 57.0052 126.93 58.1094C127.409 59.2031 128.081 60.0469 128.945 60.6406C129.82 61.2344 130.831 61.5312 131.977 61.5312C133.122 61.5312 134.128 61.2344 134.992 60.6406C135.867 60.0469 136.539 59.2031 137.008 58.1094C137.487 57.0052 137.727 55.7135 137.727 54.2344C137.727 52.7552 137.487 51.4635 137.008 50.3594C136.539 49.2552 135.867 48.4062 134.992 47.8125C134.128 47.2188 133.122 46.9219 131.977 46.9219ZM151.711 44.9531C153.013 44.9531 154.128 45.1719 155.055 45.6094C155.992 46.0469 156.701 46.6615 157.18 47.4531C157.669 48.2448 157.914 49.1667 157.914 50.2188C157.914 51.4062 157.529 52.4115 156.758 53.2344C155.987 54.0573 154.93 54.6198 153.586 54.9219C154.169 55.151 154.654 55.5208 155.039 56.0312C155.362 56.4583 155.638 56.8854 155.867 57.3125C156.096 57.7292 156.352 58.2448 156.633 58.8594C156.924 59.4948 157.148 59.9583 157.305 60.25C157.711 61 158.18 61.375 158.711 61.375H159.148C159.503 61.375 159.753 61.4583 159.898 61.625C160.055 61.7812 160.133 62.0521 160.133 62.4375C160.133 62.8229 160.055 63.099 159.898 63.2656C159.753 63.4219 159.503 63.5 159.148 63.5H158.023C157.398 63.5 156.867 63.3385 156.43 63.0156C156.003 62.6823 155.586 62.1198 155.18 61.3281C154.951 60.8698 154.669 60.2656 154.336 59.5156C154.023 58.8281 153.768 58.2969 153.57 57.9219C153.383 57.5365 153.154 57.1562 152.883 56.7812C152.57 56.3438 152.195 56.0156 151.758 55.7969C151.32 55.5677 150.794 55.4531 150.18 55.4531H148.055V61.375H150.086C150.44 61.375 150.69 61.4583 150.836 61.625C150.992 61.7812 151.07 62.0521 151.07 62.4375C151.07 62.8229 150.992 63.099 150.836 63.2656C150.69 63.4219 150.44 63.5 150.086 63.5H143.805C143.451 63.5 143.195 63.4219 143.039 63.2656C142.893 63.099 142.82 62.8229 142.82 62.4375C142.82 62.0521 142.893 61.7812 143.039 61.625C143.195 61.4583 143.451 61.375 143.805 61.375H145.711V47.0781H143.805C143.451 47.0781 143.195 47 143.039 46.8438C142.893 46.6771 142.82 46.401 142.82 46.0156C142.82 45.6302 142.893 45.3594 143.039 45.2031C143.195 45.0365 143.451 44.9531 143.805 44.9531H151.711ZM148.055 53.3281H151.227C154.039 53.3281 155.445 52.2917 155.445 50.2188C155.445 49.2188 155.091 48.4479 154.383 47.9062C153.674 47.3542 152.674 47.0781 151.383 47.0781H148.055V53.3281Z" fill="white"/>
<path d="M81.9297 89.4575C82.2839 89.4575 82.5339 89.5409 82.6797 89.7075C82.8359 89.8638 82.9141 90.1346 82.9141 90.52C82.9141 90.9054 82.8359 91.1815 82.6797 91.3481C82.5339 91.5044 82.2839 91.5825 81.9297 91.5825H81.0391V107.426C81.0391 107.708 80.9401 107.931 80.7422 108.098C80.5547 108.265 80.263 108.348 79.8672 108.348C79.3151 108.348 78.8776 108.062 78.5547 107.489L70.4453 93.0044H70.3828V105.879H72.5859C72.9401 105.879 73.1901 105.963 73.3359 106.129C73.4922 106.286 73.5703 106.556 73.5703 106.942C73.5703 107.327 73.4922 107.603 73.3359 107.77C73.1901 107.926 72.9401 108.004 72.5859 108.004H67.0547C66.7005 108.004 66.4453 107.926 66.2891 107.77C66.1432 107.603 66.0703 107.327 66.0703 106.942C66.0703 106.556 66.1432 106.286 66.2891 106.129C66.4453 105.963 66.7005 105.879 67.0547 105.879H68.1016V91.5825H66.8984C66.5443 91.5825 66.2891 91.5044 66.1328 91.3481C65.987 91.1815 65.9141 90.9054 65.9141 90.52C65.9141 90.1346 65.987 89.8638 66.1328 89.7075C66.2891 89.5409 66.5443 89.4575 66.8984 89.4575H70.3984C70.6276 89.4575 70.8099 89.494 70.9453 89.5669C71.0911 89.6398 71.2057 89.7492 71.2891 89.895L78.6953 103.145H78.7578V91.5825H76.8672C76.513 91.5825 76.2578 91.5044 76.1016 91.3481C75.9557 91.1815 75.8828 90.9054 75.8828 90.52C75.8828 90.1346 75.9557 89.8638 76.1016 89.7075C76.2578 89.5409 76.513 89.4575 76.8672 89.4575H81.9297ZM93.6016 89.1138C95.2266 89.1138 96.6589 89.5148 97.8984 90.3169C99.1484 91.119 100.112 92.2492 100.789 93.7075C101.477 95.1554 101.82 96.8325 101.82 98.7388C101.82 100.645 101.477 102.327 100.789 103.786C100.112 105.234 99.1484 106.359 97.8984 107.161C96.6589 107.952 95.2266 108.348 93.6016 108.348C91.9766 108.348 90.5391 107.952 89.2891 107.161C88.0495 106.359 87.0859 105.234 86.3984 103.786C85.7214 102.327 85.3828 100.645 85.3828 98.7388C85.3828 96.8325 85.7214 95.1554 86.3984 93.7075C87.0859 92.2492 88.0495 91.119 89.2891 90.3169C90.5391 89.5148 91.9766 89.1138 93.6016 89.1138ZM93.6016 91.4263C92.4557 91.4263 91.4453 91.7231 90.5703 92.3169C89.7057 92.9106 89.0339 93.7596 88.5547 94.8638C88.0859 95.9679 87.8516 97.2596 87.8516 98.7388C87.8516 100.218 88.0859 101.51 88.5547 102.614C89.0339 103.708 89.7057 104.551 90.5703 105.145C91.4453 105.739 92.4557 106.036 93.6016 106.036C94.7474 106.036 95.7526 105.739 96.6172 105.145C97.4922 104.551 98.1641 103.708 98.6328 102.614C99.112 101.51 99.3516 100.218 99.3516 98.7388C99.3516 97.2596 99.112 95.9679 98.6328 94.8638C98.1641 93.7596 97.4922 92.9106 96.6172 92.3169C95.7526 91.7231 94.7474 91.4263 93.6016 91.4263ZM120.305 89.4575C120.659 89.4575 120.909 89.5409 121.055 89.7075C121.211 89.8638 121.289 90.1346 121.289 90.52C121.289 90.9054 121.211 91.1815 121.055 91.3481C120.909 91.5044 120.659 91.5825 120.305 91.5825H119.414V107.426C119.414 107.708 119.315 107.931 119.117 108.098C118.93 108.265 118.638 108.348 118.242 108.348C117.69 108.348 117.253 108.062 116.93 107.489L108.82 93.0044H108.758V105.879H110.961C111.315 105.879 111.565 105.963 111.711 106.129C111.867 106.286 111.945 106.556 111.945 106.942C111.945 107.327 111.867 107.603 111.711 107.77C111.565 107.926 111.315 108.004 110.961 108.004H105.43C105.076 108.004 104.82 107.926 104.664 107.77C104.518 107.603 104.445 107.327 104.445 106.942C104.445 106.556 104.518 106.286 104.664 106.129C104.82 105.963 105.076 105.879 105.43 105.879H106.477V91.5825H105.273C104.919 91.5825 104.664 91.5044 104.508 91.3481C104.362 91.1815 104.289 90.9054 104.289 90.52C104.289 90.1346 104.362 89.8638 104.508 89.7075C104.664 89.5409 104.919 89.4575 105.273 89.4575H108.773C109.003 89.4575 109.185 89.494 109.32 89.5669C109.466 89.6398 109.581 89.7492 109.664 89.895L117.07 103.145H117.133V91.5825H115.242C114.888 91.5825 114.633 91.5044 114.477 91.3481C114.331 91.1815 114.258 90.9054 114.258 90.52C114.258 90.1346 114.331 89.8638 114.477 89.7075C114.633 89.5409 114.888 89.4575 115.242 89.4575H120.305ZM138.398 101.286C138.826 101.286 139.128 101.364 139.305 101.52C139.482 101.676 139.57 101.937 139.57 102.301V106.942C139.57 107.327 139.492 107.603 139.336 107.77C139.19 107.926 138.94 108.004 138.586 108.004H124.617C124.263 108.004 124.008 107.926 123.852 107.77C123.706 107.603 123.633 107.327 123.633 106.942C123.633 106.556 123.706 106.286 123.852 106.129C124.008 105.963 124.263 105.879 124.617 105.879H126.211V91.5825H124.617C124.263 91.5825 124.008 91.5044 123.852 91.3481C123.706 91.1815 123.633 90.9054 123.633 90.52C123.633 90.1346 123.706 89.8638 123.852 89.7075C124.008 89.5409 124.263 89.4575 124.617 89.4575H138.273C138.628 89.4575 138.878 89.5409 139.023 89.7075C139.18 89.8638 139.258 90.1346 139.258 90.52V94.4888C139.258 94.8534 139.169 95.1138 138.992 95.27C138.815 95.4263 138.513 95.5044 138.086 95.5044C137.659 95.5044 137.357 95.4263 137.18 95.27C137.003 95.1138 136.914 94.8534 136.914 94.4888V91.5825H128.555V97.3794H132.586V95.9575C132.586 95.5929 132.664 95.3325 132.82 95.1763C132.987 95.02 133.279 94.9419 133.695 94.9419C134.112 94.9419 134.398 95.02 134.555 95.1763C134.721 95.3325 134.805 95.5929 134.805 95.9575V100.926C134.805 101.291 134.721 101.551 134.555 101.708C134.398 101.864 134.112 101.942 133.695 101.942C133.279 101.942 132.987 101.864 132.82 101.708C132.664 101.551 132.586 101.291 132.586 100.926V99.5044H128.555V105.879H137.227V102.301C137.227 101.937 137.315 101.676 137.492 101.52C137.669 101.364 137.971 101.286 138.398 101.286Z" fill="white"/>
</svg>
