<svg width="259" height="259" viewBox="0 0 259 259" fill="none" xmlns="http://www.w3.org/2000/svg">
<path d="M252.486 230.747C248.582 228.863 244.331 228.482 240.081 228.577C240.289 225.406 240.497 222.235 240.658 219.04C246.734 219.875 252.855 219.231 259 218.897C253.364 216.179 246.895 216.251 240.751 217.276C240.959 212.889 241.144 208.502 241.259 204.115C245.902 205.211 250.707 204.759 255.419 204.091C250.938 202.35 246.018 202.446 241.282 203.042C241.374 199.394 241.467 195.722 241.536 192.074C246.318 192.384 251.1 191.502 255.789 190.405C251.169 189.046 246.272 189.332 241.559 190.286C241.629 184.469 241.652 178.627 241.629 172.81C245.556 173.096 249.506 173 253.733 172.5C249.875 170.902 245.717 170.402 241.605 170.783C241.582 166.229 241.536 161.675 241.467 157.121C245.44 157.527 249.483 157.288 253.479 156.883C249.667 155.214 245.533 154.809 241.444 155.143C241.351 150.136 241.259 145.129 241.12 140.122C245.163 140.384 249.252 139.979 253.294 139.716C249.436 138.191 245.232 138.095 241.074 138.405C240.982 134.924 240.889 131.419 240.797 127.938C244.562 128.248 248.466 128.177 250.615 127.461C247.45 126.389 244.077 125.983 240.751 126.126C240.589 120.476 240.404 114.849 240.243 109.198C243.661 109.77 247.173 109.651 250.592 109.007C247.219 107.863 243.708 107.481 240.196 107.625C240.012 101.521 239.827 95.4173 239.665 89.3375C242.368 89.7428 245.163 89.4328 247.819 88.7175C244.978 88.0023 242.252 88.0023 239.642 88.3123C239.55 84.4736 239.457 80.6111 239.365 76.7725C243.246 76.9632 247.011 76.6772 250.661 75.9381C247.011 74.7936 243.107 74.5314 239.319 75.1274C239.203 69.2622 239.111 63.3969 239.041 57.5555C245.232 58.6999 251.585 58.247 257.799 57.0548C251.562 54.9806 245.14 54.9805 239.041 55.8389C239.018 51.7618 238.995 47.6848 239.018 43.6078C242.853 43.9416 246.711 43.56 250.522 42.7971C246.803 41.6049 242.899 41.3427 239.041 41.6765C239.088 32.3065 239.295 22.9364 239.665 13.5663C243.199 11.7543 246.41 9.34618 249.136 6.36588C249.275 6.24667 249.367 6.12749 249.413 6.03212C249.691 5.81754 249.806 5.55528 249.413 5.29302C245.232 6.79509 241.536 9.56082 238.325 12.7557C236.085 12.8034 233.821 12.851 231.58 12.8749C231.372 11.4682 231.003 10.0853 230.425 8.77399C230.402 10.1568 230.402 11.5159 230.425 12.8987C227.953 12.9464 225.505 12.9941 223.033 13.0418C222.64 11.6113 222.086 10.2522 221.323 8.98856C221.462 10.3476 221.601 11.7066 221.785 13.0657C219.337 13.1133 216.865 13.161 214.417 13.2087C214.139 11.4205 213.7 9.65619 213.007 7.98722C212.938 9.75156 213.007 11.492 213.146 13.2325C211.067 13.2563 209.011 13.3041 206.932 13.3518C206.586 11.4444 206.031 9.58462 205.269 7.79644C205.153 9.65615 205.246 11.5397 205.523 13.3756C202.427 13.4232 199.332 13.4709 196.214 13.5186C195.913 12.0165 195.497 10.5622 194.804 9.17934C194.828 10.6337 194.92 12.0881 195.059 13.5186C192.102 13.5663 189.145 13.614 186.211 13.6617C186.026 12.3504 185.795 11.0629 185.518 9.7754C185.241 11.039 185.172 12.3504 185.172 13.6617C182.122 13.7094 179.073 13.7571 176.024 13.8048C175.654 12.2789 175.123 10.8006 174.476 9.37005C174.476 10.8721 174.615 12.3504 174.8 13.8048C171.496 13.8525 168.17 13.9001 164.866 13.9478C164.451 12.3742 163.942 10.8483 163.249 9.37005C163.226 10.9198 163.296 12.4457 163.457 13.9716C160.131 14.0193 156.828 14.067 153.501 14.0909C153.224 11.6828 152.762 9.2985 152.023 6.96194C151.746 9.34618 151.722 11.7304 151.884 14.1147C148.766 14.1385 145.67 14.2101 142.552 14.2339C142.228 12.3742 141.72 10.5145 140.981 8.77399C140.958 10.586 141.073 12.4219 141.304 14.2578C137.932 14.2816 134.536 14.3531 131.163 14.377C130.84 11.945 130.285 9.53698 129.546 7.17659C129.246 9.58467 129.269 11.9927 129.569 14.377C124.256 14.4246 118.943 14.4723 113.63 14.52C113.284 12.0881 112.66 9.68001 111.736 7.36729C111.528 9.75153 111.574 12.1596 111.805 14.52C106.862 14.5439 101.918 14.5916 96.9748 14.6154C96.5821 12.5411 96.0046 10.5145 95.2654 8.55941C95.0806 10.586 95.1268 12.6126 95.2654 14.6392C90.8764 14.663 86.5104 14.6869 82.1214 14.7107C81.8211 12.1119 81.2205 9.56083 80.1579 7.17659C80.2734 9.27472 80.4813 12.0881 80.8047 14.7346C76.5773 14.7584 72.3731 14.7822 68.1688 14.7822C68.1688 10.8959 67.6375 6.98579 66.8059 3.17101C65.9743 6.98579 65.8126 10.8959 66.1129 14.7822C62.2552 14.7822 58.4205 14.8061 54.5628 14.83C54.4473 10.4191 53.6388 6.00828 52.2759 1.78818C51.7908 6.46129 51.8139 10.6576 52.2066 14.83C49.4345 14.83 46.6856 14.8538 43.9136 14.8538C43.9136 10.8722 43.1282 6.86658 41.8114 3.17101C41.4187 7.105 41.5342 10.9914 41.95 14.8538C37.9537 14.8538 33.9805 14.8776 29.961 14.8776C30.1227 9.84689 29.499 4.84001 28.0668 0C27.2583 4.93538 27.2583 9.9661 28.0668 14.8776C23.516 14.8776 19.0115 14.8776 14.4607 14.8776C12.22 12.5649 9.7021 10.5145 6.97627 8.79785C8.96289 12.3504 11.4346 15.5452 14.2528 18.3825C14.4608 21.7919 14.53 25.2014 14.4607 28.587C11.5039 28.134 8.47778 28.3725 5.63645 29.3739C8.54708 29.8984 11.527 29.8507 14.4377 29.35C14.3453 32.4495 14.1835 35.5729 13.9063 38.6724C11.4808 38.6485 9.05529 39.1015 6.79146 40.1745C9.10149 40.2698 11.4346 40.4129 13.7446 40.4606C13.3981 44.1561 12.9592 47.8517 12.451 51.5473C9.2863 51.7857 6.14465 52.6202 3.32642 54.1461C6.28326 54.0507 9.2401 53.8838 12.1969 53.5739C11.5732 57.937 10.9033 62.3002 10.2334 66.6633C8.15437 66.8779 6.07536 67.3786 4.08874 68.1415C6.05226 68.4277 8.01579 68.4753 9.97931 68.2846C9.3325 72.5524 8.70878 76.7964 8.17747 81.0642C6.44495 81.3503 4.73555 81.8032 3.11853 82.5185C4.73555 82.6854 6.37567 82.6616 7.99268 82.5185C7.39208 87.6446 6.93007 92.7708 6.72216 97.8969C4.45834 98.2545 2.19452 98.7552 0 99.5182C2.19452 99.8519 4.43524 99.995 6.65287 99.8996C6.65287 100.233 6.62976 100.591 6.60666 100.925C6.53735 105.741 6.69906 110.581 6.95316 115.397C4.73554 115.54 2.54102 115.874 0.3927 116.518C2.58722 117.018 4.82795 117.257 7.06867 117.281C7.29967 121.382 7.55377 125.506 7.76167 129.607C5.52094 129.774 3.32642 130.179 1.1781 130.895C3.39572 131.276 5.61335 131.419 7.85407 131.324C8.01577 135.115 8.10818 138.906 8.03888 142.697C8.01578 144.056 7.94648 145.439 7.87718 146.798C6.05226 147.084 4.25044 147.537 2.54102 148.252C4.29664 148.467 6.05226 148.467 7.80788 148.371C7.53067 153.807 7.11487 159.243 7.04557 164.679C4.94344 164.751 2.84132 165.037 0.7854 165.633C2.84132 166.11 4.92034 166.372 7.02246 166.444C7.02246 168.971 7.13797 171.498 7.36897 174.026C7.62307 176.553 8.03888 179.033 8.47779 181.536C6.39877 181.655 4.34283 182.013 2.33311 182.609C4.45834 183.086 6.62977 183.277 8.80119 183.157C9.7021 187.711 10.7416 192.241 11.527 196.795C9.21699 196.652 6.88386 196.891 4.64314 197.582C6.90696 197.963 9.3787 197.868 11.6194 197.367C12.0814 200.038 12.4279 202.732 12.5896 205.45C12.7513 208.216 12.7051 211.005 12.5896 213.795C10.5106 213.652 8.40848 213.842 6.37566 214.367C8.36228 214.772 10.5337 214.796 12.5665 214.534C12.2893 220.113 11.7349 225.716 11.7349 231.224C9.49419 231.176 7.23037 231.319 5.01275 231.724C7.16107 232.225 9.47109 232.487 11.7349 232.487C11.8042 236.254 12.1738 239.95 13.1209 243.574C11.2729 245.005 9.56349 246.673 8.10818 248.509C9.95619 247.579 11.8042 246.387 13.5829 245.124C13.6291 245.243 13.6522 245.362 13.6753 245.481C19.1963 246.363 24.7404 246.983 30.2844 247.389C30.3537 250.107 30.654 252.777 31.2546 255.304C31.5087 252.706 31.6242 250.083 31.5549 247.484C35.5513 247.746 39.5476 247.961 43.544 248.032C43.7981 251.49 44.3987 254.899 45.392 258.046C45.623 254.685 45.4382 251.347 44.9762 248.032C50.5895 248.104 56.1798 248.009 61.7932 247.77C61.7239 250.798 61.9087 253.755 62.4862 256.52C62.9713 253.612 63.0868 250.655 62.8327 247.723C66.1822 247.579 69.5548 247.389 72.9044 247.174C73.2971 250.631 74.0363 254.041 75.1451 257.14C75.1913 253.755 74.8217 250.393 74.1749 247.079C78.4484 246.769 82.6989 246.435 86.9724 246.054C87.1803 249.01 87.573 251.943 88.2891 254.565C88.6587 251.68 88.6356 248.795 88.2891 245.934C92.4241 245.553 96.559 245.148 100.694 244.718C100.856 248.462 101.433 252.205 102.473 255.614C102.796 251.919 102.634 248.223 102.08 244.575C105.614 244.218 109.149 243.836 112.66 243.479C112.775 247.508 113.122 251.561 114.023 255.304C114.369 251.347 114.323 247.317 113.699 243.383C117.372 243.002 121.045 242.62 124.718 242.263C124.533 246.888 124.903 251.585 125.966 255.877C126.797 251.323 126.936 246.673 126.335 242.12C129.523 241.81 132.688 241.524 135.876 241.261C135.806 245.529 136.13 249.821 137.031 253.755C137.446 249.558 137.446 245.338 137.054 241.166C139.595 240.951 142.113 240.761 144.654 240.594C145.277 240.546 145.901 240.522 146.502 240.498C146.317 245.41 146.71 250.417 147.726 254.994C148.396 250.154 148.419 245.267 147.795 240.427C151.607 240.212 155.442 240.045 159.276 239.926C159.577 244.838 160.177 250.178 161.009 253.373C161.771 248.891 161.517 244.313 160.547 239.878C162.926 239.807 165.282 239.735 167.662 239.688C167.754 244.79 168.47 249.988 170.226 254.208C170.226 249.344 170.041 244.456 169.209 239.664C173.991 239.616 178.773 239.592 183.555 239.688C183.508 245.362 184.201 251.18 185.726 256.353C186.234 250.774 185.842 245.171 184.617 239.712C188.152 239.783 191.686 239.878 195.197 240.021C195.128 245.505 195.775 251.132 197.161 256.187C197.784 250.774 197.392 245.314 196.075 240.069C200.88 240.284 205.708 240.57 210.513 240.927C210.813 246.054 211.644 251.084 212.407 256.163C213.446 251.18 212.869 245.958 211.598 241.023C217.951 241.523 224.303 242.12 230.633 242.883C230.564 248.39 231.118 254.136 232.596 259C233.012 253.635 232.643 248.223 231.488 242.978C233.913 243.264 236.339 243.55 238.764 243.884C238.787 243.574 238.81 243.24 238.833 242.93C241.167 247.222 243.777 251.347 246.826 255.114C247.357 255.662 249.044 258.499 248.374 256.64C246.803 250.894 243.338 245.958 238.903 242.215C239.272 238.162 239.596 234.108 239.873 230.055C244.585 230.628 249.413 230.723 252.486 230.747Z" fill="#C62D0A"/>
<path d="M172.849 122.956C172.891 123.449 173.676 126.812 175.279 130.631C176.658 133.914 178.041 135.772 179.204 138.24C181.453 143.015 181.503 145.432 181.907 148.051C183.28 154.243 185.082 156.009 186.781 158.481C187.283 159.31 187.927 160.402 188.377 161.26" stroke="#821800" stroke-width="2" stroke-linecap="round"/>
<path d="M174.994 212.614C174.909 203.056 171.921 193.016 171.04 183.371C170.76 180.313 170.614 179.479 170.506 178.91C170.398 178.341 170.332 178.062 170.263 177.671" stroke="#821800" stroke-width="2" stroke-linecap="round"/>
<path d="M118.713 53.4927C116.506 53.4927 110 54.0839 107.449 55.2737C105.596 56.1382 103.656 60.3695 100.337 67.9794C99.465 69.9789 99.3339 72.0436 99.1303 78.2886C98.9268 84.5336 98.8807 94.9862 98.7857 100.715C98.6418 109.398 96.0145 113.704 94.3886 118.092C92.5048 123.176 92.7633 130.393 91.6771 138.37C91.2519 141.492 91.4225 146.183 91.5311 150.809C92.5039 165.268 93.7272 167.932 94.9331 169.585C95.2034 169.975 95.4223 170.375 95.9589 171.523" stroke="#821800" stroke-width="2" stroke-linecap="round"/>
<path d="M114.601 53.0308C113.098 53.034 107.143 54.0113 102.823 55.7347C99.9817 56.8682 97.6048 59.4557 96.113 60.9492C94.8135 62.2503 94.0528 64.3864 93.2448 67.0581C92.182 70.5719 92.3014 72.3925 91.8961 76.5136C91.3197 82.3763 91.9929 88.1407 92.2913 91.8129C92.7242 97.1403 91.993 104.334 91.6612 110.826C91.4774 114.421 91.3211 120.095 90.5679 127.248C90.1861 130.873 89.2307 134.412 88.6954 139.633C88.1601 144.853 87.9271 151.628 87.9806 155.722C88.0915 164.195 90.3659 171.11 91.2192 174.051C91.3785 174.951 91.5441 176.279 91.7267 178.055C91.8025 178.972 91.8438 179.92 92.0658 181.347" stroke="#821800" stroke-width="2" stroke-linecap="round"/>
<path d="M104.385 126.057C104.371 126.949 104.216 129.388 104.231 145.643C104.236 150.645 105.956 152.591 107.089 154.052C108.387 155.727 109.37 157.207 109.95 159.724C110.091 160.439 110.232 161.146 110.307 162.451C110.383 163.755 110.39 165.637 110.397 167.514" stroke="#821800" stroke-width="2" stroke-linecap="round"/>
<path d="M105.885 136.303C106.172 136.712 107.254 138.204 108.302 139.759C108.548 140.244 108.76 140.865 108.984 141.37C109.208 141.874 109.438 142.244 109.675 142.625" stroke="#821800" stroke-width="2" stroke-linecap="round"/>
<path d="M97.0064 116.791C96.9529 117.559 96.5596 119.832 96.3249 121.778C96.0483 124.072 95.447 125.85 95.1692 128.249C94.9663 130.002 95.4641 131.541 96.3136 132.561C98.1755 134.797 99.9977 135.468 100.896 137.184C102.646 140.524 100.089 152.174 99.6061 157.697C99.3931 160.134 100.809 162.713 101.9 164.572C102.522 165.453 103.104 166.249 103.614 166.915C103.875 167.249 104.139 167.571 104.272 167.588" stroke="#821800" stroke-width="2" stroke-linecap="round"/>
<path d="M94.2036 132.544C94.4011 133.176 95.7761 135.524 97.2237 137.307C99.3333 139.905 100.404 143.296 101.269 146.288C102.648 151.06 102.576 153.437 103.25 155.676C103.574 156.706 103.924 158.592 104.27 161.009C104.427 162.03 104.544 162.634 104.929 164.443" stroke="#821800" stroke-width="2" stroke-linecap="round"/>
<path d="M92.0498 139.369C93.5393 142.419 97.4194 152.241 97.9811 155.691C98.1169 160.163 98.5368 166.524 99.3017 168.868C99.5342 169.505 99.783 170.193 100.087 170.667" stroke="#821800" stroke-width="2" stroke-linecap="round"/>
<path d="M109.521 55.1714C108.235 55.1779 104.959 55.525 102.9 57.0752C100.427 58.9366 99.4447 61.3281 97.0113 65.2565C95.308 68.0064 95.1491 73.6195 95.5493 76.6845C96.0005 80.1396 97.7409 84.3774 98.7557 91.9727C99.308 96.1063 98.0594 102.331 96.7516 108.985C96.0883 112.36 95.2407 115.278 93.6775 119.581C91.9974 124.205 91.4134 129.108 90.8853 133.957C90.2848 139.47 91.0155 145.207 91.7527 150.09C92.6951 156.333 94.8031 158.689 95.8538 167.193C96.0078 168.992 96.0104 169.479 96.2213 170.998C96.4321 172.516 96.8511 175.052 97.2828 177.665" stroke="#821800" stroke-width="2" stroke-linecap="round"/>
<path d="M110.629 52.3525C109.797 52.3552 104.879 53.5087 100.451 55.7869C99.2432 56.4081 97.2209 59.547 93.9026 64.4411C89.0714 71.5664 88.7805 74.2367 87.9995 80.4188C86.9595 88.6503 88.2033 91.2959 88.507 95.2922C88.6059 96.5942 88.6613 101.185 88.5155 108.135C88.4285 112.278 87.9559 114.776 87.3799 119.21C86.95 122.52 85.8988 127.926 85.422 134.017C84.4312 146.672 85.1438 153.908 85.4135 154.791C86.1063 157.062 87.0529 159.582 87.7806 165.241C88.402 170.698 89.6175 176.326 89.9613 179.632C90.0998 180.894 90.1653 181.311 90.2327 182.716" stroke="#821800" stroke-width="2" stroke-linecap="round"/>
<path d="M116.41 51.8204C114.375 51.8107 108.004 51.7369 104.602 52.5489C97.6416 54.21 95.5451 57.4796 91.3531 63.3521C88.1148 67.8885 86.25 75.6551 84.8257 80.5371C84.2765 82.4195 84.037 85.7778 83.7881 92.552C83.5392 99.3262 83.5308 109.473 83.6905 115.53C83.8942 123.262 84.8687 126.425 85.6123 129.981C87.4569 138.803 86.555 143.242 85.9709 145.375C85.7371 146.229 85.7386 150.181 85.5387 156.681C85.372 162.102 84.6532 167.912 84.7942 173.467C85.3737 176.582 86.2521 178.358 87.1131 179.744C87.5075 180.304 87.8155 180.574 88.4375 181.037" stroke="#821800" stroke-width="2" stroke-linecap="round"/>
<path d="M120.043 52.6149C119.458 52.4203 117.435 51.7735 110.41 51.6625C105.841 51.5904 103.61 52.5432 99.7279 53.4047C96.7666 54.0618 94.3395 55.7742 92.3321 58.3033C91.4382 59.4294 90.7998 60.9469 89.265 63.9313C86.3967 69.509 84.6478 74.6472 83.8094 77.9378C82.7024 82.2825 82.4643 85.7562 82.2025 88.0991C81.8051 91.6565 81.069 96.4354 81.004 104.637C80.9605 110.12 80.8384 118.283 81.0583 123.641C81.5098 134.643 83.904 137.062 84.3019 139.252C85.0445 143.34 83.5907 145.91 82.6578 151.093C81.982 154.848 81.01 157.261 80.6592 163.84C80.7828 171.611 81.4385 173.455 81.9184 174.73C82.1616 175.282 82.4041 175.642 82.7063 176.065" stroke="#821800" stroke-width="2" stroke-linecap="round"/>
<path d="M119.041 52.2071C118.343 52.2033 114.416 51.5838 107.083 51.406C100.942 51.2571 98.1262 53.3385 94.8021 55.1724C90.8151 57.372 88.7259 60.1929 85.2839 66.54C82.4203 71.8208 82.8513 75.5796 81.7212 84.9113C79.9021 99.9314 77.7506 101.38 76.9132 104.286C75.2307 110.123 74.0428 114.297 74.3347 120.664C74.5799 126.011 77.0732 131.396 77.6597 136.245C78.6642 144.55 76.8286 150.474 75.8914 155.531C75.923 158.111 76.7479 160.461 77.764 163.997C77.9779 164.802 78.1088 165.284 78.6595 166.628" stroke="#821800" stroke-width="2" stroke-linecap="round"/>
<path d="M79.9133 101.121C79.9133 101.21 79.9133 106.06 79.8549 113.662C79.8052 120.134 79.3394 126.219 79.1982 130.121C79.0111 135.294 79.0729 140.277 79.3578 142.424C79.6552 144.036 79.9057 145.532 80.0285 147.57C80.0827 149.072 80.1204 151.525 80.1593 154.052" stroke="#821800" stroke-width="2" stroke-linecap="round"/>
<path d="M120.204 51.4939C119.587 51.4741 115.056 50.0966 106.032 48.3958C98.6198 46.9985 95.5402 49.6884 92.8487 51.985C90.0689 54.3569 88.132 55.9329 85.0258 59.6452C84.0252 60.8411 83.0513 63.4998 81.4722 67.6969C80.0278 71.536 79.2259 76.9335 78.6962 82.6712C78.3855 86.0372 78.6171 87.7168 78.7533 90.1038C79.0316 94.983 78.1622 100.12 76.7298 103.893C74.6548 109.36 74.1708 111.727 73.5213 115.117C71.9487 123.327 71.3916 126.041 72.0562 129.905C72.8998 134.809 74.6162 138.466 74.8025 139.793C74.9474 140.824 75.0344 142.189 75.3053 146.019C75.4512 148.945 75.6142 153.867 75.9499 158.147C76.2855 162.426 76.7889 165.915 77.3074 169.509" stroke="#821800" stroke-width="2" stroke-linecap="round"/>
<path d="M120.201 50.6077C119.488 50.5327 115.633 48.7393 112.054 47.0855C108.674 45.524 104.788 46.0373 99.4762 46.9983C96.1007 47.6089 94.1769 49.2578 91.9112 51.1641C89.2747 53.3826 87.0013 56.561 85.0595 58.3837C82.6525 60.643 80.32 64.9864 79.1561 68.8489C78.5355 70.9084 78.0498 74.7914 77.6404 78.7406C77.2309 82.6898 77.1263 86.6439 77.159 90.2823C77.2204 97.1266 77.6095 100.741 77.7854 101.441C77.995 102.274 78.1982 105.786 78.1197 110.723C78.0472 115.286 74.888 119.418 73.6886 121.207C72.7699 122.578 72.1275 124.415 71.7405 125.847C71.3396 127.331 71.011 129.272 70.7648 130.89C70.4596 132.895 69.4064 135.102 68.5104 137.361C67.0112 141.141 68.1614 144.939 68.649 146.487C69.7004 149.826 68.967 155.975 68.5958 160.292C68.1534 165.437 68.3814 167.827 68.9177 169.976C69.6416 172.425 69.8121 173.516 69.8709 174.29C69.8966 174.715 69.9139 175.203 69.969 175.859" stroke="#821800" stroke-width="2" stroke-linecap="round"/>
<path d="M71.2876 132.434C71.2876 135.142 71.3691 140.312 71.6391 141.995C71.9046 143.651 72.0387 145.572 72.3296 148.187C72.5938 150.562 72.883 153.91 73.1161 157.437C73.5432 163.899 73.4489 165.743 73.7766 167.77C73.9189 168.548 74.0082 169.219 74.0802 169.872C74.1292 170.202 74.2034 170.53 74.2519 171.081" stroke="#821800" stroke-width="2" stroke-linecap="round"/>
<path d="M64.2402 174.2C64.194 173.825 63.0866 170.184 62.2458 167.216C61.6397 165.076 61.6934 162.521 61.6821 159.963C61.654 153.581 62.8735 150.497 63.7088 147.733C64.5933 144.806 65.3696 143.192 65.8046 140.937C66.6611 136.499 66.6537 132.732 67.2999 129.054C68.7678 125.201 70.9137 121.168 72.4448 118.137C72.6998 117.569 72.8023 117.319 73.3502 116.461" stroke="#821800" stroke-width="2" stroke-linecap="round"/>
<path d="M62.5104 169.516C62.5104 169.495 62.4953 168.653 62.1923 165.632C61.6155 159.882 60.7663 155.985 60.7222 155.21C60.659 154.1 60.499 150.091 60.4714 144.837C60.4598 142.635 60.2462 141.412 60.117 139.027C59.9275 135.526 60.4305 131.085 61.2629 126.489C62.6918 118.598 64.8764 115.67 65.7397 114.222C66.7496 112.528 69.5716 111.357 70.462 110.125C72.1993 107.721 73.4563 103.145 74.1552 99.8613C74.7271 97.1748 74.7011 92.2364 74.8642 89.3705C75.0668 85.8116 75.205 84.3659 75.247 82.8503C75.2907 81.2739 75.4515 77.7898 75.4051 73.5024C75.3613 69.4565 75.6144 65.0178 77.1119 61.0272C78.2106 58.0992 80.0192 54.2405 81.956 50.6851C83.4928 47.8638 87.9704 46.9093 91.8052 46.0999C92.8815 45.8727 94.3973 45.4194 97.0692 44.9604C100.543 44.3637 103.277 44.7055 105.491 45.0323C112.17 46.0182 113.797 46.683 115.429 47.3131C116.043 47.6941 117.031 48.617 118.19 49.8438C118.654 50.3501 118.863 50.6202 119.125 51.0162" stroke="#821800" stroke-width="2" stroke-linecap="round"/>
<path d="M95.1865 46.1982C94.1869 46.1982 91.6085 46.3323 87.0907 49.3531C85.6275 50.3315 83.9722 52.6845 81.8791 55.7063C80.8948 57.1274 80.8563 59.8017 80.8422 63.7331C80.8315 66.734 81.4989 70.4761 81.1442 75.9574C80.8049 78.9409 80.1422 82.3345 79.7613 89.2864C79.3805 96.2384 79.3015 106.646 79.0669 117.551" stroke="#821800" stroke-width="2" stroke-linecap="round"/>
<path d="M120.102 54.3207C120.888 54.2437 123.253 53.7851 124.656 53.1803C126.026 52.5895 127.694 52.562 133.404 52.7079C138.204 52.8305 139.784 55.1855 141.075 56.8404C142.632 58.8348 142.481 64.4681 142.776 68.3244C142.987 71.0821 144.645 74.4058 146.253 78.4241C148.121 83.0934 149.325 87.0403 151.71 92.4442C153.254 95.9421 155.469 100.189 156.519 102.835C157.579 105.504 157.907 111.398 159.16 117.968C159.897 121.835 160.498 124.239 160.258 127.462C160.109 129.465 159.602 132.187 159.307 139.01C159.011 145.834 158.864 156.668 158.909 162.475C158.957 168.74 159.853 170.313 160.812 172.741C162.03 175.534 162.908 177.443 163.283 178.377C163.472 178.925 163.657 179.625 163.889 180.212" stroke="#821800" stroke-width="2" stroke-linecap="round"/>
<path d="M121.265 52.5249C122.824 52.5249 127.207 52.3683 129.659 52.1776C134.947 51.7662 137.008 52.5773 139.799 53.7691C141.521 54.5041 143.153 54.8674 146.103 57.746C150.561 62.0968 150.102 66.4314 150.464 68.4868C151.301 73.241 151.979 79.5922 153.222 83.2457C154.256 86.2842 155.376 87.6752 157.539 91.0751C160.162 95.1975 162.234 98.7413 163.739 100.56C165.604 102.816 168.467 106.362 171.187 110.424C173.611 114.043 174.915 116.127 176.069 117.381C176.416 117.645 176.867 117.935 177.246 118.176C177.625 118.417 177.918 118.6 178.219 118.789" stroke="#821800" stroke-width="2" stroke-linecap="round"/>
<path d="M142.823 56.9199C142.823 56.9687 143.811 59.1967 145.775 63.2813C147.458 66.7818 150.102 71.1123 152.828 77.2094C155.653 83.5265 156.302 88.1493 156.525 89.7862C156.971 93.0704 159.779 99.585 161.335 102.183C162.03 103.342 164.104 106.539 166.557 111.417C169.425 117.122 169.345 121.098 169.904 125.267C170.337 128.507 169.847 131.129 170.536 139.581C170.867 143.635 170.812 150.005 170.898 153.511C170.996 157.478 171.32 158.684 171.701 160.582C173.145 167.915 175.047 174.312 175.359 175.402C175.549 176.143 175.806 177.264 176.348 179.055" stroke="#821800" stroke-width="2" stroke-linecap="round"/>
<path d="M150.585 109.926C150.585 112.532 150.842 118.483 151.171 122.803C151.386 125.627 154.131 129.557 155.531 131.913C155.989 132.684 158.418 135.643 162.209 140.646C165.402 144.859 168.186 148.21 169.777 152.268C172.86 160.132 171.946 162.53 173.335 167.893C173.888 169.633 174.605 171.521 175.061 172.654C175.517 173.786 175.689 174.106 175.912 174.66" stroke="#821800" stroke-width="2" stroke-linecap="round"/>
<path d="M147.379 116.938C147.379 117.021 147.972 118.842 149.336 122.623C150.87 126.869 152.647 131.233 153.616 135.31C154.986 141.071 154.76 144.087 155.632 148.623C157.534 153.078 159.625 156.78 161.825 162.355C162.389 163.729 162.828 164.694 163.361 165.818" stroke="#821800" stroke-width="2" stroke-linecap="round"/>
<path d="M154.486 131.572C154.53 132.161 155.046 135.089 156.222 138.816C156.771 140.558 158.506 141.959 159.91 144.483C163.022 150.076 164.788 153.249 166.598 156.418C168.109 159.066 168.038 162.758 168.741 166.217C170.782 173.934 172.113 177.591 172.777 179.042C172.921 179.386 173.041 179.691 173.164 180.005" stroke="#821800" stroke-width="2" stroke-linecap="round"/>
<path d="M142.814 125.258C142.923 125.674 144.534 129.394 146.264 132.776C147.261 134.722 147.039 139.883 146.904 145.367C146.829 148.428 146.88 154.149 146.931 157.514C147.023 163.604 148.594 167.142 149.48 168.832C151.379 172.727 153.945 174.421 156.561 177.671" stroke="#821800" stroke-width="2" stroke-linecap="round"/>
<path d="M144.864 123.037C145.288 123.152 146.602 123.82 149.05 125.516C151.934 127.515 153.713 131.487 155.011 137.645C155.769 141.241 155.483 148.126 155.675 151.784C155.867 155.442 155.985 155.744 156.145 156.079C156.305 156.414 156.503 156.773 157.123 158.009" stroke="#821800" stroke-width="2" stroke-linecap="round"/>
<path d="M149.372 127.601C149.372 130.242 150.715 139.45 152.481 142.328C153.745 143.503 154.72 144.669 155.392 145.68C155.699 146.164 155.938 146.59 156.561 147.54" stroke="#821800" stroke-width="2" stroke-linecap="round"/>
<path d="M150.429 137.12C150.429 138.1 150.308 140.873 150.291 145.124C150.279 147.859 152.178 148.972 153.322 150.039C153.702 150.415 154.195 150.956 154.79 151.668C155.385 152.381 156.066 153.248 156.769 154.141" stroke="#821800" stroke-width="2" stroke-linecap="round"/>
<path d="M181.037 174.25C180.808 173.865 178.556 170.817 175.742 164.26C173.874 159.906 173.232 157.662 169.905 150.398C168.224 146.731 167.744 140.826 167.04 137.19C166.316 133.454 166.694 127.265 166.272 124.981C165.389 120.194 164.054 117.276 162.565 113.242C161.021 109.064 158.847 104.233 157.878 101.943C156.751 99.2795 156.638 96.0823 155.977 94.9743C155.266 93.7839 154.052 92.8702 153.393 91.5432C153.289 91.1792 153.213 90.8214 153.046 90.5401C152.879 90.2588 152.622 90.0648 152.059 89.3765" stroke="#821800" stroke-width="2" stroke-linecap="round"/>
<path d="M185.4 167.947C184.548 166.95 181.276 162.927 179.503 160.808C178.127 159.163 176.857 157.009 175.724 155.274C173.444 151.784 172.97 149.186 172.58 144.523C172.278 140.918 172.087 134.773 171.859 130.95C171.631 127.128 171.454 125.807 171.291 120.385C171.129 114.962 170.987 105.476 170.93 100.416C170.853 93.6502 171.356 89.6832 171.623 86.8038C171.967 83.0948 168.424 79.9787 167.53 78.3671C167.081 77.5584 166.599 76.7307 165.885 75.4292C164.589 73.0683 161.785 68.5625 158.13 63.5698C154.679 58.8565 153.505 57.4295 152.159 55.8194C149.196 52.2725 145.307 51.3484 141.889 50.7378C139.412 50.2953 136.13 50.3031 132.125 49.9619C124.786 49.9717 123.399 50.4543 122.04 51.5601C121.751 51.858 121.539 52.1155 121.237 52.5493" stroke="#821800" stroke-width="2" stroke-linecap="round"/>
<path d="M117.944 46.786C118.872 45.8811 121.21 43.6551 123.624 41.564C125.824 39.6588 128.569 38.9712 137.397 38.5841C141.001 38.426 144.033 40.2008 145.725 41.4956C148.315 43.4775 148.734 45.3322 149.575 47.4475C150.722 50.3284 152.909 55.122 154.643 61.2603C155.077 62.7944 155.449 64.0741 156.025 68.1865C157.195 76.5508 157.697 82.8193 158.304 84.1971C159.441 86.7784 160.82 90.2716 161.479 92.0941C161.931 93.3456 162.56 94.6637 163.764 97.0984C166.119 101.86 167.581 105.981 168.393 109.119C170.879 118.728 171.865 120.622 174.349 123.575C176.427 126.045 180.219 131.33 183.172 135.507C184.933 137.997 185.974 143.24 186.65 146.606C187.189 152.485 188.31 156.696 189.242 160.807C189.595 162.965 190.197 166.952 190.855 171.682" stroke="#821800" stroke-width="2" stroke-linecap="round"/>
<path d="M166.056 100.12C165.967 98.0594 165.622 93.293 165.152 89.6216C163.962 80.3201 161.97 76.7817 160.536 74.3009C159.279 72.1263 159.361 70.5595 158.6 68.4939C158.408 68.0141 158.291 67.6875 158.174 67.3559C158.057 67.0244 157.944 66.6978 157.828 66.3613" stroke="#821800" stroke-width="2" stroke-linecap="round"/>
<path d="M119.776 48.1287C120.631 48.1266 123.732 47.8273 128.426 47.3904C131.601 47.0949 136.427 47.2687 139.704 47.5407C147.351 49.4926 150.07 51.0606 150.879 51.7311C151.275 52.0881 151.642 52.4791 152.149 53.0809" stroke="#821800" stroke-width="2" stroke-linecap="round"/>
<path d="M119.513 46.6605C119.669 46.6185 120.727 46.1405 122.5 44.975C122.955 44.6754 123.922 44.3622 125.3 43.9778C126.076 43.7613 126.637 43.7332 127.458 43.554C128.717 43.2796 129.678 43.3079 130.252 43.2515C131.294 43.1494 132.13 42.9504 132.593 42.884C133.206 42.7963 134.076 42.6608 135.405 42.6921C136.203 42.7109 137.252 42.7942 138.418 42.9603C140.849 43.3064 142.309 43.7259 142.647 43.8329C142.919 43.9189 143.631 44.0807 144.642 44.4535C146.27 45.0544 147.404 46.4014 147.95 47.1312C148.825 48.2343 149.475 49.0639 149.616 49.3036C149.687 49.4367 149.756 49.5928 149.921 49.9062" stroke="#821800" stroke-width="2" stroke-linecap="round"/>
<path d="M97.0654 115.274C97.2537 115.829 97.9097 117.423 99.049 119.506C101.94 124.79 106.243 127.755 111.209 130.723C114.074 132.435 117.673 133.752 120.872 134.59C127.294 136.274 131.767 133.965 136.791 129.979C141.223 126.463 143.62 122.177 146.417 117.32C148.078 114.437 148.989 113.441 149.41 112.393C150.367 110.014 152.025 106.79 152.989 104.949C153.528 103.766 153.972 102.831 154.17 102.453C154.256 102.261 154.311 102.068 154.367 101.812" stroke="#821800" stroke-width="2" stroke-linecap="round"/>
<path d="M111.106 131.716V152.303" stroke="#821800" stroke-width="2" stroke-linecap="round"/>
<path d="M139.601 129.015C139.601 129.022 139.601 129.03 139.624 131.129C139.647 133.227 139.693 137.416 139.722 140.382C139.752 143.348 139.765 144.963 139.778 146.054C139.791 147.146 139.805 147.665 139.868 148.617" stroke="#821800" stroke-width="2" stroke-linecap="round"/>
<path d="M111.047 152.13C111.078 152.541 112.061 153.798 112.811 154.987C113.407 155.93 114.531 157.731 117.905 162.657C120.822 166.916 123.067 171.312 125.831 175.501C127.493 178.02 128.454 180.452 129.467 182.055C130.814 184.186 130.966 184.995 131.098 185.206C131.203 185.374 131.629 182.133 132.376 177.862C132.727 175.851 133.01 174.88 133.162 173.791C133.302 172.791 133.683 170.347 134.344 167.051C135.245 162.56 136.2 158.405 137.715 154.081C138.19 152.54 138.655 151.227 139.158 150.05C139.279 149.772 139.375 149.559 139.615 149.047" stroke="#821800" stroke-width="2" stroke-linecap="round"/>
<path d="M108.378 153.763C108.385 153.763 108.391 153.763 108.473 153.707C108.554 153.651 108.711 153.54 108.862 153.423C109.012 153.305 109.151 153.185 109.645 152.917" stroke="#821800" stroke-width="2" stroke-linecap="round"/>
<path d="M139.836 148.098C140.104 148.253 140.418 148.789 141.335 149.5C142.291 150.241 143.196 151.166 144.06 151.866C144.979 152.609 146.584 153.777 147.797 154.677C148.71 155.355 149.746 156.267 150.456 156.917C151.748 158.101 153.4 159.46 154.245 160.192C155.393 161.186 156.44 161.75 157.295 162.826C157.424 162.987 157.529 163.153 157.68 163.396" stroke="#821800" stroke-width="2" stroke-linecap="round"/>
<path d="M103.284 175.118C103.322 175.672 103.666 178.294 104.088 181.364C104.89 187.187 105.549 192.481 105.944 195.506C106.995 203.548 108.154 211.522 109.397 219.538C109.559 220.057 109.763 220.59 110.165 221.785" stroke="#821800" stroke-width="2" stroke-linecap="round"/>
<path d="M83.3779 177.74C83.3779 178.69 83.5713 182.045 83.9163 184.546C84.9022 191.689 85.5874 198.798 86.7613 205.913C86.8137 206.299 86.8688 206.669 87.1723 207.468" stroke="#821800" stroke-width="2" stroke-linecap="round"/>
<path d="M153.861 173.513C153.861 184.171 155.572 193.775 158.451 203.883C159.774 209.259 160.747 214.322 160.946 215.798C161.013 216.178 161.101 216.564 161.275 216.8" stroke="#821800" stroke-width="2" stroke-linecap="round"/>
<path d="M163.432 165.319C163.488 165.665 164.277 168.324 165.346 170.994C165.97 172.551 166.062 174.696 166.325 176.077C166.519 177.094 167.788 178.805 168.381 181.124C168.476 182.824 168.55 184.085 168.728 184.633C168.859 184.935 169.076 185.287 169.299 185.65" stroke="#821800" stroke-width="2" stroke-linecap="round"/>
<path d="M155.038 102.589C155.038 102.633 154.71 104.399 154.116 108.911C153.265 115.374 153.615 120.338 154.063 122.755C154.613 125.725 155.622 128.131 156.38 129.443C156.833 130.228 157.937 130.58 159.284 131.007C160.436 131.373 161.389 131.045 162.028 130.647C163.387 129.8 163.644 127.372 164.312 121.584C164.761 117.685 164.021 113.806 163.151 110.571C161.087 106.185 159.489 104.427 158.072 103.267C157.465 102.816 157.086 102.647 156.158 102.331" stroke="#E45130" stroke-width="2" stroke-linecap="round"/>
<path d="M96.4228 115.821C96.4322 116.494 96.9051 119.677 97.5308 122.682C98.3022 126.386 97.2566 132.718 96.3749 134.984C95.7924 136.482 94.3699 137.066 93.7232 137.275C93.1188 137.409 92.3666 137.511 91.5437 137.516C91.1751 137.469 90.9058 137.318 90.6284 137.164" stroke="#E45130" stroke-width="2" stroke-linecap="round"/>
</svg>
