<svg width="113" height="109" viewBox="0 0 113 109" fill="none" xmlns="http://www.w3.org/2000/svg">
<path d="M109.3 96.78C107.61 95.99 105.77 95.83 103.93 95.87C104.02 94.54 104.11 93.21 104.18 91.87C106.81 92.22 109.46 91.95 112.12 91.81C109.68 90.67 106.88 90.7 104.22 91.13C104.31 89.29 104.39 87.45 104.44 85.61C106.45 86.07 108.53 85.88 110.57 85.6C108.63 84.87 106.5 84.91 104.45 85.16C104.49 83.63 104.53 82.09 104.56 80.56C106.63 80.69 108.7 80.32 110.73 79.86C108.73 79.29 106.61 79.41 104.57 79.81C104.6 77.37 104.61 74.92 104.6 72.48C106.3 72.6 108.01 72.56 109.84 72.35C108.17 71.68 106.37 71.47 104.59 71.63C104.58 69.72 104.56 67.81 104.53 65.9C106.25 66.07 108 65.97 109.73 65.8C108.08 65.1 106.29 64.93 104.52 65.07C104.48 62.97 104.44 60.87 104.38 58.77C106.13 58.88 107.9 58.71 109.65 58.6C107.98 57.96 106.16 57.92 104.36 58.05C104.32 56.59 104.28 55.12 104.24 53.66C105.87 53.79 107.56 53.76 108.49 53.46C107.12 53.01 105.66 52.84 104.22 52.9C104.15 50.53 104.07 48.17 104 45.8C105.48 46.04 107 45.99 108.48 45.72C107.02 45.24 105.5 45.08 103.98 45.14C103.9 42.58 103.82 40.02 103.75 37.47C104.92 37.64 106.13 37.51 107.28 37.21C106.05 36.91 104.87 36.91 103.74 37.04C103.7 35.43 103.66 33.81 103.62 32.2C105.3 32.28 106.93 32.16 108.51 31.85C106.93 31.37 105.24 31.26 103.6 31.51C103.55 29.05 103.51 26.59 103.48 24.14C106.16 24.62 108.91 24.43 111.6 23.93C108.9 23.06 106.12 23.06 103.48 23.42C103.47 21.71 103.46 20 103.47 18.29C105.13 18.43 106.8 18.27 108.45 17.95C106.84 17.45 105.15 17.34 103.48 17.48C103.5 13.55 103.59 9.62 103.75 5.69C105.28 4.93 106.67 3.92001 107.85 2.67001C107.91 2.62001 107.95 2.57 107.97 2.53C108.09 2.44 108.14 2.33 107.97 2.22C106.16 2.85 104.56 4.01001 103.17 5.35001C102.2 5.37001 101.22 5.38999 100.25 5.39999C100.16 4.80999 100 4.22999 99.75 3.67999C99.74 4.25999 99.74 4.83 99.75 5.41C98.68 5.43 97.62 5.45 96.55 5.47C96.38 4.87 96.14 4.29999 95.81 3.76999C95.87 4.33999 95.93 4.91001 96.01 5.48001C94.95 5.50001 93.88 5.52001 92.82 5.54001C92.7 4.79001 92.51 4.05001 92.21 3.35001C92.18 4.09001 92.21 4.81999 92.27 5.54999C91.37 5.55999 90.48 5.58001 89.58 5.60001C89.43 4.80001 89.19 4.01999 88.86 3.26999C88.81 4.04999 88.85 4.83999 88.97 5.60999C87.63 5.62999 86.29 5.65001 84.94 5.67001C84.81 5.04001 84.63 4.43001 84.33 3.85001C84.34 4.46001 84.38 5.07001 84.44 5.67001C83.16 5.69001 81.88 5.71001 80.61 5.73001C80.53 5.18001 80.43 4.64001 80.31 4.10001C80.19 4.63001 80.16 5.18001 80.16 5.73001C78.84 5.75001 77.52 5.77001 76.2 5.79001C76.04 5.15001 75.81 4.52999 75.53 3.92999C75.53 4.55999 75.59 5.18001 75.67 5.79001C74.24 5.81001 72.8 5.83001 71.37 5.85001C71.19 5.19001 70.97 4.54999 70.67 3.92999C70.66 4.57999 70.69 5.21999 70.76 5.85999C69.32 5.87999 67.89 5.9 66.45 5.91C66.33 4.9 66.13 3.90001 65.81 2.92001C65.69 3.92001 65.68 4.92001 65.75 5.92001C64.4 5.93001 63.06 5.96 61.71 5.97C61.57 5.19 61.35 4.40999 61.03 3.67999C61.02 4.43999 61.07 5.21001 61.17 5.98001C59.71 5.99001 58.24 6.02 56.78 6.03C56.64 5.01 56.4 4.00001 56.08 3.01001C55.95 4.02001 55.96 5.03 56.09 6.03C53.79 6.05 51.49 6.07 49.19 6.09C49.04 5.07 48.77 4.06 48.37 3.09C48.28 4.09 48.3 5.1 48.4 6.09C46.26 6.1 44.12 6.12 41.98 6.13C41.81 5.26 41.56 4.41 41.24 3.59C41.16 4.44 41.18 5.28998 41.24 6.13998C39.34 6.14998 37.45 6.16001 35.55 6.17001C35.42 5.08001 35.16 4.01001 34.7 3.01001C34.75 3.89001 34.84 5.06999 34.98 6.17999C33.15 6.18999 31.33 6.20001 29.51 6.20001C29.51 4.57001 29.28 2.92999 28.92 1.32999C28.56 2.92999 28.49 4.57001 28.62 6.20001C26.95 6.20001 25.29 6.21 23.62 6.22C23.57 4.37 23.22 2.52 22.63 0.75C22.42 2.71 22.43 4.47 22.6 6.22C21.4 6.22 20.21 6.23001 19.01 6.23001C19.01 4.56001 18.67 2.87999 18.1 1.32999C17.93 2.97999 17.98 4.61001 18.16 6.23001C16.43 6.23001 14.71 6.23999 12.97 6.23999C13.04 4.12999 12.77 2.03 12.15 0C11.8 2.07 11.8 4.17999 12.15 6.23999C10.18 6.23999 8.23001 6.23999 6.26001 6.23999C5.29001 5.26999 4.2 4.41 3.02 3.69C3.88 5.18 4.95 6.51999 6.17 7.70999C6.26 9.13999 6.29001 10.57 6.26001 11.99C4.98001 11.8 3.67 11.9 2.44 12.32C3.7 12.54 4.99 12.52 6.25 12.31C6.21 13.61 6.14 14.92 6.02 16.22C4.97 16.21 3.92 16.4 2.94 16.85C3.94 16.89 4.95 16.95 5.95 16.97C5.8 18.52 5.61 20.07 5.39 21.62C4.02 21.72 2.66 22.07 1.44 22.71C2.72 22.67 4 22.6 5.28 22.47C5.01 24.3 4.72001 26.13 4.43001 27.96C3.53001 28.05 2.63 28.26 1.77 28.58C2.62 28.7 3.47001 28.72 4.32001 28.64C4.04001 30.43 3.77001 32.21 3.54001 34C2.79001 34.12 2.05001 34.31 1.35001 34.61C2.05001 34.68 2.76001 34.67 3.46001 34.61C3.20001 36.76 3 38.91 2.91 41.06C1.93 41.21 0.95 41.42 0 41.74C0.95 41.88 1.92 41.94 2.88 41.9C2.88 42.04 2.87 42.19 2.86 42.33C2.83 44.35 2.90001 46.38 3.01001 48.4C2.05001 48.46 1.1 48.6 0.169998 48.87C1.12 49.08 2.09 49.18 3.06 49.19C3.16 50.91 3.27 52.64 3.36 54.36C2.39 54.43 1.44001 54.6 0.51001 54.9C1.47001 55.06 2.43001 55.12 3.40001 55.08C3.47001 56.67 3.51 58.26 3.48 59.85C3.47 60.42 3.44 61 3.41 61.57C2.62 61.69 1.84001 61.88 1.10001 62.18C1.86001 62.27 2.62 62.27 3.38 62.23C3.26 64.51 3.08 66.79 3.05 69.07C2.14 69.1 1.23 69.22 0.339996 69.47C1.23 69.67 2.13001 69.78 3.04001 69.81C3.04001 70.87 3.09 71.93 3.19 72.99C3.3 74.05 3.48 75.09 3.67 76.14C2.77 76.19 1.88001 76.34 1.01001 76.59C1.93001 76.79 2.87 76.87 3.81 76.82C4.2 78.73 4.65001 80.63 4.99001 82.54C3.99001 82.48 2.98001 82.58 2.01001 82.87C2.99001 83.03 4.06 82.99 5.03 82.78C5.23 83.9 5.38 85.03 5.45 86.17C5.52 87.33 5.5 88.5 5.45 89.67C4.55 89.61 3.64001 89.69 2.76001 89.91C3.62001 90.08 4.56 90.09 5.44 89.98C5.32 92.32 5.08 94.67 5.08 96.98C4.11 96.96 3.13 97.02 2.17 97.19C3.1 97.4 4.1 97.51 5.08 97.51C5.11 99.09 5.27001 100.64 5.68001 102.16C4.88001 102.76 4.14001 103.46 3.51001 104.23C4.31001 103.84 5.11 103.34 5.88 102.81C5.9 102.86 5.91 102.91 5.92 102.96C8.31 103.33 10.71 103.59 13.11 103.76C13.14 104.9 13.27 106.02 13.53 107.08C13.64 105.99 13.69 104.89 13.66 103.8C15.39 103.91 17.12 104 18.85 104.03C18.96 105.48 19.22 106.91 19.65 108.23C19.75 106.82 19.67 105.42 19.47 104.03C21.9 104.06 24.32 104.02 26.75 103.92C26.72 105.19 26.8 106.43 27.05 107.59C27.26 106.37 27.31 105.13 27.2 103.9C28.65 103.84 30.11 103.76 31.56 103.67C31.73 105.12 32.05 106.55 32.53 107.85C32.55 106.43 32.39 105.02 32.11 103.63C33.96 103.5 35.8 103.36 37.65 103.2C37.74 104.44 37.91 105.67 38.22 106.77C38.38 105.56 38.37 104.35 38.22 103.15C40.01 102.99 41.8 102.82 43.59 102.64C43.66 104.21 43.91 105.78 44.36 107.21C44.5 105.66 44.43 104.11 44.19 102.58C45.72 102.43 47.25 102.27 48.77 102.12C48.82 103.81 48.97 105.51 49.36 107.08C49.51 105.42 49.49 103.73 49.22 102.08C50.81 101.92 52.4 101.76 53.99 101.61C53.91 103.55 54.07 105.52 54.53 107.32C54.89 105.41 54.95 103.46 54.69 101.55C56.07 101.42 57.44 101.3 58.82 101.19C58.79 102.98 58.93 104.78 59.32 106.43C59.5 104.67 59.5 102.9 59.33 101.15C60.43 101.06 61.52 100.98 62.62 100.91C62.89 100.89 63.16 100.88 63.42 100.87C63.34 102.93 63.51 105.03 63.95 106.95C64.24 104.92 64.25 102.87 63.98 100.84C65.63 100.75 67.29 100.68 68.95 100.63C69.08 102.69 69.34 104.93 69.7 106.27C70.03 104.39 69.92 102.47 69.5 100.61C70.53 100.58 71.55 100.55 72.58 100.53C72.62 102.67 72.93 104.85 73.69 106.62C73.69 104.58 73.61 102.53 73.25 100.52C75.32 100.5 77.39 100.49 79.46 100.53C79.44 102.91 79.74 105.35 80.4 107.52C80.62 105.18 80.45 102.83 79.92 100.54C81.45 100.57 82.98 100.61 84.5 100.67C84.47 102.97 84.75 105.33 85.35 107.45C85.62 105.18 85.45 102.89 84.88 100.69C86.96 100.78 89.05 100.9 91.13 101.05C91.26 103.2 91.62 105.31 91.95 107.44C92.4 105.35 92.15 103.16 91.6 101.09C94.35 101.3 97.1 101.55 99.84 101.87C99.81 104.18 100.05 106.59 100.69 108.63C100.87 106.38 100.71 104.11 100.21 101.91C101.26 102.03 102.31 102.15 103.36 102.29C103.37 102.16 103.38 102.02 103.39 101.89C104.4 103.69 105.53 105.42 106.85 107C107.08 107.23 107.81 108.42 107.52 107.64C106.84 105.23 105.34 103.16 103.42 101.59C103.58 99.89 103.72 98.19 103.84 96.49C105.88 96.73 107.97 96.77 109.3 96.78Z" fill="#FEF9EF"/>
<path d="M38.1997 38.37C40.7497 38.46 43.1897 37.64 45.6797 37.27C43.1597 36.91 40.6097 37.76 38.1997 38.37Z" fill="#FEF9EF"/>
<path d="M53.2097 54.1299C50.9597 52.9599 49.6598 52.1699 47.3298 49.8699C46.3598 48.9099 45.5198 47.8199 44.8798 46.6099C42.3898 41.8699 41.2998 36.3999 41.8098 31.0599C42.2598 26.2899 44.4198 21.1499 48.8798 19.3999C49.8998 18.9999 50.9898 18.7999 52.0798 18.6999C58.2498 18.1799 64.5098 21.3799 67.9798 26.5099C71.4398 31.6399 72.0997 38.4699 69.9897 44.2899C68.9197 47.2599 67.0898 50.0499 64.4198 51.7299C62.2498 53.0999 56.2798 55.6299 55.2598 55.0099C54.5998 54.6199 53.8897 54.4799 53.2097 54.1299Z" fill="#4E598C"/>
<path d="M69.51 75.5399C70.78 76.5799 72.2 77.4399 73.68 78.1399C72.38 77.0399 70.99 76.0699 69.59 75.1199C70.22 72.0899 70.37 68.9599 69.98 65.8899C69.81 64.5399 69.4 63.2199 68.82 61.9799C67.44 58.9999 66.49 57.8199 64.79 55.9299C64.28 55.3599 63.66 54.9899 63.19 54.3899C62.45 53.4499 55.97 53.7399 53.46 54.2699C50.37 54.9199 47.69 56.8999 45.65 59.2999C42.76 62.6999 41.05 67.0899 40.86 71.5399C40.72 71.5599 40.57 71.5799 40.44 71.6099C40.58 71.6199 40.72 71.6099 40.86 71.6099C40.82 72.6799 40.86 73.7499 41 74.8099C39.88 74.9799 38.78 75.3199 37.75 75.7699C38.87 75.6899 39.97 75.5199 41.07 75.3099C41.14 75.7599 41.23 76.2099 41.34 76.6599C41.47 77.1899 41.63 77.6999 41.81 78.2099C41.37 78.5099 40.97 78.8399 40.68 79.1899C41.09 78.9499 41.5 78.7099 41.91 78.4699C42.23 79.3499 42.62 80.2099 43.08 81.0299C42.07 81.9699 41.13 82.9699 40.34 84.0099C41.39 83.2399 42.39 82.3899 43.33 81.4799C43.87 82.3899 44.49 83.2599 45.18 84.0699C44.57 84.7999 44 85.5599 43.5 86.3299C44.19 85.7199 44.84 85.0699 45.46 84.3899C46.57 85.6299 47.85 86.7299 49.26 87.6199C49.13 87.9299 49.01 88.2499 48.9 88.5699C49.09 88.2999 49.25 87.9999 49.42 87.7199C50.69 88.4999 52.05 89.1099 53.49 89.5099C53.2 90.7799 52.97 92.0299 52.81 93.1199C53.37 92.0199 53.77 90.8599 54.08 89.6599C54.96 89.8699 55.85 90 56.76 89.9799C57.22 89.97 57.68 89.9199 58.12 89.8399C58.14 91.1299 58.22 92.3299 58.32 92.9899C58.6 91.9199 58.69 90.8199 58.67 89.7099C60.05 89.3599 61.32 88.6999 62.48 87.8199C62.84 89.2899 63.31 90.7299 63.87 92.0699C63.69 90.5099 63.36 88.9799 62.93 87.4799C63.97 86.61 64.91 85.5699 65.71 84.4399C66.35 85.4899 67.1 86.4599 67.91 87.2999C67.34 86.1599 66.7 85.0599 66.03 83.9799C66.56 83.1899 67.04 82.3599 67.44 81.5199C67.85 80.6799 68.2 79.8199 68.51 78.9399C69.54 80.1999 70.69 81.3699 71.91 82.3499C70.96 80.9599 69.88 79.6599 68.69 78.4299C69.01 77.4899 69.29 76.5199 69.51 75.5399Z" fill="#4E598C"/>
<path d="M57.9798 63.5499C56.1898 65.3499 55.0598 66.3599 52.1598 67.8999C50.9598 68.5399 49.6598 69.0199 48.3198 69.2699C43.0498 70.2399 37.5098 69.6499 32.5598 67.5899C28.1398 65.7499 23.8798 62.1499 23.5198 57.3799C23.4398 56.2899 23.5698 55.1899 23.7998 54.1199C25.1398 48.0799 30.0498 43.0399 35.9798 41.2599C41.9098 39.4799 48.6198 40.8799 53.5498 44.6199C56.0598 46.5299 58.1898 49.0999 58.9998 52.1499C59.6598 54.6299 60.3098 61.0799 59.4098 61.8699C58.8598 62.3699 58.5198 63.0099 57.9798 63.5499Z" fill="#821800"/>
<path d="M55.9099 45.74C58.0099 44.31 59.3099 43.53 62.4499 42.57C63.7499 42.17 65.1099 41.94 66.4799 41.95C71.8399 41.99 77.1699 43.62 81.6299 46.58C85.6199 49.23 89.1299 53.56 88.5699 58.32C88.4399 59.41 88.1099 60.46 87.6699 61.47C85.2099 67.15 79.4299 71.16 73.2799 71.79C67.1199 72.42 60.7899 69.77 56.6599 65.17C54.5499 62.82 52.9499 59.89 52.7299 56.75C52.5499 54.19 53.1399 47.74 54.1599 47.13C54.8199 46.74 55.2799 46.17 55.9099 45.74Z" fill="#821800"/>
<path d="M39.1401 37.61C41.6001 37.59 46.3501 38.23 47.6801 37.64C44.9301 37.22 41.9401 36.74 39.1401 37.61Z" fill="#4E598C"/>
<path d="M39.52 34.8699C42.18 35.1299 45.15 34.9799 47.63 34.4899C44.92 34.2799 42.19 34.4099 39.52 34.8699Z" fill="#4E598C"/>
<path d="M39.4302 31.4701C42.1902 31.6901 45.2602 31.71 47.8802 31.37C45.1202 30.87 42.2102 30.8501 39.4302 31.4701Z" fill="#4E598C"/>
<path d="M41.5098 27.87C43.7398 28.23 46.1098 28.5601 48.3798 28.4201C46.1198 27.9601 43.8098 27.66 41.5098 27.87Z" fill="#4E598C"/>
<path d="M41.4102 24.0901C43.6202 24.7401 45.9902 25.2401 48.2502 25.3201C46.0502 24.5701 43.7402 24.0901 41.4102 24.0901Z" fill="#4E598C"/>
<path d="M43.96 21.4399C45.77 22.4899 47.94 23.5799 49.82 24.0999C48 22.9599 46.06 21.9799 43.96 21.4399Z" fill="#4E598C"/>
<path d="M52.3202 22.09C52.5102 22.68 52.7202 23.26 52.9502 23.82C52.9002 23.26 52.8202 22.7 52.7202 22.15C52.6502 20.88 52.4102 19.62 52.0002 18.41C52.0302 18.95 52.1102 19.5 52.2002 20.05C51.9602 19.27 51.6802 18.5 51.3402 17.75C51.5202 19.16 51.8502 20.58 52.2802 21.94C50.6902 20.77 48.9402 19.87 47.1802 18.98C48.6402 20.39 50.4602 21.33 52.3202 22.09Z" fill="#4E598C"/>
<path d="M56.7298 17.76C55.9798 20.15 55.8198 22.69 56.1598 25.18C56.6598 22.74 56.8298 20.24 56.7298 17.76Z" fill="#4E598C"/>
<path d="M59.4897 26.9099C60.6597 24.4899 61.3898 21.8599 61.5598 19.1799C60.5598 21.6399 59.8097 24.3299 59.4897 26.9099Z" fill="#4E598C"/>
<path d="M61.1997 29.1401C62.8197 26.8301 64.6397 24.6601 65.8997 22.1101C64.0497 24.1201 61.9297 26.7201 61.1997 29.1401Z" fill="#4E598C"/>
<path d="M63.04 31.1399C65.19 29.6699 67.02 27.8199 68.74 25.8899C66.52 27.2199 64.57 29.1799 63.04 31.1399Z" fill="#4E598C"/>
<path d="M64.1899 34.4899C66.7599 32.8599 69.5499 31.5899 72.2299 30.1399C69.24 30.8299 66.2799 32.1899 64.1899 34.4899Z" fill="#4E598C"/>
<path d="M69.9502 35C71.9102 34.78 73.8702 34.33 75.8302 33.92C74.2002 33.79 72.5502 34.07 70.9802 34.54C68.5602 34.73 66.0802 35.27 63.9102 36.19C65.9602 35.97 67.9702 35.58 69.9502 35Z" fill="#4E598C"/>
<path d="M69.1099 38.65C70.7899 38.87 72.5898 38.85 74.2098 38.47C72.5098 38.32 70.7999 38.34 69.1099 38.65Z" fill="#4E598C"/>
<path d="M72.6099 69.29C72.9699 70.59 73.5498 71.92 74.2398 73.03C73.8698 71.71 73.3299 70.45 72.6099 69.29Z" fill="#821800"/>
<path d="M75.1699 68.6201C75.8599 70.0901 76.9699 71.5101 78.1599 72.4801C77.3099 71.0901 76.3199 69.7801 75.1699 68.6201Z" fill="#821800"/>
<path d="M80.4597 69.3301C81.1997 69.9301 81.9997 70.4501 82.7897 70.8601C81.5997 69.5601 80.1897 68.4701 78.6597 67.5901C78.8797 67.8601 79.1297 68.1201 79.3897 68.3701C79.0897 68.1601 78.7897 67.9501 78.4697 67.7801C79.0497 68.3401 79.7697 68.9001 80.4597 69.3301Z" fill="#821800"/>
<path d="M80.6499 65.4099C81.9299 66.9299 83.6699 68.0399 85.4399 68.8199C83.9699 67.5999 82.2699 66.5299 80.6499 65.4099Z" fill="#821800"/>
<path d="M82.3501 63.8C83.9201 64.8 85.8001 65.3501 87.5801 65.6701C85.9301 64.8201 84.1401 64.31 82.3501 63.8Z" fill="#821800"/>
<path d="M83.77 61.7201C84.52 61.8801 85.31 61.9701 86.09 62.0001C87.14 62.3301 88.26 62.4801 89.28 62.4901C87.75 61.9101 86.13 61.6501 84.52 61.3401C84.78 61.4901 85.07 61.6101 85.35 61.7301C84.83 61.7101 84.3 61.7001 83.77 61.7201Z" fill="#821800"/>
<path d="M84.8999 59.26C87.1599 59.22 89.4699 58.65 91.5499 57.96C89.2699 57.97 87.0499 58.53 84.8999 59.26Z" fill="#821800"/>
<path d="M85.1899 55.3899C87.1099 55.0099 89.0599 54.3499 90.7399 53.4099C88.7899 53.7399 86.8999 54.3799 85.1899 55.3899Z" fill="#821800"/>
<path d="M85.9198 50.69C86.7998 50.27 87.6698 49.79 88.4798 49.25C86.8098 49.68 85.2198 50.45 83.8698 51.53C83.5798 51.7 83.2898 51.88 83.0098 52.08C84.0098 51.75 85.0598 51.25 85.9198 50.69Z" fill="#821800"/>
<path d="M80.5601 49.53C81.7201 48.86 82.8201 47.93 83.7101 47C82.5001 47.62 81.4601 48.52 80.5601 49.53Z" fill="#821800"/>
<path d="M77.3398 47.1601C78.4198 46.4101 79.9599 44.9001 80.6299 44.3301C79.1899 44.7401 78.1898 45.9901 77.3398 47.1601Z" fill="#821800"/>
<path d="M73.3701 44.8C74.5501 43.56 75.7401 42.08 76.6101 40.71C75.1401 41.73 74.0401 43.15 73.3701 44.8Z" fill="#821800"/>
<path d="M38.3898 67.5801C38.0198 69.0701 37.8398 70.6701 37.9698 72.1601C38.3398 70.6701 38.5198 69.1201 38.3898 67.5801Z" fill="#821800"/>
<path d="M33.4199 71.2901C34.0199 69.7701 34.3699 68.17 34.5099 66.55C33.8599 68.03 33.4999 69.7001 33.4199 71.2901Z" fill="#821800"/>
<path d="M29.1401 68.46C30.1601 67.28 30.9501 65.93 31.4801 64.47C30.5201 65.66 29.7001 67.07 29.1401 68.46Z" fill="#821800"/>
<path d="M24.27 65.5199C26.01 64.6999 27.56 63.54 28.93 62.2C27.23 63.07 25.66 64.2599 24.27 65.5199Z" fill="#821800"/>
<path d="M20.1401 63.38C22.4401 62.46 24.5401 61.15 26.5601 59.74C24.1801 60.43 22.0201 61.76 20.1401 63.38Z" fill="#821800"/>
<path d="M21.0698 57.56C22.3198 57.5 23.5598 57.33 24.7698 57C23.5298 56.91 22.1898 57.1 21.0698 57.56Z" fill="#821800"/>
<path d="M22.0601 53.2502C23.6201 53.4102 25.1901 53.3702 26.7601 53.5002C25.3101 52.7602 23.5901 52.8102 22.0601 53.2502Z" fill="#821800"/>
<path d="M25.8099 49.0999C24.9399 48.9899 23.3999 49.0399 22.8799 48.9299C24.7799 49.8799 27.4499 49.4499 28.9299 51.2199C28.4499 49.9799 27.0299 49.3899 25.8099 49.0999Z" fill="#821800"/>
<path d="M25.5801 43.6399C27.5901 44.7299 29.5001 46.0499 31.3801 47.3499C30.2201 45.4199 27.5401 43.6599 25.5801 43.6399Z" fill="#821800"/>
<path d="M31.48 40.54C32.2 41.72 33.19 42.85 34.24 43.66C33.47 42.5 32.56 41.43 31.48 40.54Z" fill="#821800"/>
<path d="M35.1699 39.1201C35.7399 41.5101 37.4499 43.3901 39.4799 44.6801C38.0799 42.8201 36.5199 41.0401 35.1699 39.1201Z" fill="#821800"/>
</svg>
