<svg width="113" height="109" viewBox="0 0 113 109" fill="none" xmlns="http://www.w3.org/2000/svg">
<path d="M109.3 96.78C107.61 95.99 105.77 95.83 103.93 95.87C104.02 94.54 104.11 93.21 104.18 91.87C106.81 92.22 109.46 91.95 112.12 91.81C109.68 90.67 106.88 90.7 104.22 91.13C104.31 89.29 104.39 87.45 104.44 85.61C106.45 86.07 108.53 85.88 110.57 85.6C108.63 84.87 106.5 84.91 104.45 85.16C104.49 83.63 104.53 82.09 104.56 80.56C106.63 80.69 108.7 80.32 110.73 79.86C108.73 79.29 106.61 79.41 104.57 79.81C104.6 77.37 104.61 74.92 104.6 72.48C106.3 72.6 108.01 72.56 109.84 72.35C108.17 71.68 106.37 71.47 104.59 71.63C104.58 69.72 104.56 67.81 104.53 65.9C106.25 66.07 108 65.97 109.73 65.8C108.08 65.1 106.29 64.93 104.52 65.07C104.48 62.97 104.44 60.87 104.38 58.77C106.13 58.88 107.9 58.71 109.65 58.6C107.98 57.96 106.16 57.92 104.36 58.05C104.32 56.59 104.28 55.12 104.24 53.66C105.87 53.79 107.56 53.76 108.49 53.46C107.12 53.01 105.66 52.84 104.22 52.9C104.15 50.53 104.07 48.17 104 45.8C105.48 46.04 107 45.99 108.48 45.72C107.02 45.24 105.5 45.08 103.98 45.14C103.9 42.58 103.82 40.02 103.75 37.47C104.92 37.64 106.13 37.51 107.28 37.21C106.05 36.91 104.87 36.91 103.74 37.04C103.7 35.43 103.66 33.81 103.62 32.2C105.3 32.28 106.93 32.16 108.51 31.85C106.93 31.37 105.24 31.26 103.6 31.51C103.55 29.05 103.51 26.59 103.48 24.14C106.16 24.62 108.91 24.43 111.6 23.93C108.9 23.06 106.12 23.06 103.48 23.42C103.47 21.71 103.46 20 103.47 18.29C105.13 18.43 106.8 18.27 108.45 17.95C106.84 17.45 105.15 17.34 103.48 17.48C103.5 13.55 103.59 9.62 103.75 5.69C105.28 4.93 106.67 3.91998 107.85 2.66998C107.91 2.61998 107.95 2.57 107.97 2.53C108.09 2.44 108.14 2.33 107.97 2.22C106.16 2.85 104.56 4.01001 103.17 5.35001C102.2 5.37001 101.22 5.38999 100.25 5.39999C100.16 4.80999 100 4.22999 99.75 3.67999C99.74 4.25999 99.74 4.83 99.75 5.41C98.68 5.43 97.62 5.45 96.55 5.47C96.38 4.87 96.14 4.29999 95.81 3.76999C95.87 4.33999 95.93 4.91001 96.01 5.48001C94.95 5.50001 93.88 5.52001 92.82 5.54001C92.7 4.79001 92.51 4.05001 92.21 3.35001C92.18 4.09001 92.21 4.81999 92.27 5.54999C91.37 5.55999 90.48 5.58001 89.58 5.60001C89.43 4.80001 89.19 4.01999 88.86 3.26999C88.81 4.04999 88.85 4.83999 88.97 5.60999C87.63 5.62999 86.29 5.64998 84.94 5.66998C84.81 5.03998 84.63 4.43001 84.33 3.85001C84.34 4.46001 84.38 5.06998 84.44 5.66998C83.16 5.68998 81.88 5.71001 80.61 5.73001C80.53 5.18001 80.43 4.64001 80.31 4.10001C80.19 4.63001 80.16 5.18001 80.16 5.73001C78.84 5.75001 77.52 5.77001 76.2 5.79001C76.04 5.15001 75.81 4.52999 75.53 3.92999C75.53 4.55999 75.59 5.18001 75.67 5.79001C74.24 5.81001 72.8 5.83001 71.37 5.85001C71.19 5.19001 70.97 4.54999 70.67 3.92999C70.66 4.57999 70.69 5.21999 70.76 5.85999C69.32 5.87999 67.89 5.9 66.45 5.91C66.33 4.9 66.13 3.89998 65.81 2.91998C65.69 3.91998 65.68 4.91998 65.75 5.91998C64.4 5.92998 63.06 5.96 61.71 5.97C61.57 5.19 61.35 4.40999 61.03 3.67999C61.02 4.43999 61.07 5.21001 61.17 5.98001C59.71 5.99001 58.24 6.02 56.78 6.03C56.64 5.01 56.4 4.00001 56.08 3.01001C55.95 4.02001 55.96 5.03 56.09 6.03C53.79 6.05 51.49 6.07 49.19 6.09C49.04 5.07 48.77 4.06 48.37 3.09C48.28 4.09 48.3 5.1 48.4 6.09C46.26 6.1 44.12 6.12 41.98 6.13C41.81 5.26 41.56 4.41 41.24 3.59C41.16 4.44 41.18 5.28998 41.24 6.13998C39.34 6.14998 37.45 6.15998 35.55 6.16998C35.42 5.07998 35.16 4.01001 34.7 3.01001C34.75 3.89001 34.84 5.06999 34.98 6.17999C33.15 6.18999 31.33 6.19998 29.51 6.19998C29.51 4.56998 29.28 2.92999 28.92 1.32999C28.56 2.92999 28.49 4.56998 28.62 6.19998C26.95 6.19998 25.29 6.21 23.62 6.22C23.57 4.37 23.22 2.52 22.63 0.75C22.42 2.71 22.43 4.47 22.6 6.22C21.4 6.22 20.21 6.23001 19.01 6.23001C19.01 4.56001 18.67 2.87999 18.1 1.32999C17.93 2.97999 17.98 4.61001 18.16 6.23001C16.43 6.23001 14.71 6.23999 12.97 6.23999C13.04 4.12999 12.77 2.03 12.15 0C11.8 2.07 11.8 4.17999 12.15 6.23999C10.18 6.23999 8.22999 6.23999 6.25999 6.23999C5.28999 5.26999 4.2 4.41 3.02 3.69C3.88 5.18 4.95 6.51999 6.17 7.70999C6.26 9.13999 6.28999 10.57 6.25999 11.99C4.97999 11.8 3.66999 11.9 2.43999 12.32C3.69999 12.54 4.99 12.52 6.25 12.31C6.21 13.61 6.14 14.92 6.02 16.22C4.97 16.21 3.91999 16.4 2.93999 16.85C3.93999 16.89 4.95 16.95 5.95 16.97C5.8 18.52 5.61 20.07 5.39 21.62C4.02 21.72 2.65999 22.07 1.43999 22.71C2.71999 22.67 4 22.6 5.28 22.47C5.01 24.3 4.71999 26.13 4.42999 27.96C3.52999 28.05 2.63 28.26 1.77 28.58C2.62 28.7 3.47 28.72 4.32 28.64C4.04 30.43 3.76999 32.21 3.53999 34C2.78999 34.12 2.05 34.31 1.35 34.61C2.05 34.68 2.76 34.67 3.46 34.61C3.2 36.76 3 38.91 2.91 41.06C1.93 41.21 0.95 41.42 0 41.74C0.95 41.88 1.92 41.94 2.88 41.9C2.88 42.04 2.86999 42.19 2.85999 42.33C2.82999 44.35 2.89999 46.38 3.00999 48.4C2.04999 48.46 1.1 48.6 0.169998 48.87C1.12 49.08 2.09 49.18 3.06 49.19C3.16 50.91 3.26999 52.64 3.35999 54.36C2.38999 54.43 1.43999 54.6 0.509995 54.9C1.46999 55.06 2.42999 55.12 3.39999 55.08C3.46999 56.67 3.51 58.26 3.48 59.85C3.47 60.42 3.44 61 3.41 61.57C2.62 61.69 1.84 61.88 1.1 62.18C1.86 62.27 2.62 62.27 3.38 62.23C3.26 64.51 3.08 66.79 3.05 69.07C2.14 69.1 1.23 69.22 0.339996 69.47C1.23 69.67 2.12999 69.78 3.03999 69.81C3.03999 70.87 3.08999 71.93 3.18999 72.99C3.29999 74.05 3.48 75.09 3.67 76.14C2.77 76.19 1.87999 76.34 1.00999 76.59C1.92999 76.79 2.87 76.87 3.81 76.82C4.2 78.73 4.65 80.63 4.99 82.54C3.99 82.48 2.97999 82.58 2.00999 82.87C2.98999 83.03 4.06 82.99 5.03 82.78C5.23 83.9 5.38 85.03 5.45 86.17C5.52 87.33 5.5 88.5 5.45 89.67C4.55 89.61 3.63999 89.69 2.75999 89.91C3.61999 90.08 4.55999 90.09 5.43999 89.98C5.31999 92.32 5.07999 94.67 5.07999 96.98C4.10999 96.96 3.13 97.02 2.17 97.19C3.1 97.4 4.09999 97.51 5.07999 97.51C5.10999 99.09 5.26999 100.64 5.67999 102.16C4.87999 102.76 4.13999 103.46 3.50999 104.23C4.30999 103.84 5.11 103.34 5.88 102.81C5.9 102.86 5.91 102.91 5.92 102.96C8.31 103.33 10.71 103.59 13.11 103.76C13.14 104.9 13.27 106.02 13.53 107.08C13.64 105.99 13.69 104.89 13.66 103.8C15.39 103.91 17.12 104 18.85 104.03C18.96 105.48 19.22 106.91 19.65 108.23C19.75 106.82 19.67 105.42 19.47 104.03C21.9 104.06 24.32 104.02 26.75 103.92C26.72 105.19 26.8 106.43 27.05 107.59C27.26 106.37 27.31 105.13 27.2 103.9C28.65 103.84 30.11 103.76 31.56 103.67C31.73 105.12 32.05 106.55 32.53 107.85C32.55 106.43 32.39 105.02 32.11 103.63C33.96 103.5 35.8 103.36 37.65 103.2C37.74 104.44 37.91 105.67 38.22 106.77C38.38 105.56 38.37 104.35 38.22 103.15C40.01 102.99 41.8 102.82 43.59 102.64C43.66 104.21 43.91 105.78 44.36 107.21C44.5 105.66 44.43 104.11 44.19 102.58C45.72 102.43 47.25 102.27 48.77 102.12C48.82 103.81 48.97 105.51 49.36 107.08C49.51 105.42 49.49 103.73 49.22 102.08C50.81 101.92 52.4 101.76 53.99 101.61C53.91 103.55 54.07 105.52 54.53 107.32C54.89 105.41 54.95 103.46 54.69 101.55C56.07 101.42 57.44 101.3 58.82 101.19C58.79 102.98 58.93 104.78 59.32 106.43C59.5 104.67 59.5 102.9 59.33 101.15C60.43 101.06 61.52 100.98 62.62 100.91C62.89 100.89 63.16 100.88 63.42 100.87C63.34 102.93 63.51 105.03 63.95 106.95C64.24 104.92 64.25 102.87 63.98 100.84C65.63 100.75 67.29 100.68 68.95 100.63C69.08 102.69 69.34 104.93 69.7 106.27C70.03 104.39 69.92 102.47 69.5 100.61C70.53 100.58 71.55 100.55 72.58 100.53C72.62 102.67 72.93 104.85 73.69 106.62C73.69 104.58 73.61 102.53 73.25 100.52C75.32 100.5 77.39 100.49 79.46 100.53C79.44 102.91 79.74 105.35 80.4 107.52C80.62 105.18 80.45 102.83 79.92 100.54C81.45 100.57 82.98 100.61 84.5 100.67C84.47 102.97 84.75 105.33 85.35 107.45C85.62 105.18 85.45 102.89 84.88 100.69C86.96 100.78 89.05 100.9 91.13 101.05C91.26 103.2 91.62 105.31 91.95 107.44C92.4 105.35 92.15 103.16 91.6 101.09C94.35 101.3 97.1 101.55 99.84 101.87C99.81 104.18 100.05 106.59 100.69 108.63C100.87 106.38 100.71 104.11 100.21 101.91C101.26 102.03 102.31 102.15 103.36 102.29C103.37 102.16 103.38 102.02 103.39 101.89C104.4 103.69 105.53 105.42 106.85 107C107.08 107.23 107.81 108.42 107.52 107.64C106.84 105.23 105.34 103.16 103.42 101.59C103.58 99.89 103.72 98.19 103.84 96.49C105.88 96.73 107.97 96.77 109.3 96.78Z" fill="#C62D0A"/>
</svg>
