<svg width="113" height="109" viewBox="0 0 113 109" fill="none" xmlns="http://www.w3.org/2000/svg">
<path d="M109.3 96.78C107.61 95.99 105.77 95.83 103.93 95.87C104.02 94.54 104.11 93.21 104.18 91.87C106.81 92.22 109.46 91.95 112.12 91.81C109.68 90.67 106.88 90.7 104.22 91.13C104.31 89.29 104.39 87.45 104.44 85.61C106.45 86.07 108.53 85.88 110.57 85.6C108.63 84.87 106.5 84.91 104.45 85.16C104.49 83.63 104.53 82.09 104.56 80.56C106.63 80.69 108.7 80.32 110.73 79.86C108.73 79.29 106.61 79.41 104.57 79.81C104.6 77.37 104.61 74.92 104.6 72.48C106.3 72.6 108.01 72.56 109.84 72.35C108.17 71.68 106.37 71.47 104.59 71.63C104.58 69.72 104.56 67.81 104.53 65.9C106.25 66.07 108 65.97 109.73 65.8C108.08 65.1 106.29 64.93 104.52 65.07C104.48 62.97 104.44 60.87 104.38 58.77C106.13 58.88 107.9 58.71 109.65 58.6C107.98 57.96 106.16 57.92 104.36 58.05C104.32 56.59 104.28 55.12 104.24 53.66C105.87 53.79 107.56 53.76 108.49 53.46C107.12 53.01 105.66 52.84 104.22 52.9C104.15 50.53 104.07 48.17 104 45.8C105.48 46.04 107 45.99 108.48 45.72C107.02 45.24 105.5 45.08 103.98 45.14C103.9 42.58 103.82 40.02 103.75 37.47C104.92 37.64 106.13 37.51 107.28 37.21C106.05 36.91 104.87 36.91 103.74 37.04C103.7 35.43 103.66 33.81 103.62 32.2C105.3 32.28 106.93 32.16 108.51 31.85C106.93 31.37 105.24 31.26 103.6 31.51C103.55 29.05 103.51 26.59 103.48 24.14C106.16 24.62 108.91 24.43 111.6 23.93C108.9 23.06 106.12 23.06 103.48 23.42C103.47 21.71 103.46 20 103.47 18.29C105.13 18.43 106.8 18.27 108.45 17.95C106.84 17.45 105.15 17.34 103.48 17.48C103.5 13.55 103.59 9.62 103.75 5.69C105.28 4.93 106.67 3.92 107.85 2.67C107.91 2.62 107.95 2.57 107.97 2.53C108.09 2.44 108.14 2.33 107.97 2.22C106.16 2.85 104.56 4.00999 103.17 5.34999C102.2 5.36999 101.22 5.38999 100.25 5.39999C100.16 4.80999 100 4.22999 99.75 3.67999C99.74 4.25999 99.74 4.83 99.75 5.41C98.68 5.43 97.62 5.45 96.55 5.47C96.38 4.87 96.14 4.29999 95.81 3.76999C95.87 4.33999 95.93 4.91 96.01 5.48C94.95 5.5 93.88 5.51999 92.82 5.53999C92.7 4.78999 92.51 4.04999 92.21 3.34999C92.18 4.08999 92.21 4.82 92.27 5.55C91.37 5.56 90.48 5.57999 89.58 5.59999C89.43 4.79999 89.19 4.01999 88.86 3.26999C88.81 4.04999 88.85 4.84 88.97 5.61C87.63 5.63 86.29 5.65 84.94 5.67C84.81 5.04 84.63 4.42999 84.33 3.84999C84.34 4.45999 84.38 5.07 84.44 5.67C83.16 5.69 81.88 5.71 80.61 5.73C80.53 5.18 80.43 4.63999 80.31 4.09999C80.19 4.62999 80.16 5.18 80.16 5.73C78.84 5.75 77.52 5.76999 76.2 5.78999C76.04 5.14999 75.81 4.52999 75.53 3.92999C75.53 4.55999 75.59 5.17999 75.67 5.78999C74.24 5.80999 72.8 5.82999 71.37 5.84999C71.19 5.18999 70.97 4.54999 70.67 3.92999C70.66 4.57999 70.69 5.22 70.76 5.86C69.32 5.88 67.89 5.9 66.45 5.91C66.33 4.9 66.13 3.9 65.81 2.92C65.69 3.92 65.68 4.92 65.75 5.92C64.4 5.93 63.06 5.96 61.71 5.97C61.57 5.19 61.35 4.40999 61.03 3.67999C61.02 4.43999 61.07 5.21 61.17 5.98C59.71 5.99 58.24 6.02 56.78 6.03C56.64 5.01 56.4 3.99999 56.08 3.00999C55.95 4.01999 55.96 5.03 56.09 6.03C53.79 6.05 51.49 6.07 49.19 6.09C49.04 5.07 48.77 4.06 48.37 3.09C48.28 4.09 48.3 5.1 48.4 6.09C46.26 6.1 44.12 6.11999 41.98 6.12999C41.81 5.25999 41.56 4.41 41.24 3.59C41.16 4.44 41.18 5.29 41.24 6.14C39.34 6.15 37.45 6.16 35.55 6.17C35.42 5.08 35.16 4.00999 34.7 3.00999C34.75 3.88999 34.84 5.06999 34.98 6.17999C33.15 6.18999 31.33 6.2 29.51 6.2C29.51 4.57 29.28 2.93 28.92 1.33C28.56 2.93 28.49 4.57 28.62 6.2C26.95 6.2 25.29 6.21 23.62 6.22C23.57 4.37 23.22 2.52 22.63 0.75C22.42 2.71 22.43 4.47 22.6 6.22C21.4 6.22 20.21 6.23 19.01 6.23C19.01 4.56 18.67 2.88 18.1 1.33C17.93 2.98 17.98 4.61 18.16 6.23C16.43 6.23 14.71 6.23999 12.97 6.23999C13.04 4.12999 12.77 2.03 12.15 0C11.8 2.07 11.8 4.17999 12.15 6.23999C10.18 6.23999 8.22999 6.23999 6.25999 6.23999C5.28999 5.26999 4.19999 4.41 3.01999 3.69C3.87999 5.18 4.95 6.51999 6.17 7.70999C6.26 9.13999 6.28999 10.57 6.25999 11.99C4.97999 11.8 3.67 11.9 2.44 12.32C3.7 12.54 4.99 12.52 6.25 12.31C6.21 13.61 6.13999 14.92 6.01999 16.22C4.96999 16.21 3.92 16.4 2.94 16.85C3.94 16.89 4.95 16.95 5.95 16.97C5.8 18.52 5.61 20.07 5.39 21.62C4.02 21.72 2.66 22.07 1.44 22.71C2.72 22.67 4 22.6 5.28 22.47C5.01 24.3 4.71999 26.13 4.42999 27.96C3.52999 28.05 2.62999 28.26 1.76999 28.58C2.61999 28.7 3.46999 28.72 4.31999 28.64C4.03999 30.43 3.76999 32.21 3.53999 34C2.78999 34.12 2.04999 34.31 1.34999 34.61C2.04999 34.68 2.75999 34.67 3.45999 34.61C3.19999 36.76 2.99999 38.91 2.90999 41.06C1.92999 41.21 0.95 41.42 0 41.74C0.95 41.88 1.91999 41.94 2.87999 41.9C2.87999 42.04 2.87 42.19 2.86 42.33C2.83 44.35 2.89999 46.38 3.00999 48.4C2.04999 48.46 1.1 48.6 0.169998 48.87C1.12 49.08 2.09 49.18 3.06 49.19C3.16 50.91 3.27 52.64 3.36 54.36C2.39 54.43 1.43999 54.6 0.509995 54.9C1.46999 55.06 2.42999 55.12 3.39999 55.08C3.46999 56.67 3.51 58.26 3.48 59.85C3.47 60.42 3.43999 61 3.40999 61.57C2.61999 61.69 1.83999 61.88 1.09999 62.18C1.85999 62.27 2.61999 62.27 3.37999 62.23C3.25999 64.51 3.07999 66.79 3.04999 69.07C2.13999 69.1 1.23 69.22 0.339996 69.47C1.23 69.67 2.12999 69.78 3.03999 69.81C3.03999 70.87 3.09 71.93 3.19 72.99C3.3 74.05 3.48 75.09 3.67 76.14C2.77 76.19 1.87999 76.34 1.00999 76.59C1.92999 76.79 2.87 76.87 3.81 76.82C4.2 78.73 4.64999 80.63 4.98999 82.54C3.98999 82.48 2.97999 82.58 2.00999 82.87C2.98999 83.03 4.06 82.99 5.03 82.78C5.23 83.9 5.38 85.03 5.45 86.17C5.52 87.33 5.5 88.5 5.45 89.67C4.55 89.61 3.63999 89.69 2.75999 89.91C3.61999 90.08 4.56 90.09 5.44 89.98C5.32 92.32 5.08 94.67 5.08 96.98C4.11 96.96 3.13 97.02 2.17 97.19C3.1 97.4 4.1 97.51 5.08 97.51C5.11 99.09 5.26999 100.64 5.67999 102.16C4.87999 102.76 4.13999 103.46 3.50999 104.23C4.30999 103.84 5.10999 103.34 5.87999 102.81C5.89999 102.86 5.91 102.91 5.92 102.96C8.31 103.33 10.71 103.59 13.11 103.76C13.14 104.9 13.27 106.02 13.53 107.08C13.64 105.99 13.69 104.89 13.66 103.8C15.39 103.91 17.12 104 18.85 104.03C18.96 105.48 19.22 106.91 19.65 108.23C19.75 106.82 19.67 105.42 19.47 104.03C21.9 104.06 24.32 104.02 26.75 103.92C26.72 105.19 26.8 106.43 27.05 107.59C27.26 106.37 27.31 105.13 27.2 103.9C28.65 103.84 30.11 103.76 31.56 103.67C31.73 105.12 32.05 106.55 32.53 107.85C32.55 106.43 32.39 105.02 32.11 103.63C33.96 103.5 35.8 103.36 37.65 103.2C37.74 104.44 37.91 105.67 38.22 106.77C38.38 105.56 38.37 104.35 38.22 103.15C40.01 102.99 41.8 102.82 43.59 102.64C43.66 104.21 43.91 105.78 44.36 107.21C44.5 105.66 44.43 104.11 44.19 102.58C45.72 102.43 47.25 102.27 48.77 102.12C48.82 103.81 48.97 105.51 49.36 107.08C49.51 105.42 49.49 103.73 49.22 102.08C50.81 101.92 52.4 101.76 53.99 101.61C53.91 103.55 54.07 105.52 54.53 107.32C54.89 105.41 54.95 103.46 54.69 101.55C56.07 101.42 57.44 101.3 58.82 101.19C58.79 102.98 58.93 104.78 59.32 106.43C59.5 104.67 59.5 102.9 59.33 101.15C60.43 101.06 61.52 100.98 62.62 100.91C62.89 100.89 63.16 100.88 63.42 100.87C63.34 102.93 63.51 105.03 63.95 106.95C64.24 104.92 64.25 102.87 63.98 100.84C65.63 100.75 67.29 100.68 68.95 100.63C69.08 102.69 69.34 104.93 69.7 106.27C70.03 104.39 69.92 102.47 69.5 100.61C70.53 100.58 71.55 100.55 72.58 100.53C72.62 102.67 72.93 104.85 73.69 106.62C73.69 104.58 73.61 102.53 73.25 100.52C75.32 100.5 77.39 100.49 79.46 100.53C79.44 102.91 79.74 105.35 80.4 107.52C80.62 105.18 80.45 102.83 79.92 100.54C81.45 100.57 82.98 100.61 84.5 100.67C84.47 102.97 84.75 105.33 85.35 107.45C85.62 105.18 85.45 102.89 84.88 100.69C86.96 100.78 89.05 100.9 91.13 101.05C91.26 103.2 91.62 105.31 91.95 107.44C92.4 105.35 92.15 103.16 91.6 101.09C94.35 101.3 97.1 101.55 99.84 101.87C99.81 104.18 100.05 106.59 100.69 108.63C100.87 106.38 100.71 104.11 100.21 101.91C101.26 102.03 102.31 102.15 103.36 102.29C103.37 102.16 103.38 102.02 103.39 101.89C104.4 103.69 105.53 105.42 106.85 107C107.08 107.23 107.81 108.42 107.52 107.64C106.84 105.23 105.34 103.16 103.42 101.59C103.58 99.89 103.72 98.19 103.84 96.49C105.88 96.73 107.97 96.77 109.3 96.78Z" fill="#4E598C"/>
<path d="M32.0403 34.9601C32.4203 47.2401 32.8003 59.5301 33.1803 71.8101C33.2003 72.4301 33.2204 73.0701 33.4704 73.6401C33.8704 74.5501 34.7803 75.1101 35.6703 75.5601C42.9303 79.2501 51.5103 78.9101 59.6403 78.4801C63.6103 78.2701 75.9003 77.7601 78.1703 74.5001C80.2903 71.4501 79.4903 65.8301 78.6103 62.2301C76.9603 55.4901 79.5503 47.5101 77.9003 40.7701C77.1503 37.7301 77.0604 35.2702 74.7904 33.1102C71.7204 30.1902 54.2603 32.0801 50.0203 32.1301C46.5503 32.1801 43.0903 32.2201 39.6203 32.2701C36.9003 32.3101 32.8203 30.6701 31.7403 33.8901C31.6403 34.6101 31.5403 35.3301 32.0403 34.9601Z" fill="#34394C"/>
<path d="M59.1502 51.6201C64.7302 56.2401 70.3202 60.8601 75.9002 65.4801C80.1602 69.0001 84.4302 72.5401 88.0902 76.6801C81.9102 75.4801 75.7302 74.2801 69.5402 73.0801C71.0902 77.1201 71.6702 81.5401 71.2002 85.8401C66.4202 80.6201 63.7902 73.8201 61.4602 67.1401C59.6702 61.9901 57.9802 56.7901 59.1502 51.6201Z" fill="#FEF9EF"/>
<path d="M55.5302 55.9001C50.0502 63.3901 45.0702 71.2401 40.6502 79.4001C38.1502 84.0201 35.5702 89.0102 30.9602 91.5402C30.7602 84.6402 31.1602 77.7302 32.1702 70.9102C30.9502 72.8802 28.3802 73.6801 26.0902 73.3501C23.8002 73.0201 21.7602 71.7602 19.9102 70.3602C20.1802 68.6202 21.7602 67.4301 23.2402 66.4801C32.3102 60.6401 42.3702 56.3701 55.5302 55.9001Z" fill="#FEF9EF"/>
<path d="M54.7001 49.9802C63.8901 40.8502 72.1201 30.7602 79.2201 19.9202C79.2001 25.6002 78.5201 31.2802 77.1901 36.8002C80.9901 35.1002 85.4701 34.9802 89.3701 36.4702C89.5301 37.5902 88.4901 38.4902 87.5401 39.1102C81.4901 43.0902 74.7001 45.7702 67.9701 48.4202C63.4201 50.2102 58.6201 52.0302 53.7801 51.3302C53.9601 50.2602 53.2601 49.1002 54.7001 49.9802Z" fill="#FEF9EF"/>
<path d="M51.2701 51.62C41.4001 44.95 32.4201 36.99 24.6201 27.99C29.7001 27.17 35.0401 28.07 39.5601 30.52C38.9901 26.81 39.8701 22.9 41.9801 19.8C47.2601 30.29 50.6101 41.75 51.2701 51.62Z" fill="#FEF9EF"/>
<path d="M50.0903 49.5401C51.1303 52.5801 51.6003 55.8201 51.4503 59.0301C53.4003 56.3001 57.8803 55.9001 60.2803 58.2501C61.7503 57.7001 62.2503 55.8001 61.9403 54.2601C61.6303 52.7201 60.7603 51.3601 60.2903 49.8601C60.1603 49.4301 60.0403 48.9601 59.6903 48.6801C59.3803 48.4301 58.9703 48.3801 58.5703 48.3601C55.9703 48.2301 53.3103 49.0101 50.0903 49.5401Z" fill="#FEF9EF"/>
<path d="M49.5601 30.01C49.7101 31.87 49.9901 33.82 50.5901 35.54C50.5801 33.65 50.3101 31.75 49.5601 30.01Z" fill="#34394C"/>
<path d="M52.6602 29.51C52.8102 31.26 53.2502 33.16 53.8802 34.69C53.6502 32.93 53.2402 31.2 52.6602 29.51Z" fill="#34394C"/>
<path d="M56.04 29.9402C56.24 31.2402 56.71 32.5702 57.3 33.7002C57.01 32.4002 56.58 31.1502 56.04 29.9402Z" fill="#34394C"/>
<path d="M58.79 29.9402C58.87 31.3402 59.18 32.8802 59.63 34.1302C59.56 32.7002 59.28 31.2802 58.79 29.9402Z" fill="#34394C"/>
<path d="M61.75 29.9402C61.76 30.8002 61.91 31.8202 62.21 32.5502C62.13 31.6402 62.02 30.8302 61.75 29.9402Z" fill="#34394C"/>
<path d="M64.4902 30.01C64.4902 31.29 64.6802 32.65 64.9802 33.84C65.0902 32.54 64.9202 31.24 64.4902 30.01Z" fill="#34394C"/>
<path d="M67.1699 29.5801C67.0599 30.7601 67.1799 32.0401 67.4899 33.1401C67.5599 31.9501 67.4499 30.7501 67.1699 29.5801Z" fill="#34394C"/>
<path d="M77.6602 46.5601C79.2002 46.0201 81.1901 46.4001 82.6501 46.0601C81.0601 45.8301 79.1002 45.5101 77.6602 46.5601Z" fill="#34394C"/>
<path d="M76.6802 49.87C78.5202 49.98 80.4802 49.81 82.2202 49.33C80.3502 49.21 78.4802 49.37 76.6802 49.87Z" fill="#34394C"/>
<path d="M76.8901 53.4601C78.0801 53.6501 79.3902 53.6001 80.5102 53.3301C79.3002 53.1701 78.0801 53.2201 76.8901 53.4601Z" fill="#34394C"/>
<path d="M77.1699 56.7001C78.3699 56.9201 79.6899 56.8001 80.8199 56.5201C79.5999 56.4301 78.3799 56.5401 77.1699 56.7001Z" fill="#34394C"/>
<path d="M76.8203 59.7301C77.3803 59.7301 78.0003 59.6501 78.5003 59.5101C77.9303 59.5001 77.3703 59.5801 76.8203 59.7301Z" fill="#34394C"/>
<path d="M77.3101 59.8001C78.2301 59.8701 79.3401 59.8601 80.1501 59.6201C79.2101 59.5001 78.2301 59.5101 77.3101 59.8001Z" fill="#34394C"/>
<path d="M77.6602 63.4602C78.9202 63.4202 80.1902 63.2002 81.3802 62.8702C80.1102 62.7402 78.8402 62.9602 77.6602 63.4602Z" fill="#34394C"/>
<path d="M78.4399 65.7902C79.6299 66.0002 80.9899 66.0102 82.0999 65.7902C80.8899 65.5802 79.6499 65.5702 78.4399 65.7902Z" fill="#34394C"/>
<path d="M72.3799 76.4202C72.7699 77.4302 73.5399 79.0602 74.2199 79.5202C73.6599 78.4602 73.1699 77.3502 72.3799 76.4202Z" fill="#34394C"/>
<path d="M74.6401 75.79C75.6001 76.69 76.7602 77.7 77.7902 78.34C76.9202 77.28 75.8701 76.38 74.6401 75.79Z" fill="#34394C"/>
<path d="M62.6602 76.9202C63.0202 78.1302 63.3101 80.6702 63.7001 81.2302C63.7401 79.7302 63.5202 78.1802 62.6602 76.9202Z" fill="#34394C"/>
<path d="M58.8604 76.78C59.0004 78.15 59.3204 80.09 59.4304 81.17C59.8204 79.7 59.4704 78.13 58.8604 76.78Z" fill="#34394C"/>
<path d="M55.8299 77.2002C55.7599 78.3702 55.6799 80.7302 55.9299 81.2902C56.1599 79.9402 56.1699 78.5302 55.8299 77.2002Z" fill="#34394C"/>
<path d="M52.0301 77.6201C51.8101 78.9301 51.7901 80.4201 51.9701 81.6501C52.1601 80.3201 52.1801 78.9601 52.0301 77.6201Z" fill="#34394C"/>
<path d="M49.3503 77.3401C49.0503 78.8901 49.1203 80.4601 49.1903 82.0201C49.5603 80.5001 49.4903 78.8901 49.3503 77.3401Z" fill="#34394C"/>
<path d="M46.3999 80.64C46.7599 79.62 46.9799 78.56 47.0199 77.48C46.7099 78.49 46.4699 79.64 46.3999 80.64Z" fill="#34394C"/>
<path d="M44.5802 78.5602C44.8502 78.0302 45.0902 77.4902 45.2702 76.9202C45.0402 77.2802 44.8302 77.6902 44.6502 78.1102C44.6802 77.9002 44.6902 77.6902 44.7002 77.4902C44.5702 77.9202 44.4702 78.3602 44.4002 78.8002C44.3702 78.9002 44.3302 79.0002 44.3102 79.0902C44.3302 79.0502 44.3502 79.0102 44.3702 78.9802C44.3302 79.2002 44.2903 79.4202 44.2603 79.6502C44.4003 79.2902 44.5002 78.9302 44.5802 78.5602Z" fill="#34394C"/>
<path d="M41.75 79.97C42.59 78.78 43.23 77.45 43.43 76C42.86 77.29 42.18 78.71 41.75 79.97Z" fill="#34394C"/>
<path d="M31.3901 60.0102C32.3601 60.2202 33.4801 60.2202 34.4101 60.1302C33.4101 59.9402 32.4001 59.9502 31.3901 60.0102Z" fill="#34394C"/>
<path d="M31.1104 56.0001C32.1604 56.1401 33.3603 56.0801 34.3403 55.8801C33.2603 55.7601 32.1704 55.8201 31.1104 56.0001Z" fill="#34394C"/>
<path d="M30.3999 53.1802C31.9199 53.2202 33.5099 53.0202 34.8899 52.4402C33.3699 52.5102 31.8499 52.7002 30.3999 53.1802Z" fill="#34394C"/>
<path d="M30.75 50.3601C32.47 50.3401 34.25 49.8901 35.74 49.1201C34.02 49.2601 32.34 49.6701 30.75 50.3601Z" fill="#34394C"/>
<path d="M30.8901 48.11C32.3301 48 33.8101 47.63 35.0701 47C33.6401 47.22 32.2401 47.56 30.8901 48.11Z" fill="#34394C"/>
<path d="M30.54 45.5701C31.84 45.5801 33.19 45.3402 34.38 44.9102C33.07 44.9302 31.78 45.1701 30.54 45.5701Z" fill="#34394C"/>
<path d="M30.6104 42.7601C31.6904 42.8801 33.8203 42.54 34.3003 42.21C33.0503 42.18 31.8204 42.4501 30.6104 42.7601Z" fill="#34394C"/>
<path d="M30.1899 40.08C31.2399 40.11 32.3799 39.95 33.3499 39.65C32.2699 39.55 31.1999 39.7 30.1899 40.08Z" fill="#34394C"/>
</svg>
