<svg width="113" height="109" viewBox="0 0 113 109" fill="none" xmlns="http://www.w3.org/2000/svg">
<path d="M109.3 96.78C107.61 95.99 105.77 95.83 103.93 95.87C104.02 94.54 104.11 93.21 104.18 91.87C106.81 92.22 109.46 91.95 112.12 91.81C109.68 90.67 106.88 90.7 104.22 91.13C104.31 89.29 104.39 87.45 104.44 85.61C106.45 86.07 108.53 85.88 110.57 85.6C108.63 84.87 106.5 84.91 104.45 85.16C104.49 83.63 104.53 82.09 104.56 80.56C106.63 80.69 108.7 80.32 110.73 79.86C108.73 79.29 106.61 79.41 104.57 79.81C104.6 77.37 104.61 74.92 104.6 72.48C106.3 72.6 108.01 72.56 109.84 72.35C108.17 71.68 106.37 71.47 104.59 71.63C104.58 69.72 104.56 67.81 104.53 65.9C106.25 66.07 108 65.97 109.73 65.8C108.08 65.1 106.29 64.93 104.52 65.07C104.48 62.97 104.44 60.87 104.38 58.77C106.13 58.88 107.9 58.71 109.65 58.6C107.98 57.96 106.16 57.92 104.36 58.05C104.32 56.59 104.28 55.12 104.24 53.66C105.87 53.79 107.56 53.76 108.49 53.46C107.12 53.01 105.66 52.84 104.22 52.9C104.15 50.53 104.07 48.17 104 45.8C105.48 46.04 107 45.99 108.48 45.72C107.02 45.24 105.5 45.08 103.98 45.14C103.9 42.58 103.82 40.02 103.75 37.47C104.92 37.64 106.13 37.51 107.28 37.21C106.05 36.91 104.87 36.91 103.74 37.04C103.7 35.43 103.66 33.81 103.62 32.2C105.3 32.28 106.93 32.16 108.51 31.85C106.93 31.37 105.24 31.26 103.6 31.51C103.55 29.05 103.51 26.59 103.48 24.14C106.16 24.62 108.91 24.43 111.6 23.93C108.9 23.06 106.12 23.06 103.48 23.42C103.47 21.71 103.46 20 103.47 18.29C105.13 18.43 106.8 18.27 108.45 17.95C106.84 17.45 105.15 17.34 103.48 17.48C103.5 13.55 103.59 9.62 103.75 5.69C105.28 4.93 106.67 3.92001 107.85 2.67001C107.91 2.62001 107.95 2.57001 107.97 2.53001C108.09 2.44001 108.14 2.33 107.97 2.22C106.16 2.85 104.56 4.01001 103.17 5.35001C102.2 5.37001 101.22 5.39001 100.25 5.40001C100.16 4.81001 100 4.23001 99.75 3.68001C99.74 4.26001 99.74 4.83 99.75 5.41C98.68 5.43 97.62 5.45 96.55 5.47C96.38 4.87 96.14 4.3 95.81 3.77C95.87 4.34 95.93 4.91001 96.01 5.48001C94.95 5.50001 93.88 5.52001 92.82 5.54001C92.7 4.79001 92.51 4.05001 92.21 3.35001C92.18 4.09001 92.21 4.82 92.27 5.55C91.37 5.56 90.48 5.58001 89.58 5.60001C89.43 4.80001 89.19 4.02 88.86 3.27C88.81 4.05 88.85 4.84 88.97 5.61C87.63 5.63 86.29 5.65001 84.94 5.67001C84.81 5.04001 84.63 4.43001 84.33 3.85001C84.34 4.46001 84.38 5.07001 84.44 5.67001C83.16 5.69001 81.88 5.71001 80.61 5.73001C80.53 5.18001 80.43 4.64001 80.31 4.10001C80.19 4.63001 80.16 5.18001 80.16 5.73001C78.84 5.75001 77.52 5.77001 76.2 5.79001C76.04 5.15001 75.81 4.53001 75.53 3.93001C75.53 4.56001 75.59 5.18001 75.67 5.79001C74.24 5.81001 72.8 5.83001 71.37 5.85001C71.19 5.19001 70.97 4.55001 70.67 3.93001C70.66 4.58001 70.69 5.22 70.76 5.86C69.32 5.88 67.89 5.9 66.45 5.91C66.33 4.9 66.13 3.90001 65.81 2.92001C65.69 3.92001 65.68 4.92001 65.75 5.92001C64.4 5.93001 63.06 5.96 61.71 5.97C61.57 5.19 61.35 4.41001 61.03 3.68001C61.02 4.44001 61.07 5.21001 61.17 5.98001C59.71 5.99001 58.24 6.02001 56.78 6.03001C56.64 5.01001 56.4 4.00001 56.08 3.01001C55.95 4.02001 55.96 5.03001 56.09 6.03001C53.79 6.05001 51.49 6.07001 49.19 6.09001C49.04 5.07001 48.77 4.06001 48.37 3.09001C48.28 4.09001 48.3 5.10001 48.4 6.09001C46.26 6.10001 44.12 6.12 41.98 6.13C41.81 5.26 41.56 4.41001 41.24 3.59001C41.16 4.44001 41.18 5.29 41.24 6.14C39.34 6.15 37.45 6.16001 35.55 6.17001C35.42 5.08001 35.16 4.01001 34.7 3.01001C34.75 3.89001 34.84 5.07001 34.98 6.18001C33.15 6.19001 31.33 6.20001 29.51 6.20001C29.51 4.57001 29.28 2.93 28.92 1.33C28.56 2.93 28.49 4.57001 28.62 6.20001C26.95 6.20001 25.29 6.21 23.62 6.22C23.57 4.37 23.22 2.52 22.63 0.75C22.42 2.71 22.43 4.47 22.6 6.22C21.4 6.22 20.21 6.23001 19.01 6.23001C19.01 4.56001 18.67 2.88 18.1 1.33C17.93 2.98 17.98 4.61001 18.16 6.23001C16.43 6.23001 14.71 6.24001 12.97 6.24001C13.04 4.13001 12.77 2.03 12.15 0C11.8 2.07 11.8 4.18001 12.15 6.24001C10.18 6.24001 8.23 6.24001 6.26 6.24001C5.29 5.27001 4.2 4.41 3.02 3.69C3.88 5.18 4.95001 6.52001 6.17001 7.71001C6.26001 9.14001 6.29 10.57 6.26 11.99C4.98 11.8 3.67 11.9 2.44 12.32C3.7 12.54 4.99 12.52 6.25 12.31C6.21 13.61 6.14 14.92 6.02 16.22C4.97 16.21 3.92 16.4 2.94 16.85C3.94 16.89 4.95 16.95 5.95 16.97C5.8 18.52 5.61001 20.07 5.39001 21.62C4.02001 21.72 2.66 22.07 1.44 22.71C2.72 22.67 4.00001 22.6 5.28001 22.47C5.01001 24.3 4.72 26.13 4.43 27.96C3.53 28.05 2.63 28.26 1.77 28.58C2.62 28.7 3.47 28.72 4.32 28.64C4.04 30.43 3.77 32.21 3.54 34C2.79 34.12 2.05001 34.31 1.35001 34.61C2.05001 34.68 2.76001 34.67 3.46001 34.61C3.20001 36.76 3 38.91 2.91 41.06C1.93 41.21 0.95 41.42 0 41.74C0.95 41.88 1.92 41.94 2.88 41.9C2.88 42.04 2.87 42.19 2.86 42.33C2.83 44.35 2.9 46.38 3.01 48.4C2.05 48.46 1.10001 48.6 0.170006 48.87C1.12001 49.08 2.09001 49.18 3.06001 49.19C3.16001 50.91 3.27 52.64 3.36 54.36C2.39 54.43 1.44 54.6 0.510002 54.9C1.47 55.06 2.43 55.12 3.4 55.08C3.47 56.67 3.51 58.26 3.48 59.85C3.47 60.42 3.44 61 3.41 61.57C2.62 61.69 1.84001 61.88 1.10001 62.18C1.86001 62.27 2.62 62.27 3.38 62.23C3.26 64.51 3.08 66.79 3.05 69.07C2.14 69.1 1.23 69.22 0.340004 69.47C1.23 69.67 2.13 69.78 3.04 69.81C3.04 70.87 3.09 71.93 3.19 72.99C3.3 74.05 3.48001 75.09 3.67001 76.14C2.77001 76.19 1.88 76.34 1.01 76.59C1.93 76.79 2.87001 76.87 3.81001 76.82C4.20001 78.73 4.65001 80.63 4.99001 82.54C3.99001 82.48 2.98 82.58 2.01 82.87C2.99 83.03 4.06001 82.99 5.03001 82.78C5.23001 83.9 5.38 85.03 5.45 86.17C5.52 87.33 5.5 88.5 5.45 89.67C4.55 89.61 3.64 89.69 2.76 89.91C3.62 90.08 4.56 90.09 5.44 89.98C5.32 92.32 5.08 94.67 5.08 96.98C4.11 96.96 3.13001 97.02 2.17001 97.19C3.10001 97.4 4.1 97.51 5.08 97.51C5.11 99.09 5.27 100.64 5.68 102.16C4.88 102.76 4.14 103.46 3.51 104.23C4.31 103.84 5.11 103.34 5.88 102.81C5.9 102.86 5.91001 102.91 5.92001 102.96C8.31001 103.33 10.71 103.59 13.11 103.76C13.14 104.9 13.27 106.02 13.53 107.08C13.64 105.99 13.69 104.89 13.66 103.8C15.39 103.91 17.12 104 18.85 104.03C18.96 105.48 19.22 106.91 19.65 108.23C19.75 106.82 19.67 105.42 19.47 104.03C21.9 104.06 24.32 104.02 26.75 103.92C26.72 105.19 26.8 106.43 27.05 107.59C27.26 106.37 27.31 105.13 27.2 103.9C28.65 103.84 30.11 103.76 31.56 103.67C31.73 105.12 32.05 106.55 32.53 107.85C32.55 106.43 32.39 105.02 32.11 103.63C33.96 103.5 35.8 103.36 37.65 103.2C37.74 104.44 37.91 105.67 38.22 106.77C38.38 105.56 38.37 104.35 38.22 103.15C40.01 102.99 41.8 102.82 43.59 102.64C43.66 104.21 43.91 105.78 44.36 107.21C44.5 105.66 44.43 104.11 44.19 102.58C45.72 102.43 47.25 102.27 48.77 102.12C48.82 103.81 48.97 105.51 49.36 107.08C49.51 105.42 49.49 103.73 49.22 102.08C50.81 101.92 52.4 101.76 53.99 101.61C53.91 103.55 54.07 105.52 54.53 107.32C54.89 105.41 54.95 103.46 54.69 101.55C56.07 101.42 57.44 101.3 58.82 101.19C58.79 102.98 58.93 104.78 59.32 106.43C59.5 104.67 59.5 102.9 59.33 101.15C60.43 101.06 61.52 100.98 62.62 100.91C62.89 100.89 63.16 100.88 63.42 100.87C63.34 102.93 63.51 105.03 63.95 106.95C64.24 104.92 64.25 102.87 63.98 100.84C65.63 100.75 67.29 100.68 68.95 100.63C69.08 102.69 69.34 104.93 69.7 106.27C70.03 104.39 69.92 102.47 69.5 100.61C70.53 100.58 71.55 100.55 72.58 100.53C72.62 102.67 72.93 104.85 73.69 106.62C73.69 104.58 73.61 102.53 73.25 100.52C75.32 100.5 77.39 100.49 79.46 100.53C79.44 102.91 79.74 105.35 80.4 107.52C80.62 105.18 80.45 102.83 79.92 100.54C81.45 100.57 82.98 100.61 84.5 100.67C84.47 102.97 84.75 105.33 85.35 107.45C85.62 105.18 85.45 102.89 84.88 100.69C86.96 100.78 89.05 100.9 91.13 101.05C91.26 103.2 91.62 105.31 91.95 107.44C92.4 105.35 92.15 103.16 91.6 101.09C94.35 101.3 97.1 101.55 99.84 101.87C99.81 104.18 100.05 106.59 100.69 108.63C100.87 106.38 100.71 104.11 100.21 101.91C101.26 102.03 102.31 102.15 103.36 102.29C103.37 102.16 103.38 102.02 103.39 101.89C104.4 103.69 105.53 105.42 106.85 107C107.08 107.23 107.81 108.42 107.52 107.64C106.84 105.23 105.34 103.16 103.42 101.59C103.58 99.89 103.72 98.19 103.84 96.49C105.87 96.73 107.96 96.77 109.3 96.78Z" fill="#821800"/>
<path d="M103.52 13.5899C105.82 14.0699 108.64 13.9699 110.68 13.4199C108.35 12.7499 105.83 12.8899 103.52 13.5899Z" fill="#821800"/>
<path d="M38.5899 82.2599C44.2299 63.6299 49.8699 45.0099 55.4999 26.3799C58.6399 44.5599 63.4499 62.4499 69.8599 79.7499C62.1399 75.4899 56.8499 67.8999 49.7299 62.6899C42.4199 57.3299 33.1799 54.4899 27.1499 47.7299C45.8299 46.8699 64.4999 46.0099 83.1799 45.1499C79.8199 50.6699 73.9399 54.0499 68.5099 57.5399C57.9299 64.3199 48.1799 72.3899 38.5899 82.2599Z" fill="#C62D0A"/>
</svg>
