<svg width="259" height="259" viewBox="0 0 259 259" fill="none" xmlns="http://www.w3.org/2000/svg">
<path d="M252.486 230.747C248.582 228.863 244.331 228.482 240.081 228.577C240.289 225.406 240.497 222.235 240.658 219.04C246.734 219.875 252.855 219.231 259 218.897C253.364 216.179 246.895 216.251 240.751 217.276C240.959 212.889 241.144 208.502 241.259 204.115C245.902 205.211 250.707 204.759 255.419 204.091C250.938 202.35 246.018 202.446 241.282 203.042C241.374 199.394 241.467 195.722 241.536 192.074C246.318 192.384 251.1 191.502 255.789 190.405C251.169 189.046 246.272 189.332 241.559 190.286C241.629 184.469 241.652 178.627 241.629 172.81C245.556 173.096 249.506 173 253.733 172.5C249.875 170.902 245.717 170.402 241.605 170.783C241.582 166.229 241.536 161.675 241.467 157.121C245.44 157.527 249.483 157.288 253.479 156.883C249.667 155.214 245.533 154.809 241.444 155.143C241.351 150.136 241.259 145.129 241.12 140.122C245.163 140.384 249.252 139.979 253.294 139.716C249.436 138.191 245.232 138.095 241.074 138.405C240.982 134.924 240.889 131.419 240.797 127.938C244.562 128.248 248.466 128.177 250.615 127.461C247.45 126.389 244.077 125.983 240.751 126.126C240.589 120.476 240.404 114.849 240.243 109.198C243.661 109.77 247.173 109.651 250.592 109.007C247.219 107.863 243.708 107.481 240.196 107.625C240.012 101.521 239.827 95.4173 239.665 89.3375C242.368 89.7428 245.163 89.4328 247.819 88.7175C244.978 88.0023 242.252 88.0023 239.642 88.3123C239.55 84.4736 239.457 80.6111 239.365 76.7725C243.246 76.9632 247.011 76.6772 250.661 75.9381C247.011 74.7936 243.107 74.5314 239.319 75.1274C239.203 69.2622 239.111 63.3969 239.041 57.5555C245.232 58.6999 251.585 58.247 257.799 57.0548C251.562 54.9806 245.14 54.9805 239.041 55.8389C239.018 51.7618 238.995 47.6848 239.018 43.6078C242.853 43.9416 246.711 43.56 250.522 42.7971C246.803 41.6049 242.899 41.3427 239.041 41.6765C239.088 32.3065 239.295 22.9364 239.665 13.5663C243.199 11.7543 246.41 9.34618 249.136 6.36588C249.275 6.24667 249.367 6.12749 249.413 6.03212C249.691 5.81754 249.806 5.55528 249.413 5.29302C245.232 6.79509 241.536 9.56082 238.325 12.7557C236.085 12.8034 233.821 12.851 231.58 12.8749C231.372 11.4682 231.003 10.0853 230.425 8.77399C230.402 10.1568 230.402 11.5159 230.425 12.8987C227.953 12.9464 225.505 12.9941 223.033 13.0418C222.64 11.6113 222.086 10.2522 221.323 8.98856C221.462 10.3476 221.601 11.7066 221.785 13.0657C219.337 13.1133 216.865 13.161 214.417 13.2087C214.139 11.4205 213.7 9.65619 213.007 7.98722C212.938 9.75156 213.007 11.492 213.146 13.2325C211.067 13.2563 209.011 13.3041 206.932 13.3518C206.586 11.4444 206.031 9.58462 205.269 7.79644C205.153 9.65615 205.246 11.5397 205.523 13.3756C202.427 13.4232 199.332 13.4709 196.214 13.5186C195.913 12.0165 195.497 10.5622 194.804 9.17934C194.828 10.6337 194.92 12.0881 195.059 13.5186C192.102 13.5663 189.145 13.614 186.211 13.6617C186.026 12.3504 185.795 11.0629 185.518 9.7754C185.241 11.039 185.172 12.3504 185.172 13.6617C182.122 13.7094 179.073 13.7571 176.024 13.8048C175.654 12.2789 175.123 10.8006 174.476 9.37005C174.476 10.8721 174.615 12.3504 174.8 13.8048C171.496 13.8525 168.17 13.9001 164.866 13.9478C164.451 12.3742 163.942 10.8483 163.249 9.37005C163.226 10.9198 163.296 12.4457 163.457 13.9716C160.131 14.0193 156.828 14.067 153.501 14.0909C153.224 11.6828 152.762 9.2985 152.023 6.96194C151.746 9.34618 151.722 11.7304 151.884 14.1147C148.766 14.1385 145.67 14.2101 142.552 14.2339C142.228 12.3742 141.72 10.5145 140.981 8.77399C140.958 10.586 141.073 12.4219 141.304 14.2578C137.932 14.2816 134.536 14.3531 131.163 14.377C130.84 11.945 130.285 9.53698 129.546 7.17659C129.246 9.58467 129.269 11.9927 129.569 14.377C124.256 14.4246 118.943 14.4723 113.63 14.52C113.284 12.0881 112.66 9.68001 111.736 7.36729C111.528 9.75153 111.574 12.1596 111.805 14.52C106.862 14.5439 101.918 14.5916 96.9748 14.6154C96.5821 12.5411 96.0046 10.5145 95.2654 8.55941C95.0806 10.586 95.1268 12.6126 95.2654 14.6392C90.8764 14.663 86.5104 14.6869 82.1214 14.7107C81.8211 12.1119 81.2205 9.56083 80.1579 7.17659C80.2734 9.27472 80.4813 12.0881 80.8047 14.7346C76.5773 14.7584 72.3731 14.7822 68.1688 14.7822C68.1688 10.8959 67.6375 6.98579 66.8059 3.17101C65.9743 6.98579 65.8126 10.8959 66.1129 14.7822C62.2552 14.7822 58.4205 14.8061 54.5628 14.83C54.4473 10.4191 53.6388 6.00828 52.2759 1.78818C51.7908 6.46129 51.8139 10.6576 52.2066 14.83C49.4345 14.83 46.6856 14.8538 43.9136 14.8538C43.9136 10.8722 43.1282 6.86658 41.8114 3.17101C41.4187 7.105 41.5342 10.9914 41.95 14.8538C37.9537 14.8538 33.9805 14.8776 29.961 14.8776C30.1227 9.84689 29.499 4.84001 28.0668 0C27.2583 4.93538 27.2583 9.9661 28.0668 14.8776C23.516 14.8776 19.0115 14.8776 14.4607 14.8776C12.22 12.5649 9.7021 10.5145 6.97627 8.79785C8.96289 12.3504 11.4346 15.5452 14.2528 18.3825C14.4608 21.7919 14.53 25.2014 14.4607 28.587C11.5039 28.134 8.47778 28.3725 5.63645 29.3739C8.54708 29.8984 11.527 29.8507 14.4377 29.35C14.3453 32.4495 14.1835 35.5729 13.9063 38.6724C11.4808 38.6485 9.05529 39.1015 6.79146 40.1745C9.10149 40.2698 11.4346 40.4129 13.7446 40.4606C13.3981 44.1561 12.9592 47.8517 12.451 51.5473C9.2863 51.7857 6.14465 52.6202 3.32642 54.1461C6.28326 54.0507 9.2401 53.8838 12.1969 53.5739C11.5732 57.937 10.9033 62.3002 10.2334 66.6633C8.15437 66.8779 6.07536 67.3786 4.08874 68.1415C6.05226 68.4277 8.01579 68.4753 9.97931 68.2846C9.3325 72.5524 8.70878 76.7964 8.17747 81.0642C6.44495 81.3503 4.73555 81.8032 3.11853 82.5185C4.73555 82.6854 6.37567 82.6616 7.99268 82.5185C7.39208 87.6446 6.93007 92.7708 6.72216 97.8969C4.45834 98.2545 2.19452 98.7552 0 99.5182C2.19452 99.8519 4.43524 99.995 6.65287 99.8996C6.65287 100.233 6.62976 100.591 6.60666 100.925C6.53735 105.741 6.69906 110.581 6.95316 115.397C4.73554 115.54 2.54102 115.874 0.3927 116.518C2.58722 117.018 4.82795 117.257 7.06867 117.281C7.29967 121.382 7.55377 125.506 7.76167 129.607C5.52094 129.774 3.32642 130.179 1.1781 130.895C3.39572 131.276 5.61335 131.419 7.85407 131.324C8.01577 135.115 8.10818 138.906 8.03888 142.697C8.01578 144.056 7.94648 145.439 7.87718 146.798C6.05226 147.084 4.25044 147.537 2.54102 148.252C4.29664 148.467 6.05226 148.467 7.80788 148.371C7.53067 153.807 7.11487 159.243 7.04557 164.679C4.94344 164.751 2.84132 165.037 0.7854 165.633C2.84132 166.11 4.92034 166.372 7.02246 166.444C7.02246 168.971 7.13797 171.498 7.36897 174.026C7.62307 176.553 8.03888 179.033 8.47779 181.536C6.39877 181.655 4.34283 182.013 2.33311 182.609C4.45834 183.086 6.62977 183.277 8.80119 183.157C9.7021 187.711 10.7416 192.241 11.527 196.795C9.21699 196.652 6.88386 196.891 4.64314 197.582C6.90696 197.963 9.3787 197.868 11.6194 197.367C12.0814 200.038 12.4279 202.732 12.5896 205.45C12.7513 208.216 12.7051 211.005 12.5896 213.795C10.5106 213.652 8.40848 213.842 6.37566 214.367C8.36228 214.772 10.5337 214.796 12.5665 214.534C12.2893 220.113 11.7349 225.716 11.7349 231.224C9.49419 231.176 7.23037 231.319 5.01275 231.724C7.16107 232.225 9.47109 232.487 11.7349 232.487C11.8042 236.254 12.1738 239.95 13.1209 243.574C11.2729 245.005 9.56349 246.673 8.10818 248.509C9.95619 247.579 11.8042 246.387 13.5829 245.124C13.6291 245.243 13.6522 245.362 13.6753 245.481C19.1963 246.363 24.7404 246.983 30.2844 247.389C30.3537 250.107 30.654 252.777 31.2546 255.304C31.5087 252.706 31.6242 250.083 31.5549 247.484C35.5513 247.746 39.5476 247.961 43.544 248.032C43.7981 251.49 44.3987 254.899 45.392 258.046C45.623 254.685 45.4382 251.347 44.9762 248.032C50.5895 248.104 56.1798 248.009 61.7932 247.77C61.7239 250.798 61.9087 253.755 62.4862 256.52C62.9713 253.612 63.0868 250.655 62.8327 247.723C66.1822 247.579 69.5548 247.389 72.9044 247.174C73.2971 250.631 74.0363 254.041 75.1451 257.14C75.1913 253.755 74.8217 250.393 74.1749 247.079C78.4484 246.769 82.6989 246.435 86.9724 246.054C87.1803 249.01 87.573 251.943 88.2891 254.565C88.6587 251.68 88.6356 248.795 88.2891 245.934C92.4241 245.553 96.559 245.148 100.694 244.718C100.856 248.462 101.433 252.205 102.473 255.614C102.796 251.919 102.634 248.223 102.08 244.575C105.614 244.218 109.149 243.836 112.66 243.479C112.775 247.508 113.122 251.561 114.023 255.304C114.369 251.347 114.323 247.317 113.699 243.383C117.372 243.002 121.045 242.62 124.718 242.263C124.533 246.888 124.903 251.585 125.966 255.877C126.797 251.323 126.936 246.673 126.335 242.12C129.523 241.81 132.688 241.524 135.876 241.261C135.806 245.529 136.13 249.821 137.031 253.755C137.446 249.558 137.446 245.338 137.054 241.166C139.595 240.951 142.113 240.761 144.654 240.594C145.277 240.546 145.901 240.522 146.502 240.498C146.317 245.41 146.71 250.417 147.726 254.994C148.396 250.154 148.419 245.267 147.795 240.427C151.607 240.212 155.442 240.045 159.276 239.926C159.577 244.838 160.177 250.178 161.009 253.373C161.771 248.891 161.517 244.313 160.547 239.878C162.926 239.807 165.282 239.735 167.662 239.688C167.754 244.79 168.47 249.988 170.226 254.208C170.226 249.344 170.041 244.456 169.209 239.664C173.991 239.616 178.773 239.592 183.555 239.688C183.508 245.362 184.201 251.18 185.726 256.353C186.234 250.774 185.842 245.171 184.617 239.712C188.152 239.783 191.686 239.878 195.197 240.021C195.128 245.505 195.775 251.132 197.161 256.187C197.784 250.774 197.392 245.314 196.075 240.069C200.88 240.284 205.708 240.57 210.513 240.927C210.813 246.054 211.644 251.084 212.407 256.163C213.446 251.18 212.869 245.958 211.598 241.023C217.951 241.523 224.303 242.12 230.633 242.883C230.564 248.39 231.118 254.136 232.596 259C233.012 253.635 232.643 248.223 231.488 242.978C233.913 243.264 236.339 243.55 238.764 243.884C238.787 243.574 238.81 243.24 238.833 242.93C241.167 247.222 243.777 251.347 246.826 255.114C247.357 255.662 249.044 258.499 248.374 256.64C246.803 250.894 243.338 245.958 238.903 242.215C239.272 238.162 239.596 234.108 239.873 230.055C244.585 230.628 249.413 230.723 252.486 230.747Z" fill="#BAB9B9"/>
<path d="M94.0518 66.0483C94.0518 66.0631 94.0518 66.8165 94.1415 68.4249C94.244 70.263 94.6359 73.2038 94.8621 77.648C94.9882 80.1232 95.3782 83.0282 95.5431 85.415C95.9559 91.3876 96.4376 97.2839 97.2653 103.219C97.8877 107.682 98.5967 112.152 99.6028 116.54C101.97 126.864 111.411 134.319 121.325 134.43C127.585 134.5 134.527 133.124 139.561 129.055C147.752 122.435 149.706 108.061 151.958 97.9556C152.85 93.9506 153.208 89.403 153.326 85.3042C153.457 80.7225 153.38 76.5999 152.968 72.048C152.744 69.5676 152.648 67.2654 152.259 65.3986C151.629 62.1715 151.199 60.7762 151.018 60.4123C150.921 60.2366 150.815 60.0794 150.366 59.5396" stroke="#FEF9EF" stroke-width="2" stroke-linecap="round"/>
<path d="M76.3926 74.8456C72.3729 66.092 76.2611 58.9662 82.8968 53.7153C86.6143 50.7735 100.989 45.6491 103.586 52.0697C107.648 62.1124 101.688 77.0435 90.7205 77.4245C89.6883 77.4604 89.1356 76.885 88.6526 76.411C82.147 70.0285 88.8671 59.3471 93.8937 54.8085C95.2661 53.5693 96.7091 52.6467 97.9749 51.8912C104.578 47.9505 111.22 47.3304 117.045 52.9893C124.044 59.7892 119.686 76.1456 109.159 73.8722C103.596 72.6711 103.746 65.7578 104.82 61.4348C105.248 59.7137 106.695 57.2641 108.483 54.5429C110.081 52.1104 112.634 50.4252 115.034 48.8555C116.881 47.6479 119.138 46.5964 121.36 45.3133C122.682 44.5503 125.207 44.0672 129.401 43.4793C133.853 42.8552 136.444 43.3358 136.833 43.4758C138.024 43.9042 140.276 46.1457 142.508 49.312C144.603 52.2838 144.143 54.1357 144.155 57.5483C144.162 59.4232 143.218 60.8261 142.64 61.6736C142.349 62.0993 140.226 63.5259 137.015 65.7606C134.651 67.4065 128.807 71.3893 125.704 70.2901C122.308 69.0873 122.79 63.1859 123.287 60.4122C124.043 56.1913 127.71 52.7369 130.87 50.4243C134.62 47.6803 141.464 45.1672 142.214 44.91C144.623 44.0844 148.087 44.5609 150.117 45.0932C151.26 45.393 151.758 46.5387 152.895 49.4673C153.217 50.2979 153.291 51.1051 153.405 53.0879C153.838 60.6568 154.588 62.1006 148.029 64.9822C144.491 66.5366 138.915 69.4935 136.106 65.435C133.482 61.6425 136.366 55.909 138.953 53.2669C142.087 50.066 145.886 47.9585 150.238 47.6121C158.244 46.9748 163.34 46.7654 165.179 55.7382C165.937 59.4354 162.309 65.2146 160.065 67.742C158.892 69.0625 154.223 69.1316 152.947 67.7663C151.04 65.7256 151.699 60.5088 151.703 58.0448C151.705 56.4406 152.19 54.7467 152.96 52.3876C154.266 48.387 159.383 48.4881 162.891 47.3588C166.193 46.2956 168.497 47.0981 169.488 47.6778C170.603 48.3299 172.25 50.2073 174.041 52.1208C174.91 53.05 175.127 53.7036 175.432 55.0381C176.029 57.6504 176.109 60.9634 176.004 63.8242C175.875 67.3463 174.985 68.2438 174.098 69.4397C171.639 72.7568 169.976 72.7114 168.156 73.5367C162.125 76.2717 160.956 64.4708 159.333 62.3283" stroke="#FEF9EF" stroke-width="2" stroke-linecap="round"/>
<path d="M113.461 133.586C113.461 133.614 113.515 136.541 113.546 141.553C113.415 144.846 113.167 146.867 112.948 148.186C112.869 148.717 112.853 148.965 112.837 149.221" stroke="#FEF9EF" stroke-width="2" stroke-linecap="round"/>
<path d="M137.438 131.133C137.438 133.186 137.474 137.606 137.618 139.264C137.786 142.105 138.057 144.92 138.092 146.537C138.109 147.318 138.382 146.688 138.397 147.408" stroke="#FEF9EF" stroke-width="2" stroke-linecap="round"/>
<path d="M113.479 149.46C113.897 149.466 115.991 149.874 119.268 150.276C124.698 150.944 129.181 149.725 134.455 148.677C136.735 147.918 137.496 147.665 138.028 147.509C138.27 147.438 138.456 147.382 138.86 147.32" stroke="#FEF9EF" stroke-width="2" stroke-linecap="round"/>
<path d="M83.4072 161.292C92.3713 159.074 101.084 153.398 109.752 150.217C110.55 149.826 111.351 149.468 111.951 149.284C112.215 149.209 112.399 149.169 112.709 149.068" stroke="#FEF9EF" stroke-width="2" stroke-linecap="round"/>
<path d="M138.286 147.025C138.312 147.025 140.495 147.084 144.057 147.228C153.112 147.595 161.906 151.363 171.091 151.883C171.635 151.894 172.149 151.904 173.095 152.073" stroke="#FEF9EF" stroke-width="2" stroke-linecap="round"/>
<path d="M173.105 153.016C173.105 153.03 173.105 153.043 173.121 156.271C173.136 159.499 173.166 165.94 173.261 169.891C173.356 173.843 173.514 175.11 173.677 176.575C174.02 179.662 174.375 182.214 174.81 184.203C175.34 186.625 175.886 189.299 176.428 191.424C177.075 193.963 177.875 196.602 178.537 198.451C178.958 199.339 179.259 199.95 179.386 200.355C179.441 200.557 179.474 200.75 179.508 201.288" stroke="#FEF9EF" stroke-width="2" stroke-linecap="round"/>
<path d="M155.863 174.164C155.87 174.562 156.208 177.48 157.124 182.367C157.617 184.999 158.569 187.85 159.096 190.123C160.476 196.079 161.391 202.046 163.426 207.843C163.736 208.651 164.036 209.28 164.396 210.22" stroke="#FEF9EF" stroke-width="2" stroke-linecap="round"/>
<path d="M83.4072 161.292C83.4072 161.32 83.4134 162.91 83.4547 165.508C83.4777 166.956 83.6854 167.624 83.8102 170.69C83.9252 173.518 83.9182 178.935 84.3243 184.002C84.7303 189.068 85.4917 193.621 85.7798 196.977C86.0679 200.334 85.8598 202.357 85.66 203.842C85.4602 205.327 85.2751 206.212 85.151 207.342C85.0269 208.471 84.9696 209.818 84.8868 211.332" stroke="#FEF9EF" stroke-width="2" stroke-linecap="round"/>
<path d="M105.724 178.641C105.724 179.247 105.925 181.916 106.493 184.039C106.777 185.102 107.403 188.554 107.716 192.415C107.918 194.912 108.136 197.694 108.38 200.792C108.706 204.92 109.416 207.47 109.471 208.051C109.588 208.863 109.777 209.803 109.965 210.671C110.042 211.075 110.079 211.406 110.118 212.126" stroke="#FEF9EF" stroke-width="2" stroke-linecap="round"/>
<path d="M115.276 150.75C115.209 150.989 112.428 154.394 110.401 157.81C108.199 161.519 106.411 162.899 105.912 163.895C105.252 165.209 109.445 168.516 111.326 170.791C112.164 171.804 112.87 172.333 113.22 172.591C113.41 172.73 113.607 172.912 114.04 172.613C115.294 171.748 116.429 170.094 117.836 168.496C118.657 167.564 119.57 166.272 120.658 164.907C122.911 162.08 125.071 159.814 126.553 158.454C128.018 157.111 128.455 157.209 129.295 157.016C130.682 156.698 132.263 158.796 134.589 161.899C135.358 162.926 136.141 163.733 137.439 165.456C141.198 170.446 142.311 171.387 142.514 171.559C143.188 172.129 143.706 170.309 145.925 168.517C147.569 167.189 149.787 164.246 151.235 162.711C151.641 162.28 150.499 160.444 148.427 157.956C146.492 155.634 144.379 152.975 143.585 152.028C142.273 150.116 141.533 149.461 141.226 149.21C141.069 149.055 140.91 148.844 140.36 148.26" stroke="#FEF9EF" stroke-width="2" stroke-linecap="round"/>
<path d="M121.851 166.697C122.152 167.031 123.768 169.181 124.598 170.497C125.188 171.433 125.791 172.576 126.121 172.914C127.131 173.948 130.036 172.988 131.042 172.922C131.46 172.894 131.98 172.839 132.452 172.738C132.758 171.911 133.501 170.014 134.919 167.477C135.335 166.756 135.803 165.918 136.366 164.951" stroke="#FEF9EF" stroke-width="2" stroke-linecap="round"/>
<path d="M125.836 172.537C125.836 172.577 125.299 174.172 124.693 176.861C124.165 179.202 123.072 183.498 122.323 186.234C121.279 190.043 120.641 191.901 120.305 193.903C119.849 196.616 119.239 199.289 118.978 201.376C118.767 203.056 119.451 204.846 120.388 206.527C121.514 208.546 122.769 211.185 124.188 214.437C124.571 215.283 124.796 215.74 125.016 216.204C125.121 216.419 125.214 216.592 125.338 216.809" stroke="#FEF9EF" stroke-width="2" stroke-linecap="round"/>
<path d="M132.633 173.726C132.709 173.938 134.924 177.608 136.587 180.345C138.078 182.798 138.772 185.784 139.712 187.35C140.23 188.212 140.715 189.71 141.554 191.951C142.593 194.728 143.64 196.609 143.825 197.716C144.24 200.195 144.666 201.501 144.711 204.753C144.725 205.761 142.534 211.937 141.554 216.204" stroke="#FEF9EF" stroke-width="2" stroke-linecap="round"/>
</svg>
