<svg width="91" height="124" viewBox="0 0 91 124" fill="none" xmlns="http://www.w3.org/2000/svg">
<path d="M11.9546 16.9586C14.0323 4.14985 27.4605 1.73232 37.2493 1.02597C41.1742 0.742759 46.3194 2.83044 49.9487 4.37186C52.8123 5.58808 55.0165 8.22885 56.6264 10.4745C56.7805 10.6895 56.8556 11.2734 57.2206 11.602" stroke="#1D1E18" stroke-width="2" stroke-linecap="round"/>
<path d="M14.0227 34.9341C14.0227 36.2237 14.4336 39.8044 15.5455 43.3143C16.4231 46.0841 17.2232 47.1613 18.3606 49.0277C20.1081 51.8956 24.869 54.111 27.507 55.3323C28.7795 55.9214 30.1883 56.4683 31.2171 56.6881C33.448 57.1646 36.8652 58.5999 39.3969 59.0921C43.8871 59.965 47.8219 58.9634 49.6669 58.4598C53.641 57.3749 56.5033 55.1739 58.862 52.9679C59.6452 52.2355 61.1794 49.07 63.4029 44.5561C64.9715 40.0525 65.1695 38.6072 65.3349 37.4915C65.3705 37.209 65.3893 36.9319 65.4087 36.6463" stroke="#1D1E18" stroke-width="2" stroke-linecap="round"/>
<path d="M10.0518 28.4678C10.0489 27.4139 10.0096 23.2915 10.6048 20.9002C11.0826 18.9806 12.8188 18.4872 13.8718 17.9206C14.9286 17.3521 16.7389 17.1813 17.9205 16.6736C19.2043 16.122 22.268 16.2063 24.1534 16.4015C26.0219 16.595 28.5621 19.0337 29.4526 20.0739C30.2606 21.0177 30.5533 25.3111 30.8951 29.0256C31.0436 30.6389 30.8228 31.8661 30.3102 32.8393C28.7217 35.8552 27.1647 36.1709 25.9945 36.596C24.2732 37.2213 21.6367 37.3465 16.6643 35.696C13.8944 34.7767 12.7923 33.083 11.8151 31.841C11.5973 31.4858 11.0738 30.7326 10.9336 30.3953C10.7934 30.0581 10.5833 29.8126 10.0518 28.9497" stroke="#BAB9B9" stroke-width="2" stroke-linecap="round"/>
<path d="M30.7708 26.0584C30.8457 25.6909 31.6582 24.973 32.9749 23.1671C33.8746 21.9332 36.0356 20.9555 39.5874 20.7578C40.8756 20.686 43.2587 21.0929 43.7356 21.4421C44.5482 22.0371 45.0788 22.871 45.759 24.1309C45.9541 24.4842 46.4695 25.1489 46.6406 25.5766C46.8706 26.1512 47.7311 27.1204 47.9632 27.5041" stroke="#BAB9B9" stroke-width="2" stroke-linecap="round"/>
<path d="M47.8494 26.3544C47.8547 25.3047 48.0108 21.0754 48.9733 17.7442C49.6125 15.5322 52.5095 13.8554 54.4324 12.8708C57.671 11.2127 60.376 11.8121 62.0481 11.9772C63.6764 12.138 65.0468 13.3745 66.0371 14.0114C66.4685 14.2889 66.826 14.5749 67.3065 15.0977C67.8546 15.6942 68.3784 18.2013 69.0054 22.3825C70.1955 30.3185 68.516 33.3653 68.15 33.7649C66.8391 35.1961 64.0133 35.657 61.5911 36.2986C57.8823 37.2811 55.8359 36.7521 54.0166 36.0909C51.5506 35.1947 50.7477 34.0465 50.0219 33.1475C49.3405 31.5538 49.0222 30.346 48.5331 28.521C48.4084 28.1085 48.3042 27.8774 48.129 27.5077" stroke="#BAB9B9" stroke-width="2" stroke-linecap="round"/>
<path d="M32.0193 57.9543C32.0193 58.9175 32.1447 61.7723 32.2298 63.9658C32.327 66.2925 32.4873 67.4925 32.5591 68.6689C32.5901 69.225 32.6098 69.6983 32.6536 70.2394" stroke="#1D1E18" stroke-width="2" stroke-linecap="round"/>
<path d="M55.16 57.3035C55.16 58.1929 55.0746 62.2798 55.2397 64.7134C55.3604 66.1097 55.4858 67.1025 55.6433 67.6834C55.713 67.962 55.762 68.2077 55.8658 68.7419" stroke="#1D1E18" stroke-width="2" stroke-linecap="round"/>
<path d="M32.5012 70.2938C32.1747 70.2938 31.1477 70.5653 28.5305 71.2603C24.784 72.2551 21.3903 73.0577 20.1325 73.5516C12.1396 76.69 7.58889 82.0151 3.72921 90.4834C2.62793 92.8997 2.36186 95.1859 2.07211 97.9673C1.27593 105.61 0.448648 114.022 1.48528 121.648C1.52621 121.996 1.55578 122.354 1.67491 123" stroke="#1D1E18" stroke-width="2" stroke-linecap="round"/>
<path d="M56.8176 69.1187C57.5304 69.1243 59.6928 69.3614 61.3644 69.5991C62.6269 69.7786 63.9981 70.1339 65.951 71.0924C69.1429 72.6591 70.6017 73.2517 72.1797 74.1311C73.7161 74.9872 74.8796 76.1395 76.1164 77.0607C84.7817 83.5152 89.4075 91.5893 89.9427 103.49C90.0007 106.533 90.07 112.253 89.8392 117.854" stroke="#1D1E18" stroke-width="2" stroke-linecap="round"/>
<path d="M25.9492 90.5336C26.4082 93.9324 26.829 97.4038 27.0659 100.83C27.2693 103.772 27.4566 108.402 27.6438 111.339C27.995 116.848 28.4003 118.149 28.4968 119.435C28.5378 119.836 28.62 120.369 28.6769 120.788C28.7338 121.206 28.7631 121.493 28.8231 121.947" stroke="#1D1E18" stroke-width="2" stroke-linecap="round"/>
<path d="M64.2205 87.7966C64.2205 87.8684 64.2205 92.2901 64.28 99.3603C64.3299 105.28 64.5088 112.014 65.7487 117.815C65.8449 118.286 65.9754 118.962 66.1524 119.784" stroke="#1D1E18" stroke-width="2" stroke-linecap="round"/>
<path d="M25.6084 72.7528C25.6469 73.2311 26.4496 75.7858 29.4889 80.6267C31.0661 83.1387 32.7462 84.0617 33.5852 84.6708C34.775 85.5345 36.8666 86.2133 38.4941 87.0651C39.6847 87.6883 41.3087 87.9258 42.8763 88.1987C44.0214 88.398 47.2534 88.3634 49.792 88.0833C52.604 87.773 55.9646 85.5594 57.587 84.1555C59.5452 82.4611 60.9545 80.1764 62.0295 78.9728C63.67 76.3737 65.298 73.4777 65.6596 72.8959C65.8113 72.621 65.8985 72.3873 66.163 71.4887" stroke="#1D1E18" stroke-width="2" stroke-linecap="round"/>
<path d="M61.6289 78.4525C60.0174 76.4277 58.2103 73.6778 56.4012 71.8371C56.2206 71.6411 55.6262 71.0566 55.4573 70.8734" stroke="#1D1E18" stroke-width="2" stroke-linecap="round"/>
<path d="M32.9753 70.6797C33.273 70.9007 34.3342 71.8266 35.3789 72.6899C36.7394 73.814 37.9926 74.6941 39.7373 74.972C41.4584 75.2462 45.2995 75.7597 49.326 75.3195C51.622 75.0685 52.6091 73.5286 53.5275 72.4818C54.3434 71.3578 54.9853 70.3919 55.2717 69.8841C55.418 69.6422 55.5664 69.4327 55.8035 69.1277" stroke="#1D1E18" stroke-width="2" stroke-linecap="round"/>
<path d="M53.2173 74.4384C52.6329 73.5266 53.6498 75.9981 54.2996 77.5386C54.7603 78.631 55.7046 80.2975 56.4385 81.9608C56.5901 82.286 56.7406 82.5638 56.9129 82.8206C57.0852 83.0775 57.2749 83.305 57.5571 83.6245" stroke="#1D1E18" stroke-width="2" stroke-linecap="round"/>
<path d="M50.0159 75.9577C50.0159 79.5702 51.0513 82.9564 51.3049 86.5112C51.3272 86.7961 51.3708 87.0429 51.4528 87.31" stroke="#1D1E18" stroke-width="2" stroke-linecap="round"/>
<path d="M43.8074 76.3295C43.8074 76.4092 43.7979 78.4919 43.7715 81.7214C43.7307 83.1811 43.6918 84.5478 43.6615 86.4105C43.6456 87.1865 43.6286 87.619 43.6111 88.0646" stroke="#1D1E18" stroke-width="2" stroke-linecap="round"/>
<path d="M39.3626 75.832C37.3146 77.9329 35.2845 80.005 33.4169 82.3042C32.9334 82.8937 32.8522 83.5132 32.2298 83.7035" stroke="#1D1E18" stroke-width="2" stroke-linecap="round"/>
<path d="M28.6279 77.2425C30.7954 76.2375 32.7156 74.709 34.9078 73.7143" stroke="#1D1E18" stroke-width="2" stroke-linecap="round"/>
<path d="M11.9546 16.9586C14.0323 4.14985 27.4605 1.73232 37.2493 1.02597C41.1742 0.742759 46.3194 2.83044 49.9487 4.37186C52.8123 5.58808 55.0165 8.22885 56.6264 10.4745C56.7805 10.6895 56.8556 11.2734 57.2206 11.602" stroke="#1D1E18" stroke-width="2" stroke-linecap="round"/>
<path d="M14.0227 34.9341C14.0227 36.2237 14.4336 39.8044 15.5455 43.3143C16.4231 46.0841 17.2232 47.1613 18.3606 49.0277C20.1081 51.8956 24.869 54.111 27.507 55.3323C28.7795 55.9214 30.1883 56.4683 31.2171 56.6881C33.448 57.1646 36.8652 58.5999 39.3969 59.0921C43.8871 59.965 47.8219 58.9634 49.6669 58.4598C53.641 57.3749 56.5033 55.1739 58.862 52.9679C59.6452 52.2355 61.1794 49.07 63.4029 44.5561C64.9715 40.0525 65.1695 38.6072 65.3349 37.4915C65.3705 37.209 65.3893 36.9319 65.4087 36.6463" stroke="#1D1E18" stroke-width="2" stroke-linecap="round"/>
<path d="M10.0518 28.4678C10.0489 27.4139 10.0096 23.2915 10.6048 20.9002C11.0826 18.9806 12.8188 18.4872 13.8718 17.9206C14.9286 17.3521 16.7389 17.1813 17.9205 16.6736C19.2043 16.122 22.268 16.2063 24.1534 16.4015C26.0219 16.595 28.5621 19.0337 29.4526 20.0739C30.2606 21.0177 30.5533 25.3111 30.8951 29.0256C31.0436 30.6389 30.8228 31.8661 30.3102 32.8393C28.7217 35.8552 27.1647 36.1709 25.9945 36.596C24.2732 37.2213 21.6367 37.3465 16.6643 35.696C13.8944 34.7767 12.7923 33.083 11.8151 31.841C11.5973 31.4858 11.0738 30.7326 10.9336 30.3953C10.7934 30.0581 10.5833 29.8126 10.0518 28.9497" stroke="#BAB9B9" stroke-width="2" stroke-linecap="round"/>
<path d="M30.7708 26.0584C30.8457 25.6909 31.6582 24.973 32.9749 23.1671C33.8746 21.9332 36.0356 20.9555 39.5874 20.7578C40.8756 20.686 43.2587 21.0929 43.7356 21.4421C44.5482 22.0371 45.0788 22.871 45.759 24.1309C45.9541 24.4842 46.4695 25.1489 46.6406 25.5766C46.8706 26.1512 47.7311 27.1204 47.9632 27.5041" stroke="#BAB9B9" stroke-width="2" stroke-linecap="round"/>
<path d="M47.8494 26.3544C47.8547 25.3047 48.0108 21.0754 48.9733 17.7442C49.6125 15.5322 52.5095 13.8554 54.4324 12.8708C57.671 11.2127 60.376 11.8121 62.0481 11.9772C63.6764 12.138 65.0468 13.3745 66.0371 14.0114C66.4685 14.2889 66.826 14.5749 67.3065 15.0977C67.8546 15.6942 68.3784 18.2013 69.0054 22.3825C70.1955 30.3185 68.516 33.3653 68.15 33.7649C66.8391 35.1961 64.0133 35.657 61.5911 36.2986C57.8823 37.2811 55.8359 36.7521 54.0166 36.0909C51.5506 35.1947 50.7477 34.0465 50.0219 33.1475C49.3405 31.5538 49.0222 30.346 48.5331 28.521C48.4084 28.1085 48.3042 27.8774 48.129 27.5077" stroke="#BAB9B9" stroke-width="2" stroke-linecap="round"/>
<path d="M32.0193 57.9543C32.0193 58.9175 32.1447 61.7723 32.2298 63.9658C32.327 66.2925 32.4873 67.4925 32.5591 68.6689C32.5901 69.225 32.6098 69.6983 32.6536 70.2394" stroke="#1D1E18" stroke-width="2" stroke-linecap="round"/>
<path d="M55.16 57.3035C55.16 58.1929 55.0746 62.2798 55.2397 64.7134C55.3604 66.1097 55.4858 67.1025 55.6433 67.6834C55.713 67.962 55.762 68.2077 55.8658 68.7419" stroke="#1D1E18" stroke-width="2" stroke-linecap="round"/>
<path d="M32.5012 70.2938C32.1747 70.2938 31.1477 70.5653 28.5305 71.2603C24.784 72.2551 21.3903 73.0577 20.1325 73.5516C12.1396 76.69 7.58889 82.0151 3.72921 90.4834C2.62793 92.8997 2.36186 95.1859 2.07211 97.9673C1.27593 105.61 0.448648 114.022 1.48528 121.648C1.52621 121.996 1.55578 122.354 1.67491 123" stroke="#1D1E18" stroke-width="2" stroke-linecap="round"/>
<path d="M56.8176 69.1187C57.5304 69.1243 59.6928 69.3614 61.3644 69.5991C62.6269 69.7786 63.9981 70.1339 65.951 71.0924C69.1429 72.6591 70.6017 73.2517 72.1797 74.1311C73.7161 74.9872 74.8796 76.1395 76.1164 77.0607C84.7817 83.5152 89.4075 91.5893 89.9427 103.49C90.0007 106.533 90.07 112.253 89.8392 117.854" stroke="#1D1E18" stroke-width="2" stroke-linecap="round"/>
<path d="M25.9492 90.5336C26.4082 93.9324 26.829 97.4038 27.0659 100.83C27.2693 103.772 27.4566 108.402 27.6438 111.339C27.995 116.848 28.4003 118.149 28.4968 119.435C28.5378 119.836 28.62 120.369 28.6769 120.788C28.7338 121.206 28.7631 121.493 28.8231 121.947" stroke="#1D1E18" stroke-width="2" stroke-linecap="round"/>
<path d="M64.2205 87.7966C64.2205 87.8684 64.2205 92.2901 64.28 99.3603C64.3299 105.28 64.5088 112.014 65.7487 117.815C65.8449 118.286 65.9754 118.962 66.1524 119.784" stroke="#1D1E18" stroke-width="2" stroke-linecap="round"/>
<path d="M25.6084 72.7528C25.6469 73.2311 26.4496 75.7858 29.4889 80.6267C31.0661 83.1387 32.7462 84.0617 33.5852 84.6708C34.775 85.5345 36.8666 86.2133 38.4941 87.0651C39.6847 87.6883 41.3087 87.9258 42.8763 88.1987C44.0214 88.398 47.2534 88.3634 49.792 88.0833C52.604 87.773 55.9646 85.5594 57.587 84.1555C59.5452 82.4611 60.9545 80.1764 62.0295 78.9728C63.67 76.3737 65.298 73.4777 65.6596 72.8959C65.8113 72.621 65.8985 72.3873 66.163 71.4887" stroke="#1D1E18" stroke-width="2" stroke-linecap="round"/>
<path d="M61.6289 78.4525C60.0174 76.4277 58.2103 73.6778 56.4012 71.8371C56.2206 71.6411 55.6262 71.0566 55.4573 70.8734" stroke="#1D1E18" stroke-width="2" stroke-linecap="round"/>
<path d="M32.9753 70.6797C33.273 70.9007 34.3342 71.8266 35.3789 72.6899C36.7394 73.814 37.9926 74.6941 39.7373 74.972C41.4584 75.2462 45.2995 75.7597 49.326 75.3195C51.622 75.0685 52.6091 73.5286 53.5275 72.4818C54.3434 71.3578 54.9853 70.3919 55.2717 69.8841C55.418 69.6422 55.5664 69.4327 55.8035 69.1277" stroke="#1D1E18" stroke-width="2" stroke-linecap="round"/>
<path d="M53.2173 74.4384C52.6329 73.5266 53.6498 75.9981 54.2996 77.5386C54.7603 78.631 55.7046 80.2975 56.4385 81.9608C56.5901 82.286 56.7406 82.5638 56.9129 82.8206C57.0852 83.0775 57.2749 83.305 57.5571 83.6245" stroke="#1D1E18" stroke-width="2" stroke-linecap="round"/>
<path d="M50.0159 75.9577C50.0159 79.5702 51.0513 82.9564 51.3049 86.5112C51.3272 86.7961 51.3708 87.0429 51.4528 87.31" stroke="#1D1E18" stroke-width="2" stroke-linecap="round"/>
<path d="M43.8074 76.3295C43.8074 76.4092 43.7979 78.4919 43.7715 81.7214C43.7307 83.1811 43.6918 84.5478 43.6615 86.4105C43.6456 87.1865 43.6286 87.619 43.6111 88.0646" stroke="#1D1E18" stroke-width="2" stroke-linecap="round"/>
<path d="M39.3626 75.832C37.3146 77.9329 35.2845 80.005 33.4169 82.3042C32.9334 82.8937 32.8522 83.5132 32.2298 83.7035" stroke="#1D1E18" stroke-width="2" stroke-linecap="round"/>
<path d="M28.6279 77.2425C30.7954 76.2375 32.7156 74.709 34.9078 73.7143" stroke="#1D1E18" stroke-width="2" stroke-linecap="round"/>
<path d="M29.4485 9.11419C30.0731 9.01087 31.5473 8.7517 33.7702 8.72815C34.3793 8.7217 34.7326 8.89184 35.5763 9.09782C37.1802 9.48938 38.5651 9.48046 39.4645 9.37013C40.8621 9.05682 41.9347 8.79947 42.4547 8.73326C42.7478 8.71075 43.1004 8.71075 43.4636 8.71075" stroke="#1D1E18" stroke-width="2" stroke-linecap="round"/>
<path d="M33.8083 14.0882C33.8236 14.0882 35.1506 14.0766 37.3934 13.9932C39.9512 13.8982 41.7568 13.304 42.4053 13.393C42.5168 13.4247 42.6222 13.4581 42.9606 13.4754C43.299 13.4926 43.8673 13.4926 44.4529 13.4926" stroke="#1D1E18" stroke-width="2" stroke-linecap="round"/>
</svg>
