<svg width="91" height="124" viewBox="0 0 91 124" fill="none" xmlns="http://www.w3.org/2000/svg">
<path d="M11.9551 16.9586C14.0328 4.14985 27.4609 1.73232 37.2498 1.02597C41.1746 0.742759 46.3199 2.83044 49.9492 4.37186C52.8128 5.58808 55.0169 8.22885 56.6268 10.4745C56.781 10.6895 56.8561 11.2734 57.2211 11.602" stroke="#8D9BDD" stroke-width="2" stroke-linecap="round"/>
<path d="M14.0229 34.9341C14.0229 36.2237 14.4338 39.8044 15.5458 43.3143C16.4233 46.0841 17.2235 47.1613 18.3608 49.0277C20.1084 51.8956 24.8692 54.111 27.5073 55.3323C28.7798 55.9214 30.1885 56.4683 31.2173 56.6881C33.4482 57.1646 36.8655 58.5999 39.3971 59.0921C43.8874 59.965 47.8222 58.9634 49.6671 58.4598C53.6413 57.3749 56.5036 55.1739 58.8622 52.9679C59.6454 52.2355 61.1796 49.07 63.4031 44.5561C64.9717 40.0525 65.1698 38.6072 65.3352 37.4915C65.3707 37.209 65.3895 36.9319 65.4089 36.6463" stroke="#8D9BDD" stroke-width="2" stroke-linecap="round"/>
<path d="M10.0523 28.4678C10.0493 27.4139 10.0101 23.2915 10.6053 20.9002C11.0831 18.9806 12.8193 18.4872 13.8723 17.9206C14.9291 17.3521 16.7394 17.1813 17.921 16.6736C19.2048 16.122 22.2685 16.2063 24.1539 16.4015C26.0224 16.595 28.5626 19.0337 29.4531 20.0739C30.2611 21.0177 30.5538 25.3111 30.8956 29.0256C31.0441 30.6389 30.8232 31.8661 30.3107 32.8393C28.7222 35.8552 27.1652 36.1709 25.995 36.596C24.2737 37.2213 21.6372 37.3465 16.6647 35.696C13.8949 34.7767 12.7928 33.083 11.8156 31.841C11.5977 31.4858 11.0743 30.7326 10.9341 30.3953C10.7939 30.0581 10.5838 29.8126 10.0523 28.9497" stroke="#4E598C" stroke-width="2" stroke-linecap="round"/>
<path d="M30.771 26.0584C30.8459 25.6909 31.6585 24.973 32.9751 23.1671C33.8748 21.9332 36.0359 20.9555 39.5876 20.7578C40.8759 20.686 43.2589 21.0929 43.7359 21.4421C44.5484 22.0371 45.079 22.871 45.7592 24.1309C45.9544 24.4842 46.4698 25.1489 46.6409 25.5766C46.8708 26.1512 47.7314 27.1204 47.9634 27.5041" stroke="#4E598C" stroke-width="2" stroke-linecap="round"/>
<path d="M47.8496 26.3544C47.855 25.3047 48.011 21.0754 48.9736 17.7442C49.6128 15.5322 52.5097 13.8554 54.4327 12.8708C57.6712 11.2127 60.3762 11.8121 62.0483 11.9772C63.6766 12.138 65.047 13.3745 66.0373 14.0114C66.4687 14.2889 66.8262 14.5749 67.3067 15.0977C67.8549 15.6942 68.3787 18.2013 69.0057 22.3825C70.1957 30.3185 68.5163 33.3653 68.1502 33.7649C66.8394 35.1961 64.0135 35.657 61.5913 36.2986C57.8826 37.2811 55.8361 36.7521 54.0169 36.0909C51.5508 35.1947 50.748 34.0465 50.0221 33.1475C49.3407 31.5538 49.0224 30.346 48.5334 28.521C48.4087 28.1085 48.3045 27.8774 48.1292 27.5077" stroke="#4E598C" stroke-width="2" stroke-linecap="round"/>
<path d="M32.0195 57.9543C32.0195 58.9175 32.1449 61.7724 32.2301 63.9659C32.3272 66.2925 32.4875 67.4926 32.5594 68.6689C32.5903 69.2251 32.61 69.6984 32.6538 70.2394" stroke="#8D9BDD" stroke-width="2" stroke-linecap="round"/>
<path d="M55.1603 57.3035C55.1603 58.1929 55.0749 62.2798 55.2399 64.7134C55.3607 66.1097 55.486 67.1025 55.6436 67.6834C55.7133 67.962 55.7622 68.2077 55.8661 68.7419" stroke="#8D9BDD" stroke-width="2" stroke-linecap="round"/>
<path d="M32.5015 70.2938C32.1749 70.2938 31.148 70.5653 28.5307 71.2603C24.7843 72.2551 21.3905 73.0577 20.1327 73.5516C12.1399 76.69 7.58913 82.0151 3.72945 90.4834C2.62817 92.8997 2.36211 95.1859 2.07235 97.9673C1.27618 105.61 0.448892 114.022 1.48553 121.648C1.52646 121.996 1.55602 122.354 1.67516 123" stroke="#8D9BDD" stroke-width="2" stroke-linecap="round"/>
<path d="M56.8179 69.1187C57.5306 69.1243 59.693 69.3614 61.3646 69.5991C62.6271 69.7786 63.9983 70.1339 65.9513 71.0924C69.1432 72.6591 70.602 73.2517 72.18 74.1311C73.7164 74.9872 74.8799 76.1395 76.1167 77.0607C84.7819 83.5152 89.4077 91.5893 89.943 103.49C90.001 106.533 90.0703 112.253 89.8394 117.854" stroke="#8D9BDD" stroke-width="2" stroke-linecap="round"/>
<path d="M25.9497 90.5336C26.4086 93.9324 26.8294 97.4038 27.0664 100.83C27.2698 103.772 27.4571 108.402 27.6443 111.339C27.9955 116.848 28.4008 118.149 28.4973 119.435C28.5383 119.836 28.6204 120.369 28.6774 120.788C28.7343 121.206 28.7636 121.493 28.8236 121.947" stroke="#8D9BDD" stroke-width="2" stroke-linecap="round"/>
<path d="M64.2207 87.7966C64.2207 87.8684 64.2207 92.2901 64.2803 99.3603C64.3302 105.28 64.5091 112.014 65.749 117.815C65.8451 118.286 65.9756 118.962 66.1526 119.784" stroke="#8D9BDD" stroke-width="2" stroke-linecap="round"/>
<path d="M25.6084 72.7528C25.6469 73.2311 26.4496 75.7858 29.4889 80.6267C31.0661 83.1387 32.7462 84.0617 33.5852 84.6708C34.775 85.5345 36.8666 86.2133 38.4941 87.0651C39.6847 87.6883 41.3087 87.9258 42.8763 88.1987C44.0214 88.398 47.2534 88.3634 49.792 88.0833C52.604 87.773 55.9646 85.5594 57.587 84.1555C59.5452 82.4611 60.9545 80.1764 62.0295 78.9728C63.67 76.3737 65.298 73.4777 65.6596 72.8959C65.8113 72.621 65.8985 72.3873 66.163 71.4887" stroke="#8D9BDD" stroke-width="2" stroke-linecap="round"/>
<path d="M61.6291 78.4525C60.0177 76.4277 58.2105 73.6778 56.4014 71.8371C56.2209 71.6411 55.6264 71.0566 55.4575 70.8734" stroke="#8D9BDD" stroke-width="2" stroke-linecap="round"/>
<path d="M32.9756 70.6797C33.2733 70.9007 34.3344 71.8266 35.3792 72.6899C36.7397 73.814 37.9929 74.6941 39.7375 74.972C41.4587 75.2462 45.2998 75.7597 49.3262 75.3195C51.6222 75.0685 52.6093 73.5286 53.5278 72.4818C54.3437 71.3578 54.9855 70.3919 55.2719 69.8841C55.4183 69.6422 55.5667 69.4327 55.8037 69.1277" stroke="#8D9BDD" stroke-width="2" stroke-linecap="round"/>
<path d="M53.2176 74.4384C52.6332 73.5266 53.6501 75.9981 54.2998 77.5386C54.7605 78.631 55.7049 80.2975 56.4388 81.9608C56.5903 82.286 56.7408 82.5638 56.9132 82.8206C57.0855 83.0775 57.2751 83.305 57.5573 83.6245" stroke="#8D9BDD" stroke-width="2" stroke-linecap="round"/>
<path d="M50.0161 75.9577C50.0161 79.5702 51.0515 82.9564 51.3052 86.5112C51.3274 86.7961 51.371 87.0429 51.4531 87.31" stroke="#8D9BDD" stroke-width="2" stroke-linecap="round"/>
<path d="M43.8077 76.3295C43.8077 76.4092 43.7981 78.4919 43.7717 81.7214C43.731 83.1811 43.692 84.5478 43.6618 86.4105C43.6459 87.1865 43.6289 87.619 43.6113 88.0646" stroke="#8D9BDD" stroke-width="2" stroke-linecap="round"/>
<path d="M39.3628 75.832C37.3149 77.9329 35.2848 80.005 33.4171 82.3042C32.9337 82.8937 32.8525 83.5132 32.23 83.7035" stroke="#8D9BDD" stroke-width="2" stroke-linecap="round"/>
<path d="M28.6279 77.2425C30.7954 76.2375 32.7156 74.709 34.9078 73.7143" stroke="#8D9BDD" stroke-width="2" stroke-linecap="round"/>
<path d="M11.9551 16.9586C14.0328 4.14985 27.4609 1.73232 37.2498 1.02597C41.1746 0.742759 46.3199 2.83044 49.9492 4.37186C52.8128 5.58808 55.0169 8.22885 56.6268 10.4745C56.781 10.6895 56.8561 11.2734 57.2211 11.602" stroke="#8D9BDD" stroke-width="2" stroke-linecap="round"/>
<path d="M14.0229 34.9341C14.0229 36.2237 14.4338 39.8044 15.5458 43.3143C16.4233 46.0841 17.2235 47.1613 18.3608 49.0277C20.1084 51.8956 24.8692 54.111 27.5073 55.3323C28.7798 55.9214 30.1885 56.4683 31.2173 56.6881C33.4482 57.1646 36.8655 58.5999 39.3971 59.0921C43.8874 59.965 47.8222 58.9634 49.6671 58.4598C53.6413 57.3749 56.5036 55.1739 58.8622 52.9679C59.6454 52.2355 61.1796 49.07 63.4031 44.5561C64.9717 40.0525 65.1698 38.6072 65.3352 37.4915C65.3707 37.209 65.3895 36.9319 65.4089 36.6463" stroke="#8D9BDD" stroke-width="2" stroke-linecap="round"/>
<path d="M10.0523 28.4678C10.0493 27.4139 10.0101 23.2915 10.6053 20.9002C11.0831 18.9806 12.8193 18.4872 13.8723 17.9206C14.9291 17.3521 16.7394 17.1813 17.921 16.6736C19.2048 16.122 22.2685 16.2063 24.1539 16.4015C26.0224 16.595 28.5626 19.0337 29.4531 20.0739C30.2611 21.0177 30.5538 25.3111 30.8956 29.0256C31.0441 30.6389 30.8232 31.8661 30.3107 32.8393C28.7222 35.8552 27.1652 36.1709 25.995 36.596C24.2737 37.2213 21.6372 37.3465 16.6647 35.696C13.8949 34.7767 12.7928 33.083 11.8156 31.841C11.5977 31.4858 11.0743 30.7326 10.9341 30.3953C10.7939 30.0581 10.5838 29.8126 10.0523 28.9497" stroke="#4E598C" stroke-width="2" stroke-linecap="round"/>
<path d="M30.771 26.0584C30.8459 25.6909 31.6585 24.973 32.9751 23.1671C33.8748 21.9332 36.0359 20.9555 39.5876 20.7578C40.8759 20.686 43.2589 21.0929 43.7359 21.4421C44.5484 22.0371 45.079 22.871 45.7592 24.1309C45.9544 24.4842 46.4698 25.1489 46.6409 25.5766C46.8708 26.1512 47.7314 27.1204 47.9634 27.5041" stroke="#4E598C" stroke-width="2" stroke-linecap="round"/>
<path d="M47.8496 26.3544C47.855 25.3047 48.011 21.0754 48.9736 17.7442C49.6128 15.5322 52.5097 13.8554 54.4327 12.8708C57.6712 11.2127 60.3762 11.8121 62.0483 11.9772C63.6766 12.138 65.047 13.3745 66.0373 14.0114C66.4687 14.2889 66.8262 14.5749 67.3067 15.0977C67.8549 15.6942 68.3787 18.2013 69.0057 22.3825C70.1957 30.3185 68.5163 33.3653 68.1502 33.7649C66.8394 35.1961 64.0135 35.657 61.5913 36.2986C57.8826 37.2811 55.8361 36.7521 54.0169 36.0909C51.5508 35.1947 50.748 34.0465 50.0221 33.1475C49.3407 31.5538 49.0224 30.346 48.5334 28.521C48.4087 28.1085 48.3045 27.8774 48.1292 27.5077" stroke="#4E598C" stroke-width="2" stroke-linecap="round"/>
<path d="M32.0195 57.9543C32.0195 58.9175 32.1449 61.7724 32.2301 63.9659C32.3272 66.2925 32.4875 67.4926 32.5594 68.6689C32.5903 69.2251 32.61 69.6984 32.6538 70.2394" stroke="#8D9BDD" stroke-width="2" stroke-linecap="round"/>
<path d="M55.1603 57.3035C55.1603 58.1929 55.0749 62.2798 55.2399 64.7134C55.3607 66.1097 55.486 67.1025 55.6436 67.6834C55.7133 67.962 55.7622 68.2077 55.8661 68.7419" stroke="#8D9BDD" stroke-width="2" stroke-linecap="round"/>
<path d="M32.5015 70.2938C32.1749 70.2938 31.148 70.5653 28.5307 71.2603C24.7843 72.2551 21.3905 73.0577 20.1327 73.5516C12.1399 76.69 7.58913 82.0151 3.72945 90.4834C2.62817 92.8997 2.36211 95.1859 2.07235 97.9673C1.27618 105.61 0.448892 114.022 1.48553 121.648C1.52646 121.996 1.55602 122.354 1.67516 123" stroke="#8D9BDD" stroke-width="2" stroke-linecap="round"/>
<path d="M56.8179 69.1187C57.5306 69.1243 59.693 69.3614 61.3646 69.5991C62.6271 69.7786 63.9983 70.1339 65.9513 71.0924C69.1432 72.6591 70.602 73.2517 72.18 74.1311C73.7164 74.9872 74.8799 76.1395 76.1167 77.0607C84.7819 83.5152 89.4077 91.5893 89.943 103.49C90.001 106.533 90.0703 112.253 89.8394 117.854" stroke="#8D9BDD" stroke-width="2" stroke-linecap="round"/>
<path d="M25.9497 90.5336C26.4086 93.9324 26.8294 97.4038 27.0664 100.83C27.2698 103.772 27.4571 108.402 27.6443 111.339C27.9955 116.848 28.4008 118.149 28.4973 119.435C28.5383 119.836 28.6204 120.369 28.6774 120.788C28.7343 121.206 28.7636 121.493 28.8236 121.947" stroke="#8D9BDD" stroke-width="2" stroke-linecap="round"/>
<path d="M64.2207 87.7966C64.2207 87.8684 64.2207 92.2901 64.2803 99.3603C64.3302 105.28 64.5091 112.014 65.749 117.815C65.8451 118.286 65.9756 118.962 66.1526 119.784" stroke="#8D9BDD" stroke-width="2" stroke-linecap="round"/>
<path d="M25.6084 72.7528C25.6469 73.2311 26.4496 75.7858 29.4889 80.6267C31.0661 83.1387 32.7462 84.0617 33.5852 84.6708C34.775 85.5345 36.8666 86.2133 38.4941 87.0651C39.6847 87.6883 41.3087 87.9258 42.8763 88.1987C44.0214 88.398 47.2534 88.3634 49.792 88.0833C52.604 87.773 55.9646 85.5594 57.587 84.1555C59.5452 82.4611 60.9545 80.1764 62.0295 78.9728C63.67 76.3737 65.298 73.4777 65.6596 72.8959C65.8113 72.621 65.8985 72.3873 66.163 71.4887" stroke="#8D9BDD" stroke-width="2" stroke-linecap="round"/>
<path d="M61.6291 78.4525C60.0177 76.4277 58.2105 73.6778 56.4014 71.8371C56.2209 71.6411 55.6264 71.0566 55.4575 70.8734" stroke="#8D9BDD" stroke-width="2" stroke-linecap="round"/>
<path d="M32.9756 70.6797C33.2733 70.9007 34.3344 71.8266 35.3792 72.6899C36.7397 73.814 37.9929 74.6941 39.7375 74.972C41.4587 75.2462 45.2998 75.7597 49.3262 75.3195C51.6222 75.0685 52.6093 73.5286 53.5278 72.4818C54.3437 71.3578 54.9855 70.3919 55.2719 69.8841C55.4183 69.6422 55.5667 69.4327 55.8037 69.1277" stroke="#8D9BDD" stroke-width="2" stroke-linecap="round"/>
<path d="M53.2176 74.4384C52.6332 73.5266 53.6501 75.9981 54.2998 77.5386C54.7605 78.631 55.7049 80.2975 56.4388 81.9608C56.5903 82.286 56.7408 82.5638 56.9132 82.8206C57.0855 83.0775 57.2751 83.305 57.5573 83.6245" stroke="#8D9BDD" stroke-width="2" stroke-linecap="round"/>
<path d="M50.0161 75.9577C50.0161 79.5702 51.0515 82.9564 51.3052 86.5112C51.3274 86.7961 51.371 87.0429 51.4531 87.31" stroke="#8D9BDD" stroke-width="2" stroke-linecap="round"/>
<path d="M43.8077 76.3295C43.8077 76.4092 43.7981 78.4919 43.7717 81.7214C43.731 83.1811 43.692 84.5478 43.6618 86.4105C43.6459 87.1865 43.6289 87.619 43.6113 88.0646" stroke="#8D9BDD" stroke-width="2" stroke-linecap="round"/>
<path d="M39.3628 75.832C37.3149 77.9329 35.2848 80.005 33.4171 82.3042C32.9337 82.8937 32.8525 83.5132 32.23 83.7035" stroke="#8D9BDD" stroke-width="2" stroke-linecap="round"/>
<path d="M28.6279 77.2425C30.7954 76.2375 32.7156 74.709 34.9078 73.7143" stroke="#8D9BDD" stroke-width="2" stroke-linecap="round"/>
<path d="M29.4487 9.11419C30.0733 9.01087 31.5475 8.7517 33.7705 8.72815C34.3795 8.7217 34.7329 8.89184 35.5766 9.09782C37.1804 9.48938 38.5654 9.48046 39.4648 9.37013C40.8623 9.05682 41.9349 8.79947 42.4549 8.73326C42.7481 8.71075 43.1006 8.71075 43.4638 8.71075" stroke="#8D9BDD" stroke-width="2" stroke-linecap="round"/>
<path d="M33.8086 14.0882C33.8238 14.0882 35.1508 14.0766 37.3936 13.9932C39.9514 13.8982 41.7571 13.304 42.4056 13.393C42.5171 13.4247 42.6224 13.4581 42.9608 13.4754C43.2993 13.4926 43.8676 13.4926 44.4531 13.4926" stroke="#8D9BDD" stroke-width="2" stroke-linecap="round"/>
</svg>
