<svg width="81" height="127" viewBox="0 0 81 127" fill="none" xmlns="http://www.w3.org/2000/svg">
<path d="M15.448 17.432C15.448 17.4427 15.448 17.9837 15.5152 19.1388C15.592 20.4588 15.8855 22.5707 16.055 25.7623C16.1494 27.5399 16.4416 29.6261 16.5651 31.3402C16.8742 35.6294 17.2351 39.8638 17.855 44.126C18.3213 47.3312 18.8523 50.5414 19.6059 53.6925C21.3792 61.1069 28.4506 66.4601 35.8763 66.5401C40.5653 66.5905 45.7655 65.6021 49.5364 62.6801C55.6717 57.9258 57.1349 47.6037 58.8216 40.3462C59.49 37.47 59.7584 34.2041 59.8464 31.2606C59.9449 27.9703 59.8867 25.0097 59.5784 21.7407C59.4105 19.9594 59.3385 18.3061 59.047 16.9655C58.5755 14.648 58.2534 13.6459 58.1173 13.3845C58.0449 13.2584 57.9655 13.1455 57.629 12.7578" stroke="#BAB9B9" stroke-width="2" stroke-linecap="round"/>
<path d="M2.22087 23.7499C-0.790063 17.4635 2.12233 12.3462 7.09273 8.5752C9.87727 6.4626 20.6442 2.78249 22.5895 7.39346C25.6321 14.6056 21.1679 25.3283 12.9529 25.6019C12.1798 25.6277 11.7658 25.2145 11.404 24.8741C6.53113 20.2905 11.5647 12.6197 15.3298 9.36028C16.3578 8.47035 17.4386 7.80782 18.3868 7.26526C23.3325 4.43524 28.3077 3.98992 32.6707 8.05387C37.9134 12.9372 34.6494 24.6835 26.7638 23.0509C22.5974 22.1883 22.7097 17.2235 23.514 14.119C23.8342 12.8829 24.9184 11.1238 26.2577 9.1696C27.4548 7.42267 29.3671 6.21245 31.1648 5.08522C32.548 4.21792 34.2385 3.46279 35.9033 2.54136C36.8933 1.99343 38.7842 1.64645 41.9258 1.22425C45.2606 0.776084 47.2012 1.1212 47.4929 1.22176C48.3852 1.52943 50.072 3.13918 51.7438 5.41304C53.313 7.5472 52.9681 8.87712 52.9776 11.3279C52.9828 12.6743 52.2755 13.6818 51.8421 14.2905C51.6245 14.5962 50.0346 15.6207 47.6295 17.2256C45.8582 18.4075 41.4813 21.2677 39.1568 20.4784C36.613 19.6146 36.9742 15.3765 37.3464 13.3846C37.9129 10.3534 40.6597 7.87259 43.0266 6.2118C45.8351 4.24124 50.9614 2.43644 51.5236 2.25172C53.3279 1.65886 55.9226 2.00105 57.4429 2.38328C58.2992 2.59858 58.6722 3.42135 59.5235 5.52458C59.7649 6.12106 59.8204 6.70076 59.9055 8.12467C60.2305 13.5602 60.7919 14.5971 55.8791 16.6665C53.2291 17.7828 49.0522 19.9063 46.9484 16.9917C44.9825 14.2681 47.1432 10.1506 49.0807 8.25319C51.4279 5.95451 54.2741 4.44102 57.5339 4.19221C63.5301 3.73453 67.3475 3.58416 68.7252 10.028C69.2928 12.6831 66.575 16.8334 64.8941 18.6485C64.0159 19.5968 60.5182 19.6464 59.5626 18.6659C58.1342 17.2004 58.628 13.454 58.6307 11.6845C58.6325 10.5324 58.9958 9.31591 59.5725 7.62176C60.5505 4.7487 64.3839 4.82136 67.0109 4.01036C69.4843 3.24678 71.2102 3.82308 71.9526 4.23944C72.7877 4.70774 74.0213 6.05596 75.3627 7.43014C76.0141 8.09745 76.1764 8.5668 76.4047 9.52517C76.8517 11.4012 76.912 13.7804 76.8334 15.8349C76.7366 18.3643 76.07 19.0088 75.406 19.8676C73.5641 22.2498 72.318 22.2172 70.9549 22.8099C66.4371 24.7741 65.5621 16.2993 64.3464 14.7606" stroke="#BAB9B9" stroke-width="2" stroke-linecap="round"/>
<path d="M29.9862 65.934C29.9862 65.9542 30.0273 68.0565 30.0498 71.6551C29.9519 74.0207 29.7659 75.4716 29.6023 76.4189C29.5428 76.8 29.5311 76.9785 29.519 77.1625" stroke="#BAB9B9" stroke-width="2" stroke-linecap="round"/>
<path d="M47.9456 64.1726C47.9456 65.6468 47.9731 68.8212 48.0807 70.0118C48.2064 72.0519 48.4093 74.0738 48.4356 75.235C48.4482 75.7955 48.6528 75.3429 48.6641 75.8603" stroke="#BAB9B9" stroke-width="2" stroke-linecap="round"/>
<path d="M29.9998 77.3339C30.3133 77.3382 31.882 77.6312 34.3359 77.9203C38.4034 78.3994 41.7614 77.524 45.712 76.7717C47.4198 76.2262 47.99 76.0452 48.3881 75.9331C48.5695 75.8818 48.7091 75.8416 49.0112 75.797" stroke="#BAB9B9" stroke-width="2" stroke-linecap="round"/>
<path d="M7.47485 85.8313C14.1892 84.2381 20.7154 80.1617 27.2078 77.8773C27.8054 77.5965 28.4059 77.3398 28.8549 77.2077C29.053 77.1534 29.1906 77.1251 29.4231 77.0526" stroke="#BAB9B9" stroke-width="2" stroke-linecap="round"/>
<path d="M48.5815 75.5856C48.6011 75.5856 50.236 75.6275 52.9039 75.7312C59.6866 75.9947 66.2738 78.7004 73.1534 79.0743C73.5606 79.0822 73.9463 79.0889 74.6546 79.2104" stroke="#BAB9B9" stroke-width="2" stroke-linecap="round"/>
<path d="M74.6619 79.8873C74.6619 79.8973 74.6619 79.9073 74.6732 82.2252C74.6846 84.5431 74.7072 89.1687 74.7783 92.0065C74.8494 94.8443 74.9681 95.7542 75.0901 96.8062C75.347 99.0233 75.6127 100.856 75.9386 102.284C76.3358 104.024 76.7442 105.944 77.1502 107.47C77.6351 109.293 78.2342 111.189 78.73 112.517C79.0454 113.154 79.2708 113.593 79.3665 113.884C79.4072 114.029 79.4319 114.168 79.4574 114.554" stroke="#BAB9B9" stroke-width="2" stroke-linecap="round"/>
<path d="M61.7473 95.0751C61.7526 95.361 62.0054 97.4562 62.6913 100.966C63.0608 102.856 63.7737 104.903 64.1685 106.536C65.2027 110.813 65.8874 115.098 67.412 119.262C67.644 119.842 67.8687 120.293 68.1386 120.968" stroke="#BAB9B9" stroke-width="2" stroke-linecap="round"/>
<path d="M7.47485 85.8313C7.47485 85.8509 7.47949 86.9927 7.51041 88.8589C7.52764 89.8986 7.6832 90.3781 7.77667 92.5802C7.86287 94.611 7.85759 98.5015 8.16175 102.14C8.46591 105.778 9.03616 109.048 9.25199 111.458C9.46781 113.869 9.31193 115.321 9.16228 116.388C9.01263 117.454 8.87393 118.09 8.781 118.901C8.68807 119.713 8.6451 120.679 8.58313 121.767" stroke="#BAB9B9" stroke-width="2" stroke-linecap="round"/>
<path d="M24.1907 98.29C24.1907 98.7253 24.3412 100.642 24.7667 102.167C24.9797 102.93 25.4489 105.409 25.6827 108.182C25.834 109.976 25.9973 111.973 26.1805 114.198C26.4246 117.163 26.9564 118.993 26.9974 119.411C27.0856 119.994 27.2268 120.669 27.3677 121.292C27.4249 121.583 27.4531 121.82 27.4822 122.338" stroke="#BAB9B9" stroke-width="2" stroke-linecap="round"/>
<path d="M31.3464 78.2606C31.2963 78.4321 29.2125 80.8776 27.6943 83.3303C26.0454 85.9939 24.7063 86.9851 24.3318 87.7004C23.8376 88.6442 26.9783 91.0189 28.3875 92.6526C29.0151 93.3802 29.5441 93.7599 29.8064 93.9452C29.9485 94.0455 30.096 94.1762 30.4205 93.9614C31.3598 93.3398 32.2096 92.1526 33.2639 91.0048C33.8786 90.3354 34.5627 89.4074 35.3776 88.4271C37.0653 86.397 38.6826 84.7695 39.793 83.7932C40.8905 82.8283 41.2175 82.8991 41.8464 82.7606C42.8858 82.5318 44.0701 84.0387 45.8119 86.267C46.3883 87.0045 46.975 87.5839 47.9471 88.8213C50.7628 92.4052 51.596 93.0811 51.748 93.2043C52.2532 93.6134 52.6411 92.3063 54.303 91.0195C55.5347 90.0658 57.1964 87.9529 58.2808 86.85C58.5851 86.5405 57.7297 85.2221 56.1771 83.4355C54.7281 81.7681 53.1451 79.858 52.5505 79.1784C51.5675 77.8052 51.0133 77.335 50.7835 77.1541C50.666 77.0428 50.5469 76.8919 50.1351 76.4724" stroke="#BAB9B9" stroke-width="2" stroke-linecap="round"/>
<path d="M36.2708 89.7128C36.4964 89.9522 37.7067 91.4962 38.3285 92.4418C38.7702 93.1134 39.2222 93.9343 39.4692 94.1769C40.2258 94.92 42.4018 94.2303 43.1557 94.1827C43.4683 94.1629 43.8583 94.1235 44.2118 94.0511C44.4408 93.4571 44.9972 92.0945 46.0594 90.2726C46.3713 89.7552 46.7219 89.1533 47.1431 88.4587" stroke="#BAB9B9" stroke-width="2" stroke-linecap="round"/>
<path d="M39.255 93.9068C39.255 93.9356 38.8532 95.0807 38.3991 97.0117C38.0038 98.6933 37.1853 101.778 36.6238 103.743C35.842 106.478 35.3639 107.813 35.1122 109.251C34.7712 111.199 34.3141 113.119 34.1183 114.617C33.9606 115.824 34.4727 117.11 35.1745 118.316C36.0179 119.767 36.9584 121.661 38.0209 123.997C38.308 124.605 38.4763 124.932 38.641 125.266C38.72 125.421 38.7896 125.545 38.8827 125.7" stroke="#BAB9B9" stroke-width="2" stroke-linecap="round"/>
<path d="M44.3464 94.7606C44.4033 94.9127 46.0627 97.5482 47.3085 99.514C48.4249 101.276 48.9446 103.42 49.6492 104.545C50.0369 105.164 50.4002 106.239 51.0286 107.849C51.807 109.843 52.5914 111.194 52.7301 111.989C53.0407 113.769 53.3595 114.707 53.3932 117.042C53.4036 117.766 51.7628 122.202 51.0286 125.266" stroke="#BAB9B9" stroke-width="2" stroke-linecap="round"/>
</svg>
