<svg width="100" height="135" viewBox="0 0 100 135" fill="none" xmlns="http://www.w3.org/2000/svg">
<path d="M85.4702 62.2502C85.5014 62.6079 86.0895 65.0495 87.2905 67.8214C88.323 70.2044 89.3593 71.5529 90.2302 73.3447C91.9147 76.8104 91.9522 78.5646 92.2551 80.466C93.2834 84.9603 94.6333 86.2425 95.9056 88.0369C96.282 88.6384 96.7643 89.4308 97.1012 90.0538" stroke="#C62D0A" stroke-width="2" stroke-linecap="round"/>
<path d="M87.0773 127.33C87.0134 120.393 84.7752 113.105 84.1149 106.104C83.9056 103.884 83.7966 103.279 83.7155 102.866C83.6345 102.453 83.5847 102.25 83.5334 101.966" stroke="#C62D0A" stroke-width="2" stroke-linecap="round"/>
<path d="M44.9204 11.8287C43.2669 11.8287 38.3941 12.2579 36.4833 13.1215C35.0947 13.7491 33.6419 16.8204 31.1559 22.3442C30.5027 23.7956 30.4045 25.2943 30.252 29.8273C30.0996 34.3604 30.065 41.9476 29.9939 46.106C29.8861 52.409 27.9182 55.5343 26.7003 58.7193C25.2893 62.4096 25.4829 67.6486 24.6693 73.4386C24.3508 75.705 24.4786 79.1097 24.56 82.4675C25.2886 92.9631 26.2049 94.8969 27.1082 96.0964C27.3106 96.3795 27.4746 96.6702 27.8765 97.5035" stroke="#C62D0A" stroke-width="2" stroke-linecap="round"/>
<path d="M41.8404 11.4935C40.7142 11.4959 36.2537 12.2052 33.0178 13.4563C30.8898 14.279 29.1095 16.1572 27.9921 17.2413C27.0186 18.1857 26.4489 19.7362 25.8437 21.6755C25.0476 24.2261 25.137 25.5476 24.8335 28.539C24.4017 32.7945 24.906 36.9787 25.1295 39.6443C25.4537 43.5112 24.906 48.7332 24.6575 53.4449C24.5198 56.0549 24.4028 60.1733 23.8386 65.3652C23.5526 67.9966 22.837 70.5658 22.436 74.3551C22.0351 78.1445 21.8605 83.0621 21.9006 86.0341C21.9836 92.1841 23.6873 97.2039 24.3264 99.3385C24.4457 99.9918 24.5698 100.955 24.7066 102.245C24.7633 102.91 24.7943 103.598 24.9606 104.634" stroke="#C62D0A" stroke-width="2" stroke-linecap="round"/>
<path d="M34.188 64.5012C34.1778 65.1483 34.0613 66.9191 34.0728 78.7178C34.0764 82.3489 35.365 83.7612 36.2132 84.8216C37.1859 86.0377 37.9219 87.1118 38.3567 88.9387C38.4622 89.4582 38.5674 89.9709 38.6241 90.9181C38.6808 91.8652 38.6859 93.2312 38.6911 94.5934" stroke="#C62D0A" stroke-width="2" stroke-linecap="round"/>
<path d="M35.3115 71.9384C35.5265 72.2353 36.3365 73.3182 37.1214 74.4465C37.3059 74.7988 37.4648 75.2496 37.6328 75.616C37.8007 75.9823 37.9729 76.2507 38.1504 76.5271" stroke="#C62D0A" stroke-width="2" stroke-linecap="round"/>
<path d="M28.6612 57.7749C28.6211 58.3324 28.3265 59.9824 28.1507 61.3952C27.9435 63.0603 27.4931 64.3511 27.2851 66.0923C27.1331 67.3644 27.506 68.4818 28.1422 69.2223C29.5369 70.8455 30.9018 71.332 31.575 72.5776C32.8854 75.0023 30.9699 83.4588 30.6084 87.4674C30.4489 89.2368 31.5094 91.1085 32.3264 92.4582C32.7929 93.0976 33.2286 93.6752 33.6106 94.159C33.8059 94.4008 34.004 94.635 34.1035 94.6469" stroke="#C62D0A" stroke-width="2" stroke-linecap="round"/>
<path d="M26.5618 69.21C26.7097 69.6682 27.7396 71.3727 28.8239 72.6669C30.4041 74.5528 31.2061 77.0142 31.8537 79.1856C32.887 82.65 32.8328 84.3749 33.338 86.0006C33.5805 86.7478 33.8426 88.1172 34.1019 89.8716C34.2192 90.6127 34.3074 91.0509 34.5957 92.3643" stroke="#C62D0A" stroke-width="2" stroke-linecap="round"/>
<path d="M24.9487 74.1638C26.0644 76.3779 28.9707 83.5071 29.3915 86.0113C29.4932 89.2573 29.8077 93.8744 30.3806 95.5762C30.5548 96.0387 30.7412 96.5377 30.9688 96.8819" stroke="#C62D0A" stroke-width="2" stroke-linecap="round"/>
<path d="M38.0351 13.0474C37.0721 13.0521 34.6178 13.3041 33.0753 14.4293C31.223 15.7804 30.4876 17.5163 28.6648 20.3679C27.389 22.3639 27.27 26.4383 27.5698 28.663C27.9077 31.171 29.2113 34.2471 29.9714 39.7603C30.3851 42.7608 29.4499 47.2794 28.4703 52.1093C27.9734 54.5591 27.3386 56.6767 26.1677 59.8C24.9093 63.1566 24.4718 66.7158 24.0762 70.2354C23.6264 74.2372 24.1738 78.4012 24.726 81.946C25.4318 86.4773 27.0108 88.1874 27.7978 94.3601C27.9132 95.6661 27.9152 96.0196 28.0731 97.122C28.231 98.2245 28.5449 100.065 28.8682 101.962" stroke="#C62D0A" stroke-width="2" stroke-linecap="round"/>
<path d="M38.8648 11.0013C38.242 11.0033 34.5582 11.8405 31.2411 13.4943C30.3367 13.9451 28.8219 16.2236 26.3363 19.7761C22.7176 24.9481 22.4997 26.8864 21.9147 31.3737C21.1357 37.3488 22.0674 39.2691 22.2949 42.1699C22.369 43.115 22.4105 46.4476 22.3012 51.4924C22.2361 54.4995 21.882 56.3126 21.4506 59.5314C21.1286 61.9335 20.3412 65.8581 19.9841 70.2792C19.242 79.465 19.7757 84.717 19.9777 85.3583C20.4967 87.0065 21.2057 88.8361 21.7507 92.9436C22.2162 96.9049 23.1267 100.99 23.3842 103.39C23.488 104.306 23.537 104.608 23.5875 105.628" stroke="#C62D0A" stroke-width="2" stroke-linecap="round"/>
<path d="M43.1957 10.6151C41.6708 10.608 36.8992 10.5544 34.3508 11.1438C29.1372 12.3495 27.5669 14.7229 24.4269 18.9855C22.0012 22.2783 20.6045 27.9159 19.5376 31.4596C19.1262 32.8259 18.9469 35.2637 18.7605 40.1808C18.574 45.098 18.5677 52.4632 18.6873 56.8601C18.8399 62.4724 19.5699 64.7678 20.1268 67.3492C21.5085 73.753 20.8329 76.9749 20.3954 78.5233C20.2203 79.1432 20.2214 82.0116 20.0717 86.7299C19.9468 90.665 19.4084 94.8822 19.5141 98.9146C19.9481 101.176 20.6061 102.465 21.251 103.471C21.5464 103.878 21.7771 104.073 22.243 104.409" stroke="#C62D0A" stroke-width="2" stroke-linecap="round"/>
<path d="M45.9168 11.1916C45.4786 11.0504 43.9631 10.5809 38.7012 10.5004C35.2789 10.448 33.6073 11.1396 30.6999 11.7649C28.4818 12.2419 26.6638 13.4849 25.1601 15.3207C24.4906 16.1381 24.0124 17.2396 22.8628 19.4059C20.7143 23.4545 19.4044 27.1842 18.7763 29.5728C17.9472 32.7264 17.7689 35.2478 17.5728 36.9485C17.2751 39.5308 16.7237 42.9996 16.675 48.9529C16.6424 52.9326 16.551 58.8583 16.7157 62.7476C17.0539 70.7335 18.8473 72.4888 19.1453 74.0785C19.7015 77.046 18.6125 78.9116 17.9138 82.6741C17.4076 85.3998 16.6795 87.1507 16.4167 91.9262C16.5093 97.5669 17.0005 98.9055 17.36 99.8308C17.5421 100.232 17.7238 100.493 17.9501 100.8" stroke="#C62D0A" stroke-width="2" stroke-linecap="round"/>
<path d="M45.1655 10.8956C44.6434 10.8928 41.7013 10.4431 36.2091 10.3141C31.6093 10.206 29.5 11.7168 27.0101 13.048C24.0237 14.6446 22.4588 16.6922 19.8807 21.2994C17.7357 25.1325 18.0586 27.8609 17.2121 34.6345C15.8495 45.5372 14.238 46.5886 13.6107 48.6977C12.3505 52.9346 11.4607 55.9649 11.6793 60.586C11.863 64.4673 13.7306 68.3763 14.1699 71.8962C14.9223 77.9242 13.5474 82.2244 12.8454 85.895C12.869 87.7681 13.4869 89.4738 14.248 92.0407C14.4082 92.6247 14.5063 92.9743 14.9188 93.9502" stroke="#C62D0A" stroke-width="2" stroke-linecap="round"/>
<path d="M15.8579 46.4004C15.8579 46.4655 15.8579 49.9855 15.8141 55.5041C15.7769 60.2018 15.428 64.6186 15.3223 67.4506C15.1821 71.206 15.2284 74.8229 15.4418 76.3811C15.6646 77.5516 15.8522 78.6372 15.9442 80.1164C15.9848 81.2069 16.013 82.9871 16.0421 84.8214" stroke="#C62D0A" stroke-width="2" stroke-linecap="round"/>
<path d="M46.037 10.378C45.5751 10.3635 42.181 9.36368 35.4221 8.12909C29.8697 7.1149 27.563 9.06737 25.547 10.7344C23.4648 12.4561 22.014 13.6001 19.6874 16.2947C18.9378 17.1628 18.2084 19.0927 17.0256 22.1392C15.9437 24.9259 15.343 28.8438 14.9463 33.0086C14.7135 35.4518 14.887 36.671 14.989 38.4036C15.1975 41.9453 14.5462 45.6738 13.4733 48.4129C11.9191 52.3808 11.5566 54.0991 11.0701 56.5601C9.89211 62.5193 9.47487 64.489 9.97271 67.2938C10.6045 70.8535 11.8902 73.5081 12.0297 74.4713C12.1383 75.2202 12.2034 76.211 12.4063 78.9905C12.5156 81.1145 12.6377 84.6872 12.8892 87.7937C13.1406 90.9003 13.5176 93.4326 13.906 96.0416" stroke="#C62D0A" stroke-width="2" stroke-linecap="round"/>
<path d="M46.0344 9.73471C45.501 9.68027 42.6133 8.37849 39.9321 7.17801C37.4008 6.04462 34.4901 6.41719 30.5111 7.11471C27.9828 7.55794 26.5417 8.75481 24.8447 10.1386C22.8698 11.7489 21.167 14.056 19.7125 15.379C17.9095 17.019 16.1625 20.1717 15.2907 22.9754C14.8258 24.4703 14.462 27.2889 14.1553 30.1555C13.8486 33.0221 13.7703 35.8922 13.7947 38.5332C13.8407 43.5013 14.1322 46.1252 14.264 46.633C14.4209 47.2377 14.5731 49.7867 14.5144 53.3705C14.4601 56.6823 12.0937 59.6816 11.1953 60.9807C10.5072 61.9757 10.026 63.3091 9.73611 64.3485C9.43579 65.4254 9.1897 66.8347 9.00529 68.0088C8.77664 69.4646 7.98778 71.0661 7.31663 72.7062C6.19372 75.4501 7.05524 78.2067 7.42045 79.3305C8.20797 81.7539 7.65865 86.2173 7.38062 89.3511C7.04927 93.0858 7.22002 94.8208 7.62172 96.3802C8.164 98.1578 8.29169 98.9498 8.3357 99.512C8.35494 99.8202 8.3679 100.175 8.40918 100.651" stroke="#C62D0A" stroke-width="2" stroke-linecap="round"/>
<path d="M9.39697 69.13C9.39697 71.0953 9.45803 74.8482 9.66027 76.0702C9.85913 77.2719 9.95961 78.6665 10.1774 80.5644C10.3754 82.2888 10.592 84.7184 10.7666 87.2788C11.0865 91.9694 11.0158 93.308 11.2614 94.7795C11.3679 95.3443 11.4348 95.8313 11.4887 96.3048C11.5254 96.5443 11.581 96.7825 11.6174 97.1824" stroke="#C62D0A" stroke-width="2" stroke-linecap="round"/>
<path d="M4.1181 99.4463C4.08354 99.1742 3.25406 96.5313 2.62421 94.3766C2.17028 92.8237 2.21047 90.9691 2.20202 89.1126C2.18094 84.4798 3.09437 82.2412 3.72005 80.2347C4.38256 78.1102 4.96408 76.9384 5.28989 75.3021C5.93147 72.0801 5.9259 69.3458 6.40996 66.676C7.50944 63.8798 9.11679 60.9523 10.2636 58.7522C10.4546 58.34 10.5314 58.1582 10.9418 57.5358" stroke="#C62D0A" stroke-width="2" stroke-linecap="round"/>
<path d="M2.82257 96.0468C2.82257 96.0315 2.81131 95.4204 2.58432 93.2275C2.15227 89.0537 1.51617 86.2246 1.48314 85.6625C1.4358 84.8564 1.31602 81.9462 1.29528 78.1328C1.28659 76.5348 1.1266 75.6464 1.02988 73.9156C0.887893 71.3744 1.26469 68.1509 1.88816 64.8144C2.95846 59.0867 4.59479 56.9615 5.24147 55.9102C5.99792 54.6805 8.11165 53.831 8.7786 52.9367C10.0799 51.1917 11.0214 47.8698 11.545 45.4863C11.9733 43.5363 11.9538 39.9517 12.076 37.8715C12.2277 35.2881 12.3313 34.2387 12.3627 33.1386C12.3955 31.9944 12.5159 29.4653 12.4812 26.3533C12.4483 23.4165 12.638 20.1945 13.7596 17.2979C14.5826 15.1726 15.9373 12.3717 17.388 9.79089C18.5392 7.743 21.893 7.05017 24.7654 6.46264C25.5716 6.29774 26.707 5.96869 28.7083 5.63551C31.3101 5.20237 33.3582 5.45047 35.0167 5.68771C40.0193 6.40331 41.2377 6.88592 42.4603 7.34325C42.9207 7.61979 43.6603 8.28973 44.5289 9.18023C44.876 9.54772 45.033 9.74382 45.2288 10.0312" stroke="#C62D0A" stroke-width="2" stroke-linecap="round"/>
<path d="M27.2983 6.53406C26.5495 6.53406 24.6182 6.63134 21.2342 8.82407C20.1382 9.53424 18.8983 11.2422 17.3306 13.4357C16.5933 14.4672 16.5644 16.4084 16.5539 19.2621C16.5459 21.4403 17.0458 24.1566 16.7801 28.1353C16.526 30.3009 16.0296 32.7642 15.7443 37.8104C15.459 42.8566 15.3999 50.4111 15.2241 58.3271" stroke="#C62D0A" stroke-width="2" stroke-linecap="round"/>
<path d="M45.9607 12.4299C46.549 12.374 48.3205 12.0411 49.3716 11.6021C50.3982 11.1733 51.6472 11.1533 55.9241 11.2592C59.52 11.3483 60.7028 13.0576 61.6705 14.2589C62.8368 15.7066 62.723 19.7956 62.9443 22.5948C63.1026 24.5965 64.3442 27.009 65.5484 29.9258C66.9477 33.3151 67.8498 36.18 69.6362 40.1026C70.7925 42.6416 72.4518 45.7244 73.2385 47.6449C74.032 49.5824 74.278 53.8604 75.2163 58.6296C75.7685 61.4365 76.2185 63.1812 76.0389 65.5206C75.9271 66.9751 75.5479 68.9508 75.3264 73.9036C75.1049 78.8563 74.9949 86.7206 75.0283 90.9357C75.0642 95.4831 75.7354 96.6249 76.454 98.3878C77.3663 100.415 78.0237 101.8 78.305 102.478C78.4465 102.876 78.5852 103.385 78.7586 103.81" stroke="#C62D0A" stroke-width="2" stroke-linecap="round"/>
<path d="M46.8318 11.1264C47.9996 11.1264 51.2826 11.0128 53.1191 10.8743C57.08 10.5757 58.6234 11.1645 60.7145 12.0296C62.004 12.5631 63.2266 12.8268 65.4361 14.9163C68.7755 18.0744 68.4318 21.2207 68.7028 22.7127C69.3296 26.1636 69.8376 30.7738 70.7686 33.4257C71.5428 35.6313 72.3821 36.641 74.0024 39.1089C75.9671 42.1012 77.5192 44.6735 78.646 45.9939C80.0434 47.6314 82.1874 50.2053 84.2251 53.1535C86.0409 55.7807 87.0171 57.2931 87.8815 58.2036C88.1418 58.3949 88.4797 58.6054 88.7634 58.7804C89.0472 58.9554 89.2665 59.0886 89.4925 59.2259" stroke="#C62D0A" stroke-width="2" stroke-linecap="round"/>
<path d="M62.9792 14.3165C62.9792 14.352 63.7198 15.9692 65.1908 18.9341C66.4514 21.475 68.4313 24.6183 70.4737 29.044C72.5899 33.6294 73.076 36.9849 73.2427 38.1731C73.5771 40.557 75.6801 45.2858 76.8457 47.1714C77.366 48.0131 78.9195 50.3337 80.7567 53.8744C82.9055 58.0156 82.8457 60.9011 83.2637 63.9273C83.5886 66.2794 83.2215 68.1823 83.7377 74.3177C83.9853 77.2601 83.9441 81.8841 84.0088 84.429C84.082 87.3087 84.3244 88.1837 84.6103 89.5617C85.6917 94.8847 87.116 99.5277 87.3497 100.319C87.4927 100.857 87.6851 101.671 88.0908 102.971" stroke="#C62D0A" stroke-width="2" stroke-linecap="round"/>
<path d="M68.7939 52.792C68.7939 54.6841 68.9858 59.0031 69.2322 62.1394C69.3933 64.1894 71.4494 67.0417 72.4987 68.7522C72.8416 69.3113 74.6609 71.4595 77.5006 75.0912C79.8919 78.1493 81.9773 80.5816 83.1688 83.5267C85.478 89.2348 84.7938 90.976 85.8341 94.8684C86.2482 96.1316 86.7856 97.5021 87.127 98.3241C87.4684 99.1462 87.5977 99.3784 87.7641 99.7805" stroke="#C62D0A" stroke-width="2" stroke-linecap="round"/>
<path d="M66.3926 57.8817C66.3926 57.9422 66.8362 59.2641 67.8585 62.0082C69.0068 65.0905 70.3385 68.2579 71.0643 71.2171C72.0899 75.399 71.9208 77.5881 72.5742 80.8807C73.999 84.1148 75.5653 86.802 77.2131 90.8489C77.6351 91.8461 77.9641 92.546 78.3633 93.3624" stroke="#C62D0A" stroke-width="2" stroke-linecap="round"/>
<path d="M71.7156 68.5045C71.7489 68.9317 72.1354 71.0572 73.0159 73.7624C73.4275 75.0271 74.7268 76.0437 75.7787 77.8758C78.1097 81.9356 79.4324 84.239 80.7878 86.5395C81.9202 88.4613 81.8666 91.1411 82.393 93.652C83.9219 99.2533 84.9193 101.908 85.4163 102.962C85.5239 103.211 85.6137 103.432 85.7062 103.66" stroke="#C62D0A" stroke-width="2" stroke-linecap="round"/>
<path d="M62.9729 63.9211C63.0548 64.2229 64.2609 66.9233 65.5574 69.3779C66.3037 70.7908 66.1379 74.5367 66.0367 78.5173C65.9802 80.739 66.0186 84.8922 66.0568 87.3348C66.1259 91.7554 67.3025 94.3233 67.9661 95.55C69.3884 98.3774 71.3107 99.6065 73.2698 101.966" stroke="#C62D0A" stroke-width="2" stroke-linecap="round"/>
<path d="M64.5078 62.3086C64.8254 62.3926 65.8098 62.8772 67.6431 64.1084C69.8036 65.5593 71.1362 68.4428 72.1085 72.912C72.6764 75.5226 72.4622 80.5201 72.6058 83.1754C72.7494 85.8306 72.838 86.0499 72.9578 86.2931C73.0777 86.5362 73.2262 86.7965 73.6902 87.6941" stroke="#C62D0A" stroke-width="2" stroke-linecap="round"/>
<path d="M67.8848 65.6218C67.8848 67.5387 68.8911 74.2228 70.2142 76.3114C71.1608 77.1647 71.8908 78.0108 72.3944 78.7446C72.6246 79.0962 72.8033 79.4057 73.2698 80.0948" stroke="#C62D0A" stroke-width="2" stroke-linecap="round"/>
<path d="M68.6764 72.5315C68.6764 73.2427 68.586 75.2557 68.5728 78.341C68.5643 80.3265 69.9867 81.1344 70.8431 81.9087C71.1277 82.1817 71.497 82.5746 71.9427 83.0916C72.3884 83.6087 72.8992 84.238 73.4254 84.8864" stroke="#C62D0A" stroke-width="2" stroke-linecap="round"/>
<path d="M91.6032 99.4825C91.4315 99.203 89.7449 96.9909 87.637 92.2315C86.2372 89.0711 85.757 87.4417 83.2643 82.1693C82.0059 79.5076 81.6463 75.2215 81.1186 72.5822C80.5763 69.8704 80.8594 65.3781 80.5435 63.7197C79.8819 60.2454 78.8824 58.1269 77.7664 55.1992C76.6103 52.1663 74.9821 48.6597 74.2561 46.9975C73.4116 45.0639 73.3275 42.7432 72.8321 41.9389C72.2998 41.0748 71.3901 40.4116 70.8964 39.4484C70.8185 39.1841 70.762 38.9245 70.6368 38.7203C70.5116 38.5161 70.3195 38.3753 69.8975 37.8756" stroke="#C62D0A" stroke-width="2" stroke-linecap="round"/>
<path d="M94.8711 94.9075C94.2326 94.1838 91.7818 91.2636 90.4542 89.726C89.4233 88.532 88.472 86.9682 87.6231 85.7087C85.9153 83.1752 85.5607 81.2899 85.2681 77.9048C85.0419 75.2879 84.8988 70.8274 84.728 68.0528C84.5572 65.2782 84.4247 64.3198 84.3031 60.3835C84.1814 56.4473 84.0748 49.5621 84.0321 45.8891C83.975 40.9779 84.3513 38.0984 84.5515 36.0084C84.8094 33.3161 82.1553 31.0543 81.4855 29.8845C81.1493 29.2974 80.7884 28.6966 80.2534 27.7519C79.2831 26.0382 77.1822 22.7676 74.4445 19.1436C71.8599 15.7223 70.9803 14.6865 69.9727 13.5178C67.753 10.9432 64.8403 10.2724 62.2796 9.82915C60.4242 9.50801 57.9658 9.51368 54.9659 9.26599C49.4693 9.27309 48.4297 9.62339 47.4119 10.426C47.1957 10.6423 47.0366 10.8292 46.8105 11.1441" stroke="#C62D0A" stroke-width="2" stroke-linecap="round"/>
<path d="M44.3442 6.96068C45.0398 6.30387 46.7904 4.68807 48.5989 3.17019C50.2466 1.78726 52.3029 1.28817 58.9152 1.00716C61.6152 0.892418 63.8861 2.18069 65.1533 3.12052C67.093 4.55915 67.4069 5.90541 68.0374 7.44086C68.896 9.53198 70.5343 13.0115 71.8333 17.4671C72.158 18.5807 72.4371 19.5096 72.8681 22.4946C73.7446 28.566 74.1211 33.1162 74.5755 34.1162C75.4269 35.9899 76.4599 38.5255 76.9535 39.8484C77.2925 40.7568 77.7631 41.7136 78.6651 43.4809C80.4294 46.9374 81.5245 49.9285 82.1326 52.2066C83.9945 59.1815 84.7327 60.5561 86.5937 62.6996C88.1502 64.4924 90.9902 68.3288 93.2025 71.3602C94.5217 73.1678 95.3009 76.9737 95.8072 79.4169C96.2115 83.6843 97.051 86.7408 97.7491 89.7246C98.0133 91.2917 98.4645 94.1856 98.9571 97.619" stroke="#C62D0A" stroke-width="2" stroke-linecap="round"/>
<path d="M80.3823 45.674C80.3151 44.1785 80.0571 40.7186 79.7052 38.0537C78.8136 31.302 77.3214 28.7336 76.2473 26.9329C75.3059 25.3544 75.3673 24.2172 74.7976 22.7178C74.6532 22.3695 74.5655 22.1324 74.478 21.8918C74.3906 21.6511 74.3059 21.414 74.2188 21.1698" stroke="#C62D0A" stroke-width="2" stroke-linecap="round"/>
<path d="M45.7163 7.93547C46.3572 7.93395 48.6796 7.71669 52.1957 7.39956C54.574 7.18504 58.1884 7.31123 60.6432 7.50865C66.3711 8.92549 68.4073 10.0636 69.0137 10.5503C69.3106 10.8095 69.5855 11.0933 69.9651 11.5301" stroke="#C62D0A" stroke-width="2" stroke-linecap="round"/>
<path d="M45.5195 6.86951C45.636 6.83901 46.4284 6.49204 47.7564 5.64604C48.0978 5.42858 48.8216 5.2012 49.8538 4.92215C50.4349 4.76505 50.8552 4.74467 51.4707 4.6146C52.4132 4.41538 53.1332 4.4359 53.5635 4.39501C54.3438 4.32085 54.97 4.17641 55.3171 4.12824C55.776 4.06456 56.4272 3.9662 57.4228 3.98894C58.0209 4.0026 58.8062 4.06306 59.68 4.18362C61.5009 4.43487 62.5944 4.73932 62.8476 4.81697C63.0513 4.87943 63.5848 4.99686 64.3416 5.26747C65.5615 5.70367 66.4107 6.68139 66.8194 7.21117C67.4749 8.01181 67.9619 8.61399 68.0673 8.78805C68.1204 8.88462 68.1727 8.99792 68.2963 9.2254" stroke="#C62D0A" stroke-width="2" stroke-linecap="round"/>
<path d="M28.7056 56.6742C28.8466 57.0767 29.3379 58.2342 30.1913 59.746C32.3564 63.5814 35.5796 65.7339 39.2999 67.8883C41.4454 69.1306 44.1417 70.0865 46.5376 70.6952C51.3482 71.9173 54.6985 70.2416 58.4615 67.3481C61.7809 64.7956 63.5764 61.685 65.6716 58.1593C66.9155 56.0663 67.5979 55.3433 67.9137 54.5827C68.6307 52.8557 69.8721 50.5158 70.5946 49.1796C70.998 48.3209 71.3305 47.6422 71.4792 47.3679C71.5434 47.2284 71.5846 47.0883 71.6266 46.9028" stroke="#C62D0A" stroke-width="2" stroke-linecap="round"/>
<path d="M39.2227 68.6084V83.5522" stroke="#C62D0A" stroke-width="2" stroke-linecap="round"/>
<path d="M60.5659 66.6478C60.5659 66.6535 60.5659 66.6592 60.5831 68.1824C60.6002 69.7057 60.6345 72.7463 60.6568 74.899C60.6792 77.0516 60.6885 78.2242 60.6985 79.0164C60.7084 79.8087 60.7187 80.1852 60.766 80.8765" stroke="#C62D0A" stroke-width="2" stroke-linecap="round"/>
<path d="M39.1787 83.4261C39.2015 83.7247 39.9378 84.6375 40.5 85.5C40.9462 86.1846 41.7877 87.4922 44.3151 91.0679C46.5 94.159 48.1822 97.3497 50.2522 100.39C51.4972 102.219 52.2166 103.984 52.9755 105.148C53.9845 106.695 54.0988 107.282 54.1976 107.436C54.2762 107.557 54.5952 105.204 55.1544 102.104C55.4176 100.645 55.6293 99.9402 55.7436 99.1491C55.8484 98.4237 56.1333 96.6497 56.6287 94.2569C57.3036 90.9973 58.0192 87.9811 59.1537 84.8428C59.5098 83.7242 59.8576 82.771 60.2344 81.9163C60.3253 81.7152 60.397 81.5602 60.577 81.1888" stroke="#C62D0A" stroke-width="2" stroke-linecap="round"/>
<path d="M37.1794 84.6115C37.1841 84.6115 37.1888 84.6115 37.25 84.5711C37.3112 84.5307 37.4289 84.45 37.5415 84.3648C37.6542 84.2795 37.7583 84.1923 38.128 83.9977" stroke="#C62D0A" stroke-width="2" stroke-linecap="round"/>
<path d="M60.7421 80.5C60.9426 80.6121 61.1779 81.0014 61.8649 81.5178C62.5805 82.0556 63.2585 82.7267 63.906 83.2346C64.5944 83.7746 65.7964 84.6223 66.7052 85.2756C67.389 85.7672 68.1646 86.4296 68.6963 86.9014C69.6646 87.7606 70.9015 88.7473 71.5346 89.2786C72.3944 90 73.1786 90.4097 73.8192 91.1902C73.9156 91.3076 73.9945 91.4281 74.1077 91.6043" stroke="#C62D0A" stroke-width="2" stroke-linecap="round"/>
<path d="M33.3635 100.113C33.3917 100.515 33.6493 102.418 33.9658 104.647C34.566 108.873 35.0598 112.716 35.3558 114.912C36.1428 120.749 37.0109 126.537 37.9421 132.356C38.0636 132.733 38.2161 133.12 38.5175 133.987" stroke="#C62D0A" stroke-width="2" stroke-linecap="round"/>
<path d="M18.4531 102.016C18.4531 102.705 18.5979 105.141 18.8564 106.956C19.5949 112.141 20.1081 117.301 20.9874 122.466C21.0267 122.746 21.0679 123.015 21.2952 123.595" stroke="#C62D0A" stroke-width="2" stroke-linecap="round"/>
<path d="M71.2473 98.9481C71.2473 106.684 72.5291 113.655 74.6852 120.992C75.6765 124.895 76.405 128.57 76.5547 129.641C76.6045 129.917 76.6705 130.197 76.8005 130.369" stroke="#C62D0A" stroke-width="2" stroke-linecap="round"/>
<path d="M78.4163 93.0001C78.4578 93.2513 79.049 95.1813 79.8502 97.1197C80.3173 98.2499 80.3863 99.8068 80.5834 100.809C80.7287 101.547 81.6792 102.79 82.1234 104.473C82.1945 105.707 82.25 106.622 82.3827 107.02C82.4814 107.239 82.6436 107.494 82.8108 107.758" stroke="#C62D0A" stroke-width="2" stroke-linecap="round"/>
<path d="M72.129 47.4662C72.129 47.4982 71.883 48.7806 71.438 52.0552C70.8005 56.7463 71.0633 60.35 71.3984 62.1046C71.8101 64.2598 72.5664 66.0066 73.1338 66.9588C73.4734 67.5287 74.3 67.7839 75.3094 68.0943C76.1724 68.3596 76.8857 68.1218 77.3649 67.8325C78.3825 67.2181 78.5747 65.4555 79.075 61.254C79.412 58.4238 78.8572 55.6086 78.2059 53.2601C76.6597 50.0767 75.4629 48.8005 74.4016 47.9584C73.9469 47.6315 73.6628 47.5086 72.9679 47.2792" stroke="#821800" stroke-width="2" stroke-linecap="round"/>
<path d="M28.2242 57.0714C28.2313 57.5596 28.5855 59.87 29.0542 62.0514C29.632 64.7403 28.8488 69.3364 28.1883 70.9813C27.752 72.068 26.6865 72.4922 26.2021 72.644C25.7494 72.7412 25.186 72.8151 24.5696 72.8192C24.2935 72.7846 24.0918 72.6755 23.884 72.5631" stroke="#821800" stroke-width="2" stroke-linecap="round"/>
</svg>
